<svg width="28" height="28" viewBox="0 0 28 28" fill="none" xmlns="http://www.w3.org/2000/svg">
<rect width="28" height="28" rx="14" fill="#C8C8C8" fill-opacity="0.19"/>
<path d="M13.9999 15.5003C14.9204 15.5003 15.6666 14.7541 15.6666 13.8337C15.6666 12.9132 14.9204 12.167 13.9999 12.167C13.0794 12.167 12.3333 12.9132 12.3333 13.8337C12.3333 14.7541 13.0794 15.5003 13.9999 15.5003Z" fill="#252525"/>
<path d="M6.49992 15.5003C7.42039 15.5003 8.16659 14.7541 8.16659 13.8337C8.16659 12.9132 7.42039 12.167 6.49992 12.167C5.57944 12.167 4.83325 12.9132 4.83325 13.8337C4.83325 14.7541 5.57944 15.5003 6.49992 15.5003Z" fill="#252525"/>
<path d="M21.4999 15.5003C22.4204 15.5003 23.1666 14.7541 23.1666 13.8337C23.1666 12.9132 22.4204 12.167 21.4999 12.167C20.5794 12.167 19.8333 12.9132 19.8333 13.8337C19.8333 14.7541 20.5794 15.5003 21.4999 15.5003Z" fill="#252525"/>
</svg>
