<svg width="24" height="25" viewBox="0 0 24 25" fill="none"
    xmlns="http://www.w3.org/2000/svg">
    <g opacity="0.4">
        <path d="M20 7.57422C19.8011 7.57422 19.6103 7.4952 19.4697 7.35455C19.329 7.2139 19.25 7.02313 19.25 6.82422C19.25 6.42639 19.092 6.04486 18.8107 5.76356C18.5294 5.48225 18.1478 5.32422 17.75 5.32422C17.5511 5.32422 17.3603 5.2452 17.2197 5.10455C17.079 4.9639 17 4.77313 17 4.57422C17 4.37531 17.079 4.18454 17.2197 4.04389C17.3603 3.90324 17.5511 3.82422 17.75 3.82422C18.1478 3.82422 18.5294 3.66618 18.8107 3.38488C19.092 3.10357 19.25 2.72204 19.25 2.32422C19.25 2.12531 19.329 1.93454 19.4697 1.79389C19.6103 1.65324 19.8011 1.57422 20 1.57422C20.1989 1.57422 20.3897 1.65324 20.5303 1.79389C20.671 1.93454 20.75 2.12531 20.75 2.32422C20.75 2.72204 20.908 3.10357 21.1893 3.38488C21.4706 3.66618 21.8522 3.82422 22.25 3.82422C22.4489 3.82422 22.6397 3.90324 22.7803 4.04389C22.921 4.18454 23 4.37531 23 4.57422C23 4.77313 22.921 4.9639 22.7803 5.10455C22.6397 5.2452 22.4489 5.32422 22.25 5.32422C21.8522 5.32422 21.4706 5.48225 21.1893 5.76356C20.908 6.04486 20.75 6.42639 20.75 6.82422C20.75 7.02313 20.671 7.2139 20.5303 7.35455C20.3897 7.4952 20.1989 7.57422 20 7.57422Z" fill="#6154FF"/>
        <path d="M4 23.5742C3.80109 23.5742 3.61032 23.4952 3.46967 23.3545C3.32902 23.2139 3.25 23.0231 3.25 22.8242C3.25 22.4264 3.09196 22.0449 2.81066 21.7636C2.52936 21.4823 2.14782 21.3242 1.75 21.3242C1.55109 21.3242 1.36032 21.2452 1.21967 21.1045C1.07902 20.9639 1 20.7731 1 20.5742C1 20.3753 1.07902 20.1845 1.21967 20.0439C1.36032 19.9032 1.55109 19.8242 1.75 19.8242C2.14782 19.8242 2.52936 19.6662 2.81066 19.3849C3.09196 19.1036 3.25 18.722 3.25 18.3242C3.25 18.1253 3.32902 17.9345 3.46967 17.7939C3.61032 17.6532 3.80109 17.5742 4 17.5742C4.19891 17.5742 4.38968 17.6532 4.53033 17.7939C4.67098 17.9345 4.75 18.1253 4.75 18.3242C4.75 18.722 4.90804 19.1036 5.18934 19.3849C5.47064 19.6662 5.85218 19.8242 6.25 19.8242C6.44891 19.8242 6.63968 19.9032 6.78033 20.0439C6.92098 20.1845 7 20.3753 7 20.5742C7 20.7731 6.92098 20.9639 6.78033 21.1045C6.63968 21.2452 6.44891 21.3242 6.25 21.3242C5.85218 21.3242 5.47064 21.4823 5.18934 21.7636C4.90804 22.0449 4.75 22.4264 4.75 22.8242C4.75 23.0231 4.67098 23.2139 4.53033 23.3545C4.38968 23.4952 4.19891 23.5742 4 23.5742Z" fill="#6154FF"/>
        <path d="M17 23.5742C16.7348 23.5742 16.4804 23.4689 16.2929 23.2813C16.1054 23.0938 16 22.8394 16 22.5742C16 21.5134 15.5786 20.4959 14.8284 19.7458C14.0783 18.9956 13.0609 18.5742 12 18.5742C11.7348 18.5742 11.4804 18.4689 11.2929 18.2813C11.1054 18.0938 11 17.8394 11 17.5742C11 17.309 11.1054 17.0546 11.2929 16.8671C11.4804 16.6796 11.7348 16.5742 12 16.5742C13.0609 16.5742 14.0783 16.1528 14.8284 15.4026C15.5786 14.6525 16 13.6351 16 12.5742C16 12.309 16.1054 12.0546 16.2929 11.8671C16.4804 11.6796 16.7348 11.5742 17 11.5742C17.2652 11.5742 17.5196 11.6796 17.7071 11.8671C17.8946 12.0546 18 12.309 18 12.5742C18 13.6351 18.4214 14.6525 19.1716 15.4026C19.9217 16.1528 20.9391 16.5742 22 16.5742C22.2652 16.5742 22.5196 16.6796 22.7071 16.8671C22.8946 17.0546 23 17.309 23 17.5742C23 17.8394 22.8946 18.0938 22.7071 18.2813C22.5196 18.4689 22.2652 18.5742 22 18.5742C20.9391 18.5742 19.9217 18.9956 19.1716 19.7458C18.4214 20.4959 18 21.5134 18 22.5742C18 22.8394 17.8946 23.0938 17.7071 23.2813C17.5196 23.4689 17.2652 23.5742 17 23.5742Z" fill="#6154FF"/>
        <path d="M7 13.5742C6.73478 13.5742 6.48043 13.4689 6.29289 13.2813C6.10536 13.0938 6 12.8394 6 12.5742C6 11.5134 5.57857 10.4959 4.82843 9.74579C4.07828 8.99565 3.06087 8.57422 2 8.57422C1.73478 8.57422 1.48043 8.46886 1.29289 8.28133C1.10536 8.09379 1 7.83944 1 7.57422C1 7.309 1.10536 7.05465 1.29289 6.86711C1.48043 6.67958 1.73478 6.57422 2 6.57422C3.06087 6.57422 4.07828 6.15279 4.82843 5.40265C5.57857 4.6525 6 3.63508 6 2.57422C6 2.309 6.10536 2.05465 6.29289 1.86711C6.48043 1.67958 6.73478 1.57422 7 1.57422C7.26522 1.57422 7.51957 1.67958 7.70711 1.86711C7.89464 2.05465 8 2.309 8 2.57422C8 3.63508 8.42143 4.6525 9.17157 5.40265C9.92172 6.15279 10.9391 6.57422 12 6.57422C12.2652 6.57422 12.5196 6.67958 12.7071 6.86711C12.8946 7.05465 13 7.309 13 7.57422C13 7.83944 12.8946 8.09379 12.7071 8.28133C12.5196 8.46886 12.2652 8.57422 12 8.57422C10.9391 8.57422 9.92172 8.99565 9.17157 9.74579C8.42143 10.4959 8 11.5134 8 12.5742C8 12.8394 7.89464 13.0938 7.70711 13.2813C7.51957 13.4689 7.26522 13.5742 7 13.5742Z" fill="#6154FF"/>
    </g>
</svg>
