<svg width="121" height="122" viewBox="0 0 121 122" fill="none" xmlns="http://www.w3.org/2000/svg">
<path d="M24.5366 64.252L24.8862 66.9839L26.2741 67.2674L26.5116 69.1231L18.9328 67.3789L18.673 65.348L25.5684 61.7519L25.8085 63.6282L24.5366 64.252ZM23.2545 64.8771L20.6901 66.1273L23.4879 66.7018L23.2545 64.8771Z" fill="#252525"/>
<path d="M24.8203 51.2888C25.2014 51.3621 25.5328 51.5282 25.8146 51.787C26.0978 52.0391 26.2979 52.3739 26.4151 52.7916C26.5337 53.2025 26.5412 53.6767 26.4378 54.2142C26.282 55.0239 25.9564 55.6527 25.461 56.1007C24.9655 56.5487 24.3594 56.7284 23.6426 56.6399L24 54.7824C24.2774 54.8075 24.5101 54.7535 24.698 54.6203C24.8872 54.4803 25.0067 54.2811 25.0564 54.0225C25.0996 53.798 25.0724 53.6093 24.9748 53.4564C24.8772 53.3036 24.7264 53.2076 24.5222 53.1683C24.3385 53.1329 24.1737 53.1647 24.0276 53.2636C23.8829 53.3557 23.7561 53.483 23.6472 53.6455C23.5315 53.8067 23.3891 54.0334 23.2201 54.3254C22.9759 54.7512 22.7542 55.0966 22.555 55.3617C22.3503 55.6186 22.0848 55.8251 21.7585 55.981C21.4266 56.1289 21.0293 56.1583 20.5667 56.0693C20.138 55.9868 19.7881 55.8066 19.517 55.5286C19.2459 55.2507 19.0654 54.9055 18.9754 54.493C18.8799 54.0725 18.88 53.6139 18.9755 53.1172C19.13 52.3143 19.4429 51.7148 19.9143 51.3186C20.3869 50.9156 20.9626 50.7476 21.6411 50.8147L21.2779 52.7028C21.0332 52.691 20.829 52.7435 20.6655 52.8602C20.4964 52.9688 20.389 53.1421 20.3431 53.3803C20.3039 53.5844 20.3262 53.7616 20.4102 53.9118C20.4955 54.0552 20.6436 54.1472 20.8546 54.1878C21.0247 54.2205 21.1814 54.1942 21.3248 54.1089C21.4628 54.0155 21.5855 53.891 21.6931 53.7353C21.8007 53.5796 21.943 53.3529 22.1202 53.0554C22.3658 52.6228 22.5949 52.2753 22.8077 52.0129C23.0137 51.7491 23.2832 51.5399 23.6164 51.3852C23.9495 51.2306 24.3509 51.1985 24.8203 51.2888Z" fill="#252525"/>
<path d="M29.1112 41.41C29.4545 41.5908 29.7234 41.846 29.9179 42.1755C30.1157 42.4989 30.21 42.8775 30.2008 43.3112C30.1949 43.7388 30.0644 44.1947 29.8093 44.679C29.4251 45.4086 28.9309 45.9158 28.3267 46.2006C27.7225 46.4853 27.0904 46.4813 26.4302 46.1884L27.3116 44.5148C27.5697 44.6194 27.8081 44.6353 28.0266 44.5624C28.2483 44.4834 28.4205 44.3274 28.5432 44.0945C28.6497 43.8921 28.6785 43.7037 28.6295 43.5291C28.5805 43.3545 28.464 43.2188 28.2801 43.1219C28.1146 43.0347 27.9476 43.0173 27.7791 43.0695C27.6139 43.1156 27.4556 43.2006 27.3042 43.3245C27.1467 43.4451 26.9446 43.6206 26.698 43.851C26.3407 44.1875 26.0282 44.4536 25.7606 44.6494C25.4902 44.8359 25.1761 44.9563 24.8186 45.0108C24.4581 45.0559 24.0694 44.9686 23.6525 44.7491C23.2663 44.5457 22.9838 44.2716 22.8051 43.9269C22.6264 43.5822 22.5539 43.1995 22.5876 42.7787C22.6184 42.3485 22.7516 41.9096 22.9873 41.4621C23.3683 40.7387 23.8418 40.2559 24.4079 40.0137C24.9773 39.7653 25.5768 39.7718 26.2067 40.033L25.3107 41.7343C25.08 41.6519 24.8695 41.6428 24.679 41.707C24.4857 41.7618 24.3326 41.8965 24.2196 42.1111C24.1227 42.295 24.0926 42.471 24.1294 42.6392C24.1694 42.8012 24.2844 42.9322 24.4744 43.0323C24.6277 43.113 24.7853 43.1334 24.9473 43.0934C25.1064 43.0441 25.2601 42.9606 25.4082 42.8428C25.5564 42.7251 25.7584 42.5496 26.0144 42.3163C26.375 41.9737 26.6952 41.7077 26.975 41.5183C27.2487 41.3258 27.5674 41.2039 27.9311 41.1526C28.2948 41.1014 28.6882 41.1872 29.1112 41.41Z" fill="#252525"/>
<path d="M29.6792 32.1863L35.1348 37.1087L33.9442 38.4283L28.4887 33.5058L29.6792 32.1863Z" fill="#252525"/>
<path d="M42.1798 28.8802C42.3949 29.2031 42.509 29.5558 42.5222 29.9383C42.5412 30.3169 42.443 30.6944 42.2275 31.0709C42.0178 31.4436 41.6851 31.7817 41.2295 32.085C40.5432 32.542 39.8666 32.751 39.1998 32.7122C38.533 32.6733 37.9797 32.3674 37.54 31.7945L39.1145 30.7462C39.2912 30.9615 39.4929 31.0894 39.7196 31.1299C39.9521 31.1666 40.178 31.112 40.3971 30.9661C40.5875 30.8393 40.7029 30.6876 40.7433 30.5108C40.7838 30.334 40.7464 30.1591 40.6312 29.9861C40.5275 29.8304 40.3892 29.7352 40.2163 29.7005C40.0491 29.662 39.8695 29.6609 39.6773 29.6973C39.4812 29.7279 39.2198 29.7854 38.8931 29.8697C38.4184 29.9944 38.0167 30.0787 37.688 30.1227C37.3613 30.1571 37.0279 30.1127 36.6878 29.9895C36.3497 29.8567 36.0501 29.5942 35.789 29.202C35.5471 28.8386 35.4301 28.4628 35.438 28.0747C35.4459 27.6865 35.5653 27.3157 35.7961 26.9622C36.0289 26.5991 36.3557 26.2775 36.7768 25.9971C37.4573 25.544 38.1041 25.3465 38.7171 25.4045C39.3359 25.4587 39.8594 25.7511 40.2876 26.2818L38.6871 27.3474C38.5239 27.1647 38.3433 27.056 38.1454 27.0213C37.9494 26.977 37.7505 27.022 37.5486 27.1564C37.3756 27.2716 37.265 27.4118 37.2168 27.5771C37.1745 27.7385 37.2128 27.9086 37.3318 28.0874C37.4278 28.2315 37.5565 28.3248 37.7179 28.3672C37.8812 28.4 38.0561 28.4001 38.2426 28.3675C38.429 28.335 38.6904 28.2775 39.0267 28.1951C39.5072 28.0666 39.9156 27.9861 40.252 27.9537C40.5844 27.9154 40.9226 27.9608 41.2665 28.0898C41.6105 28.2187 41.9149 28.4822 42.1798 28.8802Z" fill="#252525"/>
<path d="M50.7068 19.9538L51.1147 21.3071L49.2041 21.883L50.9166 27.5651L49.205 28.0809L47.4925 22.3988L45.6018 22.9686L45.1939 21.6153L50.7068 19.9538Z" fill="#252525"/>
<path d="M62.2448 24.9834L59.4915 24.9156L59.0013 26.2446L57.1311 26.1986L60.0017 18.971L62.0485 19.0214L64.56 26.3815L62.669 26.3349L62.2448 24.9834ZM61.8209 23.6214L60.9731 20.8974L59.9819 23.5761L61.8209 23.6214Z" fill="#252525"/>
<path d="M75.444 29.6576L73.7836 29.0239L72.615 23.7498L71.0065 27.9639L69.3461 27.3302L71.9663 20.4652L73.6267 21.0989L74.7805 26.4119L76.4038 22.1589L78.0642 22.7926L75.444 29.6576Z" fill="#252525"/>
<path d="M88.6976 29.9724L87.8066 31.0698L86.2574 29.812L82.5168 34.4193L81.129 33.2925L84.8696 28.6852L83.3365 27.4405L84.2274 26.3432L88.6976 29.9724Z" fill="#252525"/>
<path opacity="0.5" d="M90.2356 46.6207L89.4449 45.0174L98.2628 40.6685L99.0535 42.2718L90.2356 46.6207Z" fill="#252525"/>
<path d="M102.189 60.6048C102.193 61.5264 101.972 62.2862 101.524 62.8842C101.077 63.4823 100.469 63.8559 99.7003 64.0052L99.6911 62.124C99.9538 61.998 100.161 61.8065 100.312 61.5494C100.47 61.2922 100.548 60.9835 100.547 60.6232C100.544 60.062 100.351 59.6125 99.9683 59.2749C99.5925 58.9372 99.0824 58.7699 98.4381 58.773C97.7383 58.7764 97.2021 58.9557 96.8297 59.3109C96.4573 59.673 96.2727 60.1832 96.2759 60.8414C96.2779 61.2641 96.394 61.6342 96.6242 61.9518C96.8614 62.2694 97.195 62.493 97.6253 62.6225L97.6144 60.3776L98.8927 60.3714L98.9108 64.1025L97.1544 64.1111C96.7241 63.9746 96.3246 63.7548 95.9559 63.4517C95.5872 63.1486 95.2874 62.7586 95.0564 62.2816C94.8255 61.8116 94.7086 61.2717 94.7056 60.6619C94.702 59.9206 94.8548 59.272 95.1639 58.7161C95.4799 58.1603 95.9212 57.7286 96.4879 57.4209C97.0546 57.1202 97.7018 56.9681 98.4293 56.9646C99.1568 56.9611 99.8054 57.1069 100.375 57.4021C100.945 57.7042 101.387 58.1282 101.701 58.674C102.023 59.2268 102.185 59.8704 102.189 60.6048Z" fill="#252525"/>
<path d="M99.0141 72.3793L97.5451 71.923L96.8083 74.2952L95.5279 73.8975L96.2647 71.5253L94.7064 71.0413L93.8771 73.7113L92.5173 73.289L93.8738 68.9217L100.891 71.1013L99.5347 75.4685L98.1848 75.0492L99.0141 72.3793Z" fill="#252525"/>
<path d="M86.8361 83.0373L87.8501 81.5777L93.2505 81.7099L89.546 79.1364L90.5599 77.6768L96.5947 81.8691L95.5808 83.3287L90.1462 83.1727L93.8849 85.7699L92.8709 87.2295L86.8361 83.0373Z" fill="#252525"/>
<path d="M85.3288 92.5505L84.3886 91.3331L82.4226 92.8514L81.6031 91.7903L83.569 90.272L82.5716 88.9805L80.3589 90.6895L79.4886 89.5626L83.1078 86.7673L87.5994 92.5828L83.9801 95.3781L83.1161 94.2594L85.3288 92.5505Z" fill="#252525"/>
<path d="M71.8134 93.3392L74.2852 95.3688L74.6642 95.2248L73.6789 92.6307L75.3403 91.9996L77.9493 98.8689L75.1122 99.9464C74.5681 100.153 74.0726 100.234 73.6255 100.189C73.1785 100.144 72.7983 99.9915 72.485 99.7325C72.1742 99.4799 71.9388 99.1432 71.7789 98.7221C71.5894 98.2234 71.5676 97.7462 71.7132 97.2906C71.8524 96.8375 72.1598 96.4466 72.6352 96.1178L69.977 94.0366L71.8134 93.3392ZM75.0959 96.3616L74.066 96.7528C73.7357 96.8783 73.5198 97.0418 73.4185 97.2433C73.3196 97.4513 73.3243 97.6979 73.4326 97.9829C73.5359 98.2549 73.698 98.4379 73.919 98.5319C74.1335 98.6283 74.4027 98.615 74.7266 98.492L75.7565 98.1008L75.0959 96.3616Z" fill="#252525"/>
<path d="M60.3645 96.6824L63.1171 96.5879L63.5281 95.2323L65.3978 95.1681L62.9578 102.552L60.9116 102.623L57.971 95.4231L59.8614 95.3582L60.3645 96.6824ZM60.8678 98.0171L61.8746 100.686L62.7064 97.954L60.8678 98.0171Z" fill="#252525"/>
<path d="M46.0102 100.266L46.4049 98.9091L48.321 99.4664L49.9783 93.7679L51.6948 94.2671L50.0375 99.9656L51.9337 100.517L51.539 101.874L46.0102 100.266Z" fill="#252525"/>
<path d="M38.9184 95.183L39.7437 93.8849L37.6476 92.5521L38.3669 91.4207L40.4631 92.7535L41.3386 91.3766L38.9794 89.8765L39.7434 88.6749L43.6024 91.1286L39.6597 97.3294L35.8007 94.8757L36.5591 93.6829L38.9184 95.183Z" fill="#252525"/>
<path opacity="0.5" d="M32.298 78.6727L33.2854 80.163L25.0889 85.5932L24.1016 84.1029L32.298 78.6727Z" fill="#252525"/>
<path d="M60.7692 68.2313H51.3262L49.7583 72.8281H43.3442L52.5734 47.813H59.5933L68.8226 72.8281H62.3371L60.7692 68.2313ZM59.2013 63.5989L56.0655 54.334L52.8941 63.5989H59.2013ZM77.2845 47.6348V72.8281H71.1911V47.6348H77.2845Z" fill="#252525"/>
</svg>
