<svg xmlns="http://www.w3.org/2000/svg" width="58" height="57" viewBox="0 0 58 57" fill="none">
	<circle opacity="0.2" cx="29" cy="28.5" r="15.5" stroke="#0F0D90" />
	<path d="M45.2745 10.4141V43.5741L23.1245 34.9041V43.9941C23.1245 44.8341 22.7345 45.5841 22.1145 46.0541H18.8945C18.2745 45.5841 17.8845 44.8341 17.8845 43.9941V34.6141H12.5045C11.5845 34.6141 10.7745 34.1441 10.3145 33.4241V20.5641C10.7745 19.8441 11.5845 19.3741 12.5045 19.3741H22.3845L45.2745 10.4141Z" fill="#A1C8F6" />
	<path d="M46.1248 19.7265C46.0248 19.6565 45.9248 19.5965 45.8148 19.5365C45.6548 19.4365 45.4448 19.4265 45.2748 19.5065C45.2448 19.5065 45.2148 19.5165 45.1948 19.5365C44.9948 19.6465 44.8848 19.8565 44.8848 20.0765V33.9165C44.8848 34.1365 44.9948 34.3465 45.1948 34.4565C45.2148 34.4765 45.2448 34.4865 45.2748 34.4965C45.3448 34.5265 45.4248 34.5465 45.5048 34.5465C45.6148 34.5465 45.7248 34.5165 45.8148 34.4565C45.9248 34.3965 46.0248 34.3365 46.1248 34.2665C48.6048 32.6865 50.1248 29.9365 50.1248 26.9965C50.1248 24.0565 48.6048 21.3065 46.1248 19.7265ZM46.1248 32.7265V21.2665C47.8448 22.6465 48.8848 24.7565 48.8848 26.9965C48.8848 29.2365 47.8448 31.3465 46.1248 32.7265Z" fill="#0F0D90" />
	<path d="M45.8548 10.4763C45.6848 10.3663 45.4648 10.3363 45.2748 10.4163L22.3848 19.3763H12.5048C11.5848 19.3763 10.7748 19.8463 10.3148 20.5663C10.0448 20.9763 9.88477 21.4663 9.88477 21.9963V31.9963C9.88477 32.5263 10.0448 33.0163 10.3148 33.4263C10.7748 34.1463 11.5848 34.6163 12.5048 34.6163H22.3848L23.1248 34.9063L45.2748 43.5763C45.3548 43.6063 45.4248 43.6163 45.5048 43.6163C45.6248 43.6163 45.7548 43.5863 45.8548 43.5163C46.0248 43.3963 46.1248 43.2063 46.1248 42.9963V10.9963C46.1248 10.7863 46.0248 10.5963 45.8548 10.4763ZM44.8848 42.0763L22.7448 33.4263C22.6748 33.3963 22.5948 33.3763 22.5048 33.3763H12.5048C11.7448 33.3763 11.1248 32.7563 11.1248 31.9963V21.9963C11.1248 21.2363 11.7448 20.6163 12.5048 20.6163H22.5048C22.5848 20.6163 22.6648 20.6063 22.7348 20.5763L44.8848 11.9163V42.0763Z" fill="#0F0D90" />
	<path d="M22.7448 33.4367C22.6748 33.4067 22.5948 33.3867 22.5048 33.3867H18.5048C18.1548 33.3867 17.8848 33.6567 17.8848 34.0067V44.0067C17.8848 44.8467 18.2748 45.5967 18.8948 46.0667C19.3348 46.4267 19.9048 46.6267 20.5048 46.6267C21.1048 46.6267 21.6748 46.4267 22.1148 46.0667C22.7348 45.5967 23.1248 44.8467 23.1248 44.0067V34.0067C23.1248 33.7467 22.9748 33.5267 22.7448 33.4367ZM21.8848 34.6267V44.0067C21.8848 44.7667 21.2648 45.3867 20.5048 45.3867C19.7448 45.3867 19.1248 44.7667 19.1248 44.0067V34.6267H21.8848Z" fill="#0F0D90" />
	<path d="M22.495 30.6267C22.145 30.6267 21.875 30.3467 21.875 30.0067V24.0067C21.875 23.6567 22.155 23.3867 22.495 23.3867C22.835 23.3867 23.115 23.6667 23.115 24.0067V30.0067C23.115 30.3567 22.835 30.6267 22.495 30.6267Z" fill="#0F0D90" />
	<path d="M18.495 30.6267C18.145 30.6267 17.875 30.3467 17.875 30.0067V24.0067C17.875 23.6567 18.155 23.3867 18.495 23.3867C18.835 23.3867 19.115 23.6667 19.115 24.0067V30.0067C19.115 30.3567 18.835 30.6267 18.495 30.6267Z" fill="#0F0D90" />
	<path d="M14.495 30.6267C14.145 30.6267 13.875 30.3467 13.875 30.0067V24.0067C13.875 23.6567 14.155 23.3867 14.495 23.3867C14.835 23.3867 15.115 23.6667 15.115 24.0067V30.0067C15.115 30.3567 14.835 30.6267 14.495 30.6267Z" fill="#0F0D90" />
	<circle opacity="0.05" cx="29" cy="28.5" r="28" stroke="#0F0D90" />
</svg>