<svg width="42" height="43" viewBox="0 0 42 43" fill="none" xmlns="http://www.w3.org/2000/svg">
<rect width="42" height="42" transform="translate(0 0.5)" fill="#ECEFF2"/>
<path d="M27.2886 13.6466L20.9246 20.0111L14.5606 13.6466C14.3651 13.4511 14.0486 13.4511 13.8536 13.6466L13.1466 14.3536C12.9511 14.5491 12.9511 14.8656 13.1466 15.0606L19.5106 21.4251L13.1466 27.7896C12.9516 27.9851 12.9516 28.3016 13.1466 28.4966L13.8536 29.2036C14.0491 29.3991 14.3656 29.3991 14.5606 29.2036L20.9246 22.8391L27.2886 29.2036C27.4841 29.3991 27.8006 29.3991 27.9956 29.2036L28.7026 28.4966C28.8981 28.3011 28.8981 27.9846 28.7026 27.7896L22.3386 21.4251L28.7026 15.0606C28.8976 14.8651 28.8976 14.5486 28.7026 14.3536L27.9956 13.6466C27.8001 13.4511 27.4836 13.4511 27.2886 13.6466Z" fill="#252525"/>
</svg>
