<svg width="189" height="54" viewBox="0 0 189 54" fill="none" xmlns="http://www.w3.org/2000/svg">
<g filter="url(#filter0_b_3981_130311)">
<rect width="189" height="54" fill="url(#paint0_linear_3981_130311)"/>
<path d="M31.02 20.148C32.616 20.148 33.93 20.538 34.962 21.318C35.994 22.098 36.636 23.154 36.888 24.486H33.63C33.414 24.03 33.084 23.67 32.64 23.406C32.196 23.13 31.662 22.992 31.038 22.992C30.066 22.992 29.286 23.322 28.698 23.982C28.11 24.63 27.816 25.512 27.816 26.628C27.816 27.84 28.122 28.77 28.734 29.418C29.358 30.066 30.24 30.39 31.38 30.39C32.112 30.39 32.754 30.192 33.306 29.796C33.858 29.388 34.248 28.812 34.476 28.068H30.588V25.854H37.05V28.896C36.81 29.64 36.426 30.33 35.898 30.966C35.37 31.602 34.692 32.118 33.864 32.514C33.048 32.91 32.112 33.108 31.056 33.108C29.772 33.108 28.65 32.838 27.69 32.298C26.73 31.746 25.986 30.978 25.458 29.994C24.942 29.01 24.684 27.888 24.684 26.628C24.684 25.368 24.942 24.246 25.458 23.262C25.986 22.278 26.724 21.516 27.672 20.976C28.632 20.424 29.748 20.148 31.02 20.148ZM41.8509 22.722V25.386H46.1529V27.708H41.8509V30.534H46.6929V33H38.7729V20.274H46.6929V22.722H41.8509ZM57.5849 20.274V22.722H54.1289V33H51.0329V22.722H47.6129V20.274H57.5849ZM71.6298 29.418C71.6298 30.09 71.4558 30.708 71.1078 31.272C70.7718 31.836 70.2678 32.286 69.5958 32.622C68.9358 32.958 68.1318 33.126 67.1838 33.126C65.7558 33.126 64.5798 32.778 63.6558 32.082C62.7318 31.386 62.2278 30.414 62.1438 29.166H65.4198C65.4678 29.646 65.6358 30.024 65.9238 30.3C66.2238 30.576 66.6018 30.714 67.0578 30.714C67.4538 30.714 67.7658 30.606 67.9938 30.39C68.2218 30.174 68.3358 29.886 68.3358 29.526C68.3358 29.202 68.2278 28.932 68.0118 28.716C67.8078 28.5 67.5498 28.326 67.2378 28.194C66.9258 28.05 66.4938 27.882 65.9418 27.69C65.1378 27.414 64.4778 27.15 63.9618 26.898C63.4578 26.634 63.0198 26.25 62.6478 25.746C62.2878 25.23 62.1078 24.564 62.1078 23.748C62.1078 22.992 62.2998 22.338 62.6838 21.786C63.0678 21.234 63.5958 20.814 64.2678 20.526C64.9518 20.226 65.7318 20.076 66.6078 20.076C68.0238 20.076 69.1458 20.412 69.9738 21.084C70.8138 21.756 71.2878 22.68 71.3958 23.856H68.0658C68.0058 23.436 67.8498 23.106 67.5978 22.866C67.3578 22.614 67.0278 22.488 66.6078 22.488C66.2478 22.488 65.9538 22.584 65.7258 22.776C65.5098 22.968 65.4018 23.25 65.4018 23.622C65.4018 23.922 65.4978 24.18 65.6898 24.396C65.8938 24.6 66.1458 24.768 66.4458 24.9C66.7458 25.032 67.1778 25.2 67.7418 25.404C68.5578 25.68 69.2238 25.956 69.7398 26.232C70.2558 26.496 70.6998 26.886 71.0718 27.402C71.4438 27.918 71.6298 28.59 71.6298 29.418ZM82.4755 20.274V22.722H79.0195V33H75.9235V22.722H72.5035V20.274H82.4755ZM91.6569 30.678H86.8869L86.0949 33H82.8549L87.5169 20.364H91.0629L95.7249 33H92.4489L91.6569 30.678ZM90.8649 28.338L89.2809 23.658L87.6789 28.338H90.8649ZM103.455 33L100.701 28.194H99.9994V33H96.9214V20.274H102.177C103.185 20.274 104.037 20.448 104.733 20.796C105.429 21.144 105.951 21.624 106.299 22.236C106.647 22.836 106.821 23.526 106.821 24.306C106.821 25.23 106.563 26.016 106.047 26.664C105.543 27.312 104.805 27.756 103.833 27.996L106.857 33H103.455ZM99.9994 26.088H101.907C102.519 26.088 102.969 25.956 103.257 25.692C103.545 25.416 103.689 25.014 103.689 24.486C103.689 23.982 103.539 23.586 103.239 23.298C102.951 23.01 102.507 22.866 101.907 22.866H99.9994V26.088ZM117.509 20.274V22.722H114.053V33H110.957V22.722H107.537V20.274H117.509ZM121.884 22.722V25.386H126.186V27.708H121.884V30.534H126.726V33H118.806V20.274H126.726V22.722H121.884ZM139.922 26.61C139.922 27.858 139.652 28.968 139.112 29.94C138.584 30.9 137.816 31.65 136.808 32.19C135.812 32.73 134.636 33 133.28 33H128.474V20.274H133.28C134.648 20.274 135.83 20.538 136.826 21.066C137.822 21.594 138.584 22.338 139.112 23.298C139.652 24.258 139.922 25.362 139.922 26.61ZM133.01 30.246C134.21 30.246 135.14 29.928 135.8 29.292C136.472 28.656 136.808 27.762 136.808 26.61C136.808 25.458 136.472 24.564 135.8 23.928C135.14 23.292 134.21 22.974 133.01 22.974H131.552V30.246H133.01Z" fill="white"/>
<g clip-path="url(#clip0_3981_130311)">
<path d="M165 27C165 25.4178 164.531 23.871 163.652 22.5554C162.773 21.2398 161.523 20.2145 160.061 19.609C158.6 19.0035 156.991 18.845 155.439 19.1537C153.887 19.4624 152.462 20.2243 151.343 21.3431C150.224 22.462 149.462 23.8874 149.154 25.4393C148.845 26.9911 149.003 28.5997 149.609 30.0615C150.214 31.5233 151.24 32.7727 152.555 33.6518C153.871 34.5308 155.418 35 157 35C159.12 34.9937 161.151 34.1488 162.65 32.6499C164.149 31.1509 164.994 29.1198 165 27ZM157.293 30.955C157.206 30.9153 157.132 30.8513 157.08 30.7706C157.028 30.6899 157 30.596 157 30.5V28H153C152.735 28 152.48 27.8946 152.293 27.7071C152.105 27.5196 152 27.2652 152 27C152 26.7348 152.105 26.4804 152.293 26.2929C152.48 26.1054 152.735 26 153 26H157V23.5C157 23.404 157.028 23.3101 157.08 23.2294C157.132 23.1488 157.206 23.0848 157.293 23.0452C157.381 23.0055 157.478 22.9919 157.573 23.0058C157.668 23.0198 157.757 23.0608 157.829 23.124L161.829 26.624C161.881 26.6721 161.922 26.7303 161.95 26.795C161.978 26.8597 161.993 26.9295 161.993 27C161.993 27.0705 161.978 27.1403 161.95 27.205C161.922 27.2697 161.881 27.3279 161.829 27.376L157.829 30.876C157.757 30.9393 157.668 30.9804 157.573 30.9944C157.478 31.0084 157.38 30.9947 157.293 30.955Z" fill="white"/>
</g>
</g>
<defs>
<filter id="filter0_b_3981_130311" x="-4" y="-4" width="197" height="62" filterUnits="userSpaceOnUse" color-interpolation-filters="sRGB">
<feFlood flood-opacity="0" result="BackgroundImageFix"/>
<feGaussianBlur in="BackgroundImageFix" stdDeviation="2"/>
<feComposite in2="SourceAlpha" operator="in" result="effect1_backgroundBlur_3981_130311"/>
<feBlend mode="normal" in="SourceGraphic" in2="effect1_backgroundBlur_3981_130311" result="shape"/>
</filter>
<linearGradient id="paint0_linear_3981_130311" x1="8.5909" y1="-8.99998" x2="199.116" y2="37.7261" gradientUnits="userSpaceOnUse">
<stop stop-color="#7849FD"/>
<stop offset="1" stop-color="#45E2CF" stop-opacity="0.81"/>
</linearGradient>
<clipPath id="clip0_3981_130311">
<rect width="16" height="16" fill="white" transform="translate(149 19)"/>
</clipPath>
</defs>
</svg>
