<svg width="32" height="32" viewBox="0 0 32 32" fill="current" xmlns="http://www.w3.org/2000/svg">
    <rect width="32" height="32" fill="current" style="mix-blend-mode:multiply"/>
    <path d="M26 10.001H23.2383C23.8892 9.03895 24.1416 7.862 23.9426 6.71766C23.7435 5.57333 23.1083 4.5508 22.1708 3.86514C21.2332 3.17949 20.0663 2.88415 18.9154 3.04124C17.7646 3.19834 16.7195 3.79562 16 4.70747C15.2789 3.80013 14.2347 3.20698 13.0861 3.05223C11.9375 2.89748 10.7736 3.19314 9.83811 3.87729C8.90261 4.56144 8.26809 5.58102 8.06745 6.72249C7.8668 7.86397 8.11558 9.0388 8.7617 10.001H6C5.46977 10.0016 4.96145 10.2126 4.58652 10.5875C4.21159 10.9624 4.00066 11.4707 4 12.001V16.001C4.00066 16.5312 4.21159 17.0395 4.58652 17.4145C4.96145 17.7894 5.46977 18.0003 6 18.001V28.001C6.00066 28.5312 6.21159 29.0395 6.58652 29.4145C6.96145 29.7894 7.46977 30.0003 8 30.001H24C24.5302 30.0003 25.0386 29.7894 25.4135 29.4145C25.7884 29.0395 25.9993 28.5312 26 28.001V18.001C26.5302 18.0003 27.0386 17.7894 27.4135 17.4145C27.7884 17.0395 27.9993 16.5312 28 16.001V12.001C27.9993 11.4707 27.7884 10.9624 27.4135 10.5875C27.0386 10.2126 26.5302 10.0016 26 10.001ZM17 7.50097C17 7.00652 17.1466 6.52317 17.4213 6.11204C17.696 5.70092 18.0865 5.38049 18.5433 5.19127C19.0001 5.00205 19.5028 4.95254 19.9877 5.04901C20.4727 5.14547 20.9181 5.38357 21.2678 5.7332C21.6174 6.08283 21.8555 6.52829 21.952 7.01324C22.0484 7.4982 21.9989 8.00086 21.8097 8.45768C21.6205 8.91449 21.3 9.30494 20.8889 9.57964C20.4778 9.85435 19.9945 10.001 19.5 10.001H17V7.50097ZM12.5 5.00097C13.1628 5.00176 13.7982 5.26541 14.2669 5.73408C14.7356 6.20275 14.9992 6.83817 15 7.50097V10.001H12.5C11.837 10.001 11.2011 9.73758 10.7322 9.26874C10.2634 8.79989 10 8.16401 10 7.50097C10 6.83793 10.2634 6.20204 10.7322 5.7332C11.2011 5.26436 11.837 5.00097 12.5 5.00097ZM6 12.001H15V16.001H6V12.001ZM8 18.001H15V28.001H8V18.001ZM24.0012 28.001H17V18.001H24L24.0012 28.001ZM17 16.001V12.001H26L26.0012 16.001H17Z" fill="current" />
</svg>
