<svg width="24" height="24" viewBox="0 0 24 24" fill="none" xmlns="http://www.w3.org/2000/svg">
<path d="M21.8748 12.2223C21.8748 11.4001 21.8081 10.8001 21.6637 10.1779H12.2748V13.8889H17.7858C17.6748 14.8112 17.0748 16.2001 15.7414 17.1334L15.7227 17.2576L18.6913 19.5573L18.897 19.5779C20.7858 17.8334 21.8748 15.2667 21.8748 12.2223Z" fill="#4285F4"/>
<path d="M12.2748 22C14.9748 22 17.2414 21.1111 18.897 19.5778L15.7414 17.1333C14.897 17.7222 13.7636 18.1333 12.2748 18.1333C9.63036 18.1333 7.38593 16.3889 6.58586 13.9778L6.46859 13.9877L3.3818 16.3766L3.34143 16.4889C4.98586 19.7555 8.36364 22 12.2748 22Z" fill="#34A853"/>
<path d="M6.58585 13.9778C6.37474 13.3555 6.25257 12.6888 6.25257 12C6.25257 11.311 6.37474 10.6444 6.57474 10.0222L6.56915 9.88967L3.44368 7.4624L3.34142 7.51104C2.66367 8.86662 2.27478 10.3889 2.27478 12C2.27478 13.6111 2.66367 15.1333 3.34142 16.4888L6.58585 13.9778Z" fill="#FBBC05"/>
<path d="M12.2748 5.86664C14.1525 5.86664 15.4192 6.67775 16.1414 7.35557L18.9636 4.6C17.2304 2.98889 14.9748 2 12.2748 2C8.36364 2 4.98586 4.24443 3.34143 7.51107L6.57475 10.0222C7.38594 7.61111 9.63036 5.86664 12.2748 5.86664Z" fill="#EB4335"/>
</svg>
