<svg width="211" height="55" viewBox="0 0 211 55" fill="none" xmlns="http://www.w3.org/2000/svg">
<path d="M1.73868 12.2917L22.2976 0.46765C22.8257 0.161343 23.4255 0 24.0362 0C24.6469 0 25.2468 0.161343 25.7748 0.46765L46.3337 12.2917C46.862 12.5971 47.3006 13.0357 47.6057 13.5636C47.9108 14.0915 48.0717 14.6902 48.0724 15.2997V39.0277C48.0717 39.6371 47.9108 40.2358 47.6057 40.7637C47.3006 41.2916 46.862 41.7302 46.3337 42.0357L25.7748 53.8917C25.2468 54.198 24.6469 54.3593 24.0362 54.3593C23.4255 54.3593 22.8257 54.198 22.2976 53.8917L1.73868 42.0357C1.21045 41.7302 0.771821 41.2916 0.466702 40.7637C0.161582 40.2358 0.000666832 39.6371 6.05457e-05 39.0277V15.3237C-0.00356102 14.7101 0.155347 14.1065 0.460678 13.574C0.766008 13.0415 1.20691 12.5991 1.73868 12.2917Z" fill="#6D53E8"/>
<path opacity="0.5" d="M1.73868 12.2916L22.2976 0.46765C22.8257 0.161343 23.4255 0 24.0362 0C24.6469 0 25.2468 0.161343 25.7748 0.46765L46.3337 12.2916C46.862 12.5971 47.3006 13.0357 47.6057 13.5636C47.9108 14.0915 48.0717 14.6902 48.0724 15.2996V15.4917C48.0717 16.1011 47.9108 16.6998 47.6057 17.2277C47.3006 17.7556 46.862 18.1942 46.3337 18.4996L25.7748 30.4037C25.2468 30.71 24.6469 30.8713 24.0362 30.8713C23.4255 30.8713 22.8257 30.71 22.2976 30.4037L1.73868 18.5557C1.21045 18.2502 0.771821 17.8116 0.466702 17.2837C0.161582 16.7558 0.000666832 16.1571 6.05457e-05 15.5477V15.3237C-0.00356102 14.7101 0.155347 14.1065 0.460678 13.574C0.766008 13.0415 1.20691 12.5991 1.73868 12.2916Z" fill="url(#paint0_linear_393_53987)"/>
<path opacity="0.5" d="M1.73862 35.794L22.2975 23.938C22.8269 23.6356 23.4262 23.4766 24.0361 23.4766C24.646 23.4766 25.2454 23.6356 25.7748 23.938L46.3337 35.794C46.8619 36.0995 47.3005 36.5381 47.6056 37.066C47.9108 37.5939 48.0717 38.1925 48.0723 38.802V39.026C48.0717 39.6355 47.9108 40.2342 47.6056 40.7621C47.3005 41.29 46.8619 41.7286 46.3337 42.034L25.7748 53.89C25.2467 54.1963 24.6469 54.3577 24.0361 54.3577C23.4254 54.3577 22.8256 54.1963 22.2975 53.89L1.73862 42.034C1.21039 41.7286 0.771761 41.29 0.466641 40.7621C0.161521 40.2342 0.000606287 39.6355 0 39.026V38.802C0.000606287 38.1925 0.161521 37.5939 0.466641 37.066C0.771761 36.5381 1.21039 36.0995 1.73862 35.794Z" fill="url(#paint1_linear_393_53987)"/>
<path d="M61.6605 4.09766L66.2354 18.3457L70.8022 4.09766H77.308V24.5777H72.3485V19.7777L72.8293 9.99366L67.8698 24.5617H64.5688L59.6014 9.97766L60.0821 19.7777V24.5777H55.1387V4.09766H61.6605Z" fill="#30446B"/>
<path d="M97.8112 14.7644C97.844 16.5927 97.4662 18.4051 96.7055 20.0684C96.0098 21.5389 94.8949 22.7717 93.5007 23.6124C92.0834 24.4218 90.4807 24.8515 88.848 24.8599C87.2153 24.8683 85.6082 24.4551 84.1827 23.6604C82.8178 22.8422 81.7188 21.6477 81.0179 20.2204C80.2394 18.6198 79.834 16.8639 79.8321 15.0844V13.9324C79.7909 12.1034 80.1691 10.2892 80.9378 8.62844C81.6282 7.15233 82.7441 5.91555 84.1426 5.07644C85.5645 4.2586 87.1767 3.82812 88.8176 3.82812C90.4586 3.82812 92.0708 4.2586 93.4927 5.07644C94.8786 5.91656 95.9916 7.13901 96.6975 8.59644C97.4753 10.2328 97.8672 12.0253 97.8432 13.8364L97.8112 14.7644ZM92.7876 13.8924C92.889 12.2803 92.5336 10.6722 91.7621 9.25244C91.4633 8.75004 91.0353 8.33668 90.5224 8.05531C90.0096 7.77395 89.4306 7.63484 88.8457 7.65244C86.362 7.65244 85.056 9.50844 84.9118 13.2524V14.7564C84.8235 16.3596 85.1695 17.9569 85.9133 19.3804C86.2288 19.8709 86.6627 20.2744 87.175 20.5538C87.6874 20.8333 88.2619 20.9797 88.8457 20.9797C89.4295 20.9797 90.004 20.8333 90.5163 20.5538C91.0287 20.2744 91.4626 19.8709 91.7781 19.3804C92.5347 17.9782 92.8896 16.3949 92.8036 14.8044L92.7876 13.8924Z" fill="#30446B"/>
<path d="M107.987 17.3384H105.311V24.5384H100.367V4.09836H108.435C110.463 3.97643 112.472 4.54008 114.14 5.69836C114.82 6.24279 115.361 6.94096 115.717 7.73524C116.074 8.52951 116.236 9.39709 116.191 10.2664C116.24 11.5053 115.941 12.7332 115.326 13.8104C114.673 14.8177 113.74 15.6129 112.642 16.0984L116.92 24.3624V24.5784H111.6L107.987 17.3384ZM105.311 13.5384H108.435C108.82 13.5673 109.207 13.5161 109.571 13.3881C109.935 13.26 110.269 13.0578 110.551 12.7944C110.8 12.5143 110.991 12.1878 111.114 11.8335C111.236 11.4793 111.287 11.1044 111.264 10.7304C111.306 9.96941 111.047 9.22235 110.542 8.65036C110.263 8.38568 109.931 8.18211 109.568 8.05263C109.205 7.92315 108.82 7.87061 108.435 7.89836H105.311V13.5384Z" fill="#30446B"/>
<path d="M124.123 17.6276V24.5796H119.18V4.09956H127.36C128.797 4.07077 130.222 4.36897 131.526 4.97156C132.679 5.50212 133.653 6.35527 134.33 7.42756C134.998 8.51733 135.339 9.77454 135.316 11.0516C135.352 11.9626 135.177 12.8697 134.804 13.7022C134.432 14.5347 133.872 15.2702 133.169 15.8516C131.482 17.1305 129.394 17.766 127.28 17.6436L124.123 17.6276ZM124.123 13.8196H127.328C128.126 13.8769 128.915 13.6183 129.523 13.0996C129.785 12.8342 129.987 12.5168 130.117 12.168C130.246 11.8191 130.301 11.4469 130.276 11.0756C130.308 10.2392 130.022 9.42175 129.475 8.78756C129.206 8.49858 128.878 8.27104 128.513 8.12053C128.148 7.97002 127.755 7.9001 127.36 7.91556H124.067L124.123 13.8196Z" fill="#30446B"/>
<path d="M155.106 24.5777H150.194V16.0257H142.911V24.5777H137.968V4.09766H142.911V12.2257H150.194V4.09766H155.106V24.5777Z" fill="#30446B"/>
<path d="M170.937 15.8897H163.165V20.7777H172.347V24.5777H158.222V4.09766H172.371V7.91366H163.165V12.2257H170.937V15.8897Z" fill="#30446B"/>
<path d="M190.446 4.09766V17.5057C190.479 18.8839 190.141 20.2457 189.469 21.4497C188.821 22.5599 187.848 23.445 186.681 23.9857C185.334 24.5971 183.865 24.8953 182.386 24.8577C180.245 24.9762 178.139 24.2817 176.489 22.9137C175.761 22.2383 175.188 21.4142 174.807 20.4976C174.427 19.5809 174.249 18.5932 174.286 17.6017V4.09766H179.261V17.6977C179.32 19.9377 180.362 21.0577 182.386 21.0577C182.811 21.0896 183.238 21.0313 183.638 20.8865C184.039 20.7417 184.404 20.5137 184.71 20.2177C185.312 19.4355 185.598 18.4563 185.511 17.4737V4.09766H190.446Z" fill="#30446B"/>
<path d="M204.107 19.138C204.119 18.813 204.053 18.49 203.913 18.1962C203.774 17.9023 203.566 17.6464 203.306 17.45C202.479 16.8897 201.568 16.4656 200.606 16.194C199.53 15.8419 198.475 15.4251 197.449 14.946C194.779 13.6393 193.443 11.8473 193.443 9.56997C193.426 8.48668 193.776 7.42936 194.437 6.56997C195.17 5.65019 196.143 4.94991 197.249 4.54597C198.548 4.04144 199.933 3.79418 201.327 3.81797C202.691 3.80073 204.043 4.07343 205.293 4.61797C206.398 5.08822 207.343 5.86581 208.017 6.85797C208.673 7.8431 209.013 9.00347 208.995 10.186H204.059C204.074 9.82345 204.01 9.46208 203.871 9.12657C203.733 8.79106 203.524 8.48932 203.258 8.24197C202.674 7.76141 201.931 7.51605 201.175 7.55397C200.432 7.51135 199.697 7.71682 199.084 8.13797C198.893 8.26308 198.73 8.42471 198.602 8.61349C198.475 8.80227 198.386 9.01443 198.341 9.23769C198.297 9.46094 198.297 9.69084 198.342 9.91404C198.387 10.1373 198.475 10.3493 198.603 10.538C198.747 10.7549 198.939 10.9357 199.164 11.066C200.082 11.6541 201.084 12.0992 202.136 12.386C203.348 12.7563 204.519 13.2495 205.63 13.858C207.841 15.13 208.955 16.89 208.955 19.13C208.986 19.9444 208.817 20.754 208.464 21.4887C208.111 22.2234 207.584 22.861 206.928 23.346C205.279 24.461 203.307 25.001 201.319 24.882C199.769 24.9059 198.231 24.6005 196.808 23.986C195.575 23.49 194.516 22.6411 193.764 21.546C193.076 20.4785 192.722 19.231 192.746 17.962H197.698C197.664 18.3997 197.723 18.8396 197.871 19.2531C198.018 19.6666 198.251 20.0444 198.555 20.362C199.345 20.9613 200.33 21.2464 201.319 21.162C202.005 21.1981 202.685 21.013 203.258 20.634C203.517 20.4785 203.73 20.2592 203.879 19.9972C204.028 19.7351 204.107 19.4392 204.107 19.138Z" fill="#30446B"/>
<path d="M57.9595 48.7152H68.0867V50.1792H56.2129V29.6992H57.9595V48.7152Z" fill="#30446B"/>
<path d="M82.7488 44.4272H73.4388L71.3236 50.1792H69.5049L77.2686 29.6992H78.911L86.6747 50.1792H84.872L82.7488 44.4272ZM73.9355 42.9632H82.196L78.0858 31.8112L73.9355 42.9632Z" fill="#30446B"/>
<path d="M89.6875 50.1792V29.6992H95.7446C97.9399 29.6992 99.6064 30.1526 100.744 31.0592C101.324 31.5448 101.78 32.1602 102.077 32.8552C102.374 33.5503 102.502 34.3054 102.451 35.0592C102.475 36.0493 102.17 37.0195 101.585 37.8192C100.984 38.6212 100.142 39.21 99.1818 39.4992C100.318 39.7231 101.341 40.3365 102.072 41.2335C102.804 42.1305 103.198 43.2545 103.188 44.4112C103.231 45.2047 103.096 45.9979 102.791 46.7318C102.485 47.4658 102.019 48.1218 101.425 48.6512C100.04 49.7386 98.3046 50.2822 96.5458 50.1792H89.6875ZM91.4181 38.8832H96.1532C97.352 38.9383 98.5345 38.5889 99.5103 37.8912C99.9174 37.5402 100.237 37.0994 100.444 36.6037C100.652 36.1081 100.74 35.5711 100.704 35.0352C100.747 34.4867 100.657 33.936 100.442 33.4293C100.227 32.9226 99.8941 32.4747 99.4702 32.1232C98.3618 31.4185 97.055 31.0902 95.7446 31.1872H91.4181V38.8832ZM91.4181 40.3472V48.7152H96.6179C97.8919 48.7845 99.1468 48.383 100.143 47.5872C100.578 47.1935 100.919 46.7073 101.141 46.1646C101.363 45.6219 101.46 45.0364 101.425 44.4512C101.454 43.8898 101.356 43.3291 101.14 42.8101C100.924 42.2911 100.594 41.8268 100.175 41.4512C99.2073 40.6685 97.9815 40.2749 96.7381 40.3472H91.4181Z" fill="#30446B"/>
<path d="M118.971 45.1481C118.992 44.6367 118.894 44.1274 118.686 43.6598C118.478 43.1923 118.164 42.779 117.77 42.4521C116.446 41.549 114.961 40.908 113.395 40.5641C111.745 40.1803 110.172 39.5232 108.74 38.6201C108.225 38.274 107.783 37.83 107.44 37.3133C107.097 36.7967 106.859 36.2177 106.74 35.6093C106.621 35.0008 106.623 34.3749 106.746 33.7673C106.869 33.1598 107.111 32.5823 107.458 32.0681C107.779 31.6107 108.178 31.2127 108.636 30.8921C110.078 29.869 111.819 29.3514 113.587 29.4201C114.85 29.4026 116.101 29.6764 117.241 30.2201C118.265 30.6998 119.132 31.46 119.74 32.4121C120.336 33.349 120.645 34.4387 120.63 35.5481H118.883C118.91 34.9133 118.795 34.2805 118.547 33.6953C118.299 33.1101 117.924 32.5872 117.449 32.1641C116.368 31.2698 114.99 30.813 113.587 30.8841C112.256 30.8131 110.938 31.1813 109.838 31.9321C109.389 32.2378 109.022 32.65 108.772 33.1316C108.522 33.6133 108.395 34.1495 108.403 34.6921C108.393 35.1859 108.502 35.6749 108.721 36.1178C108.94 36.5607 109.262 36.9443 109.661 37.2361C110.873 38.0682 112.232 38.6602 113.667 38.9801C115.119 39.3485 116.523 39.8855 117.85 40.5801C118.71 41.0417 119.444 41.7064 119.989 42.5161C120.484 43.3122 120.734 44.2355 120.71 45.1721C120.736 45.9346 120.573 46.6918 120.235 47.3759C119.896 48.0599 119.393 48.6496 118.771 49.0921C117.279 50.131 115.484 50.6459 113.667 50.5561C112.291 50.5725 110.926 50.2999 109.661 49.7561C108.552 49.3228 107.596 48.5713 106.913 47.5961C106.28 46.6505 105.953 45.5335 105.976 44.3961H107.714C107.688 45.052 107.819 45.7048 108.098 46.2993C108.377 46.8938 108.795 47.4126 109.317 47.8121C110.572 48.7002 112.091 49.1398 113.627 49.0601C114.989 49.1255 116.336 48.7555 117.473 48.0041C117.946 47.6955 118.332 47.2709 118.595 46.771C118.857 46.271 118.987 45.7123 118.971 45.1481Z" fill="#30446B"/>
<path d="M203.979 29.123H132.319C128.877 29.123 126.086 31.9096 126.086 35.347V44.539C126.086 47.9765 128.877 50.763 132.319 50.763H203.979C207.422 50.763 210.212 47.9765 210.212 44.539V35.347C210.212 31.9096 207.422 29.123 203.979 29.123Z" fill="url(#paint2_linear_393_53987)"/>
<path d="M145.106 36.9079C144.936 36.4223 144.605 36.0092 144.168 35.7371C143.731 35.4651 143.214 35.3503 142.702 35.4119C142.303 35.3961 141.906 35.4665 141.536 35.6184C141.167 35.7703 140.835 36 140.563 36.2919C140.33 36.604 140.227 36.9937 140.275 37.3799C140.363 38.5959 141.685 38.7399 142.951 38.8599C144.553 39.0599 146.564 39.4839 147.021 41.3639C147.074 41.6274 147.104 41.8951 147.109 42.1639C147.109 44.4279 144.85 45.7399 142.734 45.7399C140.916 45.7399 138.728 44.6599 138.496 42.5399V42.2199H140.219V42.4039C140.331 43.4919 141.661 44.0679 142.758 44.0679C144.016 44.0679 145.394 43.3639 145.394 42.1479C145.395 42.0131 145.379 41.8788 145.346 41.7479C145.146 40.8599 143.936 40.7079 142.758 40.5879C140.924 40.4039 138.752 40.0039 138.584 37.5479C138.51 36.75 138.739 35.9535 139.225 35.3159C139.663 34.8015 140.21 34.391 140.827 34.1142C141.444 33.8374 142.115 33.7014 142.791 33.7159C144.609 33.7159 146.492 34.6519 146.797 36.8039L145.106 36.9079Z" fill="white"/>
<path d="M158.062 43.9226H163.526V45.6186H156.315V33.8906H163.478V35.5866H158.03V38.8906H163.358V40.6026H158.03L158.062 43.9226Z" fill="white"/>
<path d="M174.335 43.9226H179.799V45.6186H172.588V33.8906H179.759V35.5866H174.335V38.8906H179.663V40.6026H174.335V43.9226Z" fill="white"/>
<path d="M193.226 33.8906C197.072 33.8906 199.011 36.8266 199.011 39.7626C199.011 42.6986 197.072 45.6266 193.226 45.6266H189.004V33.8906H193.226ZM193.226 43.9306C194.303 43.8835 195.32 43.4234 196.065 42.6462C196.81 41.8689 197.226 40.8345 197.226 39.7586C197.226 38.6827 196.81 37.6483 196.065 36.8711C195.32 36.0938 194.303 35.6337 193.226 35.5866H190.702V43.9226L193.226 43.9306Z" fill="white"/>
<defs>
<linearGradient id="paint0_linear_393_53987" x1="24.0362" y1="30.8676" x2="24.0362" y2="0.00364984" gradientUnits="userSpaceOnUse">
<stop stop-color="white"/>
<stop offset="0.01" stop-color="white" stop-opacity="0.99"/>
<stop offset="0.11" stop-color="white" stop-opacity="0.76"/>
<stop offset="0.21" stop-color="white" stop-opacity="0.56"/>
<stop offset="0.31" stop-color="white" stop-opacity="0.38"/>
<stop offset="0.41" stop-color="white" stop-opacity="0.25"/>
<stop offset="0.51" stop-color="white" stop-opacity="0.14"/>
<stop offset="0.62" stop-color="white" stop-opacity="0.06"/>
<stop offset="0.72" stop-color="white" stop-opacity="0.02"/>
<stop offset="0.83" stop-color="white" stop-opacity="0"/>
</linearGradient>
<linearGradient id="paint1_linear_393_53987" x1="24.0361" y1="54.354" x2="24.0361" y2="23.474" gradientUnits="userSpaceOnUse">
<stop stop-color="white"/>
<stop offset="0.34" stop-color="white" stop-opacity="0.58"/>
<stop offset="0.83" stop-color="white" stop-opacity="0"/>
</linearGradient>
<linearGradient id="paint2_linear_393_53987" x1="143.528" y1="15.3551" x2="192.696" y2="64.605" gradientUnits="userSpaceOnUse">
<stop stop-color="#6D53E8"/>
<stop offset="0.16" stop-color="#6752E9"/>
<stop offset="0.39" stop-color="#554EEC"/>
<stop offset="0.66" stop-color="#3749F1"/>
<stop offset="0.95" stop-color="#0E42F8"/>
<stop offset="1" stop-color="#0640F9"/>
</linearGradient>
</defs>
</svg>
