<svg width="25" height="24" viewBox="0 0 25 24" fill="none" xmlns="http://www.w3.org/2000/svg">
<path d="M21.4848 2.76929L13.6877 8.53852L15.1377 5.13852L21.4848 2.76929Z" fill="#E17726" stroke="#E17726" stroke-width="0.25" stroke-linecap="round" stroke-linejoin="round"/>
<path d="M3.49988 2.76929L11.2275 8.59236L9.847 5.13852L3.49988 2.76929Z" fill="#E27625" stroke="#E27625" stroke-width="0.25" stroke-linecap="round" stroke-linejoin="round"/>
<path d="M18.6773 16.1461L16.6028 19.3154L21.045 20.5384L22.3175 16.2154L18.6773 16.1461Z" fill="#E27625" stroke="#E27625" stroke-width="0.25" stroke-linecap="round" stroke-linejoin="round"/>
<path d="M2.67468 16.2154L3.93947 20.5384L8.37397 19.3154L6.3071 16.1461L2.67468 16.2154Z" fill="#E27625" stroke="#E27625" stroke-width="0.25" stroke-linecap="round" stroke-linejoin="round"/>
<path d="M8.13492 10.7923L6.901 12.6538L11.2969 12.8538L11.1504 8.12305L8.13492 10.7923Z" fill="#E27625" stroke="#E27625" stroke-width="0.25" stroke-linecap="round" stroke-linejoin="round"/>
<path d="M16.8494 10.7924L13.7878 8.06934L13.6875 12.854L18.0834 12.654L16.8494 10.7924Z" fill="#E27625" stroke="#E27625" stroke-width="0.25" stroke-linecap="round" stroke-linejoin="round"/>
<path d="M8.37402 19.3154L11.0347 18.0308L8.74422 16.2462L8.37402 19.3154Z" fill="#E27625" stroke="#E27625" stroke-width="0.25" stroke-linecap="round" stroke-linejoin="round"/>
<path d="M13.9498 18.0308L16.6028 19.3154L16.2403 16.2462L13.9498 18.0308Z" fill="#E27625" stroke="#E27625" stroke-width="0.25" stroke-linecap="round" stroke-linejoin="round"/>
<path d="M16.6028 19.3155L13.9498 18.0309L14.1657 19.7539L14.1426 20.4847L16.6028 19.3155Z" fill="#D5BFB2" stroke="#D5BFB2" stroke-width="0.25" stroke-linecap="round" stroke-linejoin="round"/>
<path d="M8.37402 19.3155L10.8419 20.4847L10.8265 19.7539L11.0347 18.0309L8.37402 19.3155Z" fill="#D5BFB2" stroke="#D5BFB2" stroke-width="0.25" stroke-linecap="round" stroke-linejoin="round"/>
<path d="M10.8882 15.1077L8.6825 14.4616L10.2403 13.7462L10.8882 15.1077Z" fill="#233447" stroke="#233447" stroke-width="0.25" stroke-linecap="round" stroke-linejoin="round"/>
<path d="M14.0963 15.1077L14.7442 13.7462L16.3097 14.4616L14.0963 15.1077Z" fill="#233447" stroke="#233447" stroke-width="0.25" stroke-linecap="round" stroke-linejoin="round"/>
<path d="M8.37409 19.3154L8.75972 16.1461L6.30725 16.2154L8.37409 19.3154Z" fill="#CC6228" stroke="#CC6228" stroke-width="0.25" stroke-linecap="round" stroke-linejoin="round"/>
<path d="M16.2249 16.1461L16.6028 19.3154L18.6773 16.2154L16.2249 16.1461Z" fill="#CC6228" stroke="#CC6228" stroke-width="0.25" stroke-linecap="round" stroke-linejoin="round"/>
<path d="M18.0834 12.6538L13.6875 12.8538L14.0962 15.1077L14.7441 13.7461L16.3096 14.4615L18.0834 12.6538Z" fill="#CC6228" stroke="#CC6228" stroke-width="0.25" stroke-linecap="round" stroke-linejoin="round"/>
<path d="M8.6825 14.4615L10.2403 13.7461L10.8882 15.1077L11.2969 12.8538L6.901 12.6538L8.6825 14.4615Z" fill="#CC6228" stroke="#CC6228" stroke-width="0.25" stroke-linecap="round" stroke-linejoin="round"/>
<path d="M6.901 12.6538L8.74422 16.2461L8.68248 14.4615L6.901 12.6538Z" fill="#E27525" stroke="#E27525" stroke-width="0.25" stroke-linecap="round" stroke-linejoin="round"/>
<path d="M16.3099 14.4615L16.2405 16.2461L18.0837 12.6538L16.3099 14.4615Z" fill="#E27525" stroke="#E27525" stroke-width="0.25" stroke-linecap="round" stroke-linejoin="round"/>
<path d="M11.2971 12.8539L10.8883 15.1078L11.405 17.7693L11.5207 14.2616L11.2971 12.8539Z" fill="#E27525" stroke="#E27525" stroke-width="0.25" stroke-linecap="round" stroke-linejoin="round"/>
<path d="M13.6876 12.8539L13.4717 14.2539L13.5797 17.7693L14.0964 15.1078L13.6876 12.8539Z" fill="#E27525" stroke="#E27525" stroke-width="0.25" stroke-linecap="round" stroke-linejoin="round"/>
<path d="M14.0965 15.1079L13.5798 17.7693L13.95 18.0309L16.2406 16.2463L16.31 14.4617L14.0965 15.1079Z" fill="#F5841F" stroke="#F5841F" stroke-width="0.25" stroke-linecap="round" stroke-linejoin="round"/>
<path d="M8.6825 14.4617L8.74423 16.2463L11.0347 18.0309L11.4049 17.7693L10.8882 15.1079L8.6825 14.4617Z" fill="#F5841F" stroke="#F5841F" stroke-width="0.25" stroke-linecap="round" stroke-linejoin="round"/>
<path d="M14.1427 20.4847L14.1658 19.7539L13.9653 19.5846H11.0193L10.8265 19.7539L10.8419 20.4847L8.37402 19.3154L9.23778 20.0231L10.9884 21.2308H13.9884L15.7468 20.0231L16.6028 19.3154L14.1427 20.4847Z" fill="#C0AC9D" stroke="#C0AC9D" stroke-width="0.25" stroke-linecap="round" stroke-linejoin="round"/>
<path d="M13.9498 18.0308L13.5796 17.7693H11.4048L11.0347 18.0308L10.8264 19.7539L11.0192 19.5847H13.9653L14.1658 19.7539L13.9498 18.0308Z" fill="#161616" stroke="#161616" stroke-width="0.25" stroke-linecap="round" stroke-linejoin="round"/>
<path d="M21.8162 8.91542L22.4717 5.73083L21.4846 2.76929L13.9498 8.34623L16.8496 10.7924L20.9447 11.9847L21.847 10.9309L21.4538 10.6462L22.0784 10.077L21.6003 9.70776L22.225 9.23083L21.8162 8.91542Z" fill="#763E1A" stroke="#763E1A" stroke-width="0.25" stroke-linecap="round" stroke-linejoin="round"/>
<path d="M2.51282 5.73083L3.17606 8.91542L2.7519 9.23083L3.38429 9.70776L2.90614 10.077L3.53082 10.6462L3.1375 10.9309L4.03982 11.9847L8.135 10.7924L11.0347 8.34623L3.49997 2.76929L2.51282 5.73083Z" fill="#763E1A" stroke="#763E1A" stroke-width="0.25" stroke-linecap="round" stroke-linejoin="round"/>
<path d="M20.9449 11.9846L16.8497 10.7924L18.0837 12.6539L16.2405 16.2462L18.6775 16.2154H22.3176L20.9449 11.9846Z" fill="#F5841F" stroke="#F5841F" stroke-width="0.25" stroke-linecap="round" stroke-linejoin="round"/>
<path d="M8.13485 10.7924L4.03973 11.9846L2.67468 16.2154H6.3071L8.74411 16.2462L6.90094 12.6539L8.13485 10.7924Z" fill="#F5841F" stroke="#F5841F" stroke-width="0.25" stroke-linecap="round" stroke-linejoin="round"/>
<path d="M13.6876 12.8539L13.9498 8.34621L15.1374 5.13855H9.84692L11.0346 8.34621L11.2968 12.8539L11.3971 14.2693L11.4048 17.7693H13.5796L13.5873 14.2693L13.6876 12.8539Z" fill="#F5841F" stroke="#F5841F" stroke-width="0.25" stroke-linecap="round" stroke-linejoin="round"/>
</svg>
