<svg width="211" height="56" viewBox="0 0 211 56" fill="none" xmlns="http://www.w3.org/2000/svg">
<path d="M1.73868 13.112L22.2976 1.28796C22.8257 0.981656 23.4255 0.820313 24.0362 0.820312C24.6469 0.820312 25.2468 0.981656 25.7748 1.28796L46.3337 13.112C46.862 13.4174 47.3006 13.856 47.6057 14.3839C47.9108 14.9118 48.0717 15.5105 48.0724 16.12V39.848C48.0717 40.4575 47.9108 41.0561 47.6057 41.584C47.3006 42.1119 46.862 42.5505 46.3337 42.856L25.7748 54.712C25.2468 55.0183 24.6469 55.1796 24.0362 55.1796C23.4255 55.1796 22.8257 55.0183 22.2976 54.712L1.73868 42.856C1.21045 42.5505 0.771821 42.1119 0.466702 41.584C0.161582 41.0561 0.000666832 40.4575 6.05457e-05 39.848V16.144C-0.00356102 15.5304 0.155347 14.9268 0.460678 14.3943C0.766008 13.8618 1.20691 13.4194 1.73868 13.112Z" fill="#8249FD"/>
<path opacity="0.5" d="M1.73868 13.112L22.2976 1.28796C22.8257 0.981656 23.4255 0.820313 24.0362 0.820312C24.6469 0.820312 25.2468 0.981656 25.7748 1.28796L46.3337 13.112C46.862 13.4174 47.3006 13.856 47.6057 14.3839C47.9108 14.9118 48.0717 15.5105 48.0724 16.12V16.312C48.0717 16.9215 47.9108 17.5201 47.6057 18.048C47.3006 18.5759 46.862 19.0145 46.3337 19.32L25.7748 31.224C25.2468 31.5303 24.6469 31.6916 24.0362 31.6916C23.4255 31.6916 22.8257 31.5303 22.2976 31.224L1.73868 19.376C1.21045 19.0705 0.771821 18.6319 0.466702 18.104C0.161582 17.5761 0.000666832 16.9775 6.05457e-05 16.368V16.144C-0.00356102 15.5304 0.155347 14.9268 0.460678 14.3943C0.766008 13.8618 1.20691 13.4194 1.73868 13.112Z" fill="url(#paint0_linear_182_31466)"/>
<path opacity="0.5" d="M1.73862 36.6153L22.2975 24.7593C22.8269 24.4569 23.4262 24.2979 24.0361 24.2979C24.646 24.2979 25.2454 24.4569 25.7748 24.7593L46.3337 36.6153C46.8619 36.9208 47.3005 37.3594 47.6056 37.8873C47.9108 38.4152 48.0717 39.0138 48.0723 39.6233V39.8473C48.0717 40.4568 47.9108 41.0555 47.6056 41.5834C47.3005 42.1113 46.8619 42.5499 46.3337 42.8553L25.7748 54.7113C25.2467 55.0176 24.6469 55.179 24.0361 55.179C23.4254 55.179 22.8256 55.0176 22.2975 54.7113L1.73862 42.8553C1.21039 42.5499 0.771761 42.1113 0.466641 41.5834C0.161521 41.0555 0.000606287 40.4568 0 39.8473V39.6233C0.000606287 39.0138 0.161521 38.4152 0.466641 37.8873C0.771761 37.3594 1.21039 36.9208 1.73862 36.6153Z" fill="url(#paint1_linear_182_31466)"/>
<path d="M61.6605 4.91895L66.2354 19.1669L70.8022 4.91895H77.308V25.3989H72.3485V20.5989L72.8293 10.8149L67.8698 25.3829H64.5688L59.6014 10.7989L60.0821 20.5989V25.3989H55.1387V4.91895H61.6605Z" fill="#30446B"/>
<path d="M97.8112 15.5838C97.844 17.412 97.4662 19.2244 96.7055 20.8878C96.0098 22.3582 94.8949 23.5911 93.5007 24.4318C92.0834 25.2411 90.4807 25.6708 88.848 25.6793C87.2153 25.6877 85.6082 25.2745 84.1827 24.4798C82.8178 23.6616 81.7188 22.467 81.0179 21.0398C80.2394 19.4391 79.834 17.6832 79.8321 15.9038V14.7518C79.7909 12.9227 80.1691 11.1085 80.9378 9.44778C81.6282 7.97167 82.7441 6.73488 84.1426 5.89578C85.5645 5.07794 87.1767 4.64746 88.8176 4.64746C90.4586 4.64746 92.0708 5.07794 93.4927 5.89578C94.8786 6.73589 95.9916 7.95835 96.6975 9.41578C97.4753 11.0521 97.8672 12.8447 97.8432 14.6558L97.8112 15.5838ZM92.7876 14.7118C92.889 13.0996 92.5336 11.4916 91.7621 10.0718C91.4633 9.56937 91.0353 9.15601 90.5224 8.87465C90.0096 8.59328 89.4306 8.45418 88.8457 8.47178C86.362 8.47178 85.056 10.3278 84.9118 14.0718V15.5758C84.8235 17.179 85.1695 18.7763 85.9133 20.1998C86.2288 20.6903 86.6627 21.0937 87.175 21.3732C87.6874 21.6526 88.2619 21.799 88.8457 21.799C89.4295 21.799 90.004 21.6526 90.5163 21.3732C91.0287 21.0937 91.4626 20.6903 91.7781 20.1998C92.5347 18.7976 92.8896 17.2142 92.8036 15.6238L92.7876 14.7118Z" fill="#30446B"/>
<path d="M107.987 18.1587H105.311V25.3587H100.367V4.91867H108.435C110.463 4.79675 112.472 5.36039 114.14 6.51867C114.82 7.0631 115.361 7.76128 115.717 8.55555C116.074 9.34982 116.236 10.2174 116.191 11.0867C116.24 12.3256 115.941 13.5535 115.326 14.6307C114.673 15.638 113.74 16.4332 112.642 16.9187L116.92 25.1827V25.3987H111.6L107.987 18.1587ZM105.311 14.3587H108.435C108.82 14.3876 109.207 14.3364 109.571 14.2084C109.935 14.0803 110.269 13.8781 110.551 13.6147C110.8 13.3346 110.991 13.0081 111.114 12.6538C111.236 12.2996 111.287 11.9247 111.264 11.5507C111.306 10.7897 111.047 10.0427 110.542 9.47067C110.263 9.206 109.931 9.00242 109.568 8.87294C109.205 8.74347 108.82 8.69092 108.435 8.71867H105.311V14.3587Z" fill="#30446B"/>
<path d="M124.123 18.4479V25.3999H119.18V4.91987H127.36C128.797 4.89108 130.222 5.18928 131.526 5.79187C132.679 6.32244 133.653 7.17558 134.33 8.24787C134.998 9.33764 135.339 10.5949 135.316 11.8719C135.352 12.783 135.177 13.69 134.804 14.5225C134.432 15.355 133.872 16.0906 133.169 16.6719C131.482 17.9508 129.394 18.5863 127.28 18.4639L124.123 18.4479ZM124.123 14.6399H127.328C128.126 14.6972 128.915 14.4386 129.523 13.9199C129.785 13.6546 129.987 13.3371 130.117 12.9883C130.246 12.6395 130.301 12.2672 130.276 11.8959C130.308 11.0595 130.022 10.2421 129.475 9.60787C129.206 9.31889 128.878 9.09135 128.513 8.94084C128.148 8.79033 127.755 8.72041 127.36 8.73587H124.067L124.123 14.6399Z" fill="#30446B"/>
<path d="M155.106 25.3989H150.194V16.8469H142.911V25.3989H137.968V4.91895H142.911V13.0469H150.194V4.91895H155.106V25.3989Z" fill="#30446B"/>
<path d="M170.937 16.7109H163.165V21.5989H172.347V25.3989H158.222V4.91895H172.371V8.73495H163.165V13.0469H170.937V16.7109Z" fill="#30446B"/>
<path d="M190.446 4.91895V18.3269C190.479 19.7052 190.141 21.067 189.469 22.2709C188.821 23.3812 187.848 24.2663 186.681 24.8069C185.334 25.4184 183.865 25.7166 182.386 25.6789C180.245 25.7975 178.139 25.103 176.489 23.7349C175.761 23.0596 175.188 22.2355 174.807 21.3189C174.427 20.4022 174.249 19.4145 174.286 18.4229V4.91895H179.261V18.5189C179.32 20.7589 180.362 21.8789 182.386 21.8789C182.811 21.9109 183.238 21.8526 183.638 21.7078C184.039 21.563 184.404 21.335 184.71 21.0389C185.312 20.2568 185.598 19.2775 185.511 18.2949V4.91895H190.446Z" fill="#30446B"/>
<path d="M204.107 19.9593C204.119 19.6343 204.053 19.3113 203.913 19.0175C203.774 18.7236 203.566 18.4677 203.306 18.2713C202.479 17.711 201.568 17.2869 200.606 17.0153C199.53 16.6632 198.475 16.2464 197.449 15.7673C194.779 14.4606 193.443 12.6686 193.443 10.3913C193.426 9.30797 193.776 8.25065 194.437 7.39126C195.17 6.47148 196.143 5.7712 197.249 5.36726C198.548 4.86273 199.933 4.61547 201.327 4.63926C202.691 4.62202 204.043 4.89472 205.293 5.43926C206.398 5.90951 207.343 6.6871 208.017 7.67926C208.673 8.66439 209.013 9.82476 208.995 11.0073H204.059C204.074 10.6447 204.01 10.2834 203.871 9.94786C203.733 9.61235 203.524 9.31061 203.258 9.06326C202.674 8.5827 201.931 8.33733 201.175 8.37526C200.432 8.33263 199.697 8.53811 199.084 8.95926C198.893 9.08437 198.73 9.246 198.602 9.43478C198.475 9.62356 198.386 9.83572 198.341 10.059C198.297 10.2822 198.297 10.5121 198.342 10.7353C198.387 10.9585 198.475 11.1706 198.603 11.3593C198.747 11.5762 198.939 11.757 199.164 11.8873C200.082 12.4754 201.084 12.9205 202.136 13.2073C203.348 13.5776 204.519 14.0708 205.63 14.6793C207.841 15.9513 208.955 17.7113 208.955 19.9513C208.986 20.7656 208.817 21.5753 208.464 22.31C208.111 23.0447 207.584 23.6823 206.928 24.1673C205.279 25.2823 203.307 25.8222 201.319 25.7033C199.769 25.7272 198.231 25.4218 196.808 24.8073C195.575 24.3113 194.516 23.4624 193.764 22.3673C193.076 21.2998 192.722 20.0522 192.746 18.7833H197.698C197.664 19.221 197.723 19.6609 197.871 20.0744C198.018 20.4879 198.251 20.8657 198.555 21.1833C199.345 21.7826 200.33 22.0677 201.319 21.9833C202.005 22.0194 202.685 21.8343 203.258 21.4553C203.517 21.2998 203.73 21.0805 203.879 20.8185C204.028 20.5564 204.107 20.2605 204.107 19.9593Z" fill="#30446B"/>
<path d="M57.9595 49.5355H68.0867V50.9995H56.2129V30.5195H57.9595V49.5355Z" fill="#30446B"/>
<path d="M82.7488 45.2475H73.4388L71.3236 50.9995H69.5049L77.2686 30.5195H78.911L86.6747 50.9995H84.872L82.7488 45.2475ZM73.9355 43.7835H82.196L78.0858 32.6315L73.9355 43.7835Z" fill="#30446B"/>
<path d="M89.6875 50.9995V30.5195H95.7446C97.9399 30.5195 99.6064 30.9729 100.744 31.8795C101.324 32.3651 101.78 32.9805 102.077 33.6755C102.374 34.3706 102.502 35.1257 102.451 35.8795C102.475 36.8696 102.17 37.8398 101.585 38.6395C100.984 39.4415 100.142 40.0303 99.1818 40.3195C100.318 40.5434 101.341 41.1568 102.072 42.0538C102.804 42.9508 103.198 44.0748 103.188 45.2315C103.231 46.025 103.096 46.8182 102.791 47.5521C102.485 48.2861 102.019 48.9421 101.425 49.4715C100.04 50.5589 98.3046 51.1025 96.5458 50.9995H89.6875ZM91.4181 39.7035H96.1532C97.352 39.7586 98.5345 39.4092 99.5103 38.7115C99.9174 38.3605 100.237 37.9197 100.444 37.4241C100.652 36.9284 100.74 36.3914 100.704 35.8555C100.747 35.307 100.657 34.7563 100.442 34.2496C100.227 33.7429 99.8941 33.295 99.4702 32.9435C98.3618 32.2388 97.055 31.9105 95.7446 32.0075H91.4181V39.7035ZM91.4181 41.1675V49.5355H96.6179C97.8919 49.6048 99.1468 49.2033 100.143 48.4075C100.578 48.0138 100.919 47.5276 101.141 46.9849C101.363 46.4422 101.46 45.8567 101.425 45.2715C101.454 44.7101 101.356 44.1494 101.14 43.6304C100.924 43.1114 100.594 42.6472 100.175 42.2715C99.2073 41.4889 97.9815 41.0952 96.7381 41.1675H91.4181Z" fill="#30446B"/>
<path d="M118.971 45.9675C118.992 45.4561 118.894 44.9468 118.686 44.4792C118.478 44.0116 118.164 43.5983 117.77 43.2714C116.446 42.3683 114.961 41.7274 113.395 41.3834C111.745 40.9997 110.172 40.3426 108.74 39.4395C108.225 39.0933 107.783 38.6493 107.44 38.1327C107.097 37.6161 106.859 37.037 106.74 36.4286C106.621 35.8202 106.623 35.1943 106.746 34.5867C106.869 33.9791 107.111 33.4017 107.458 32.8875C107.779 32.43 108.178 32.032 108.636 31.7115C110.078 30.6883 111.819 30.1708 113.587 30.2395C114.85 30.222 116.101 30.4957 117.241 31.0395C118.265 31.5192 119.132 32.2793 119.74 33.2315C120.336 34.1684 120.645 35.2581 120.63 36.3675H118.883C118.91 35.7326 118.795 35.0998 118.547 34.5146C118.299 33.9295 117.924 33.4065 117.449 32.9835C116.368 32.0891 114.99 31.6324 113.587 31.7035C112.256 31.6324 110.938 32.0007 109.838 32.7515C109.389 33.0571 109.022 33.4693 108.772 33.951C108.522 34.4327 108.395 34.9688 108.403 35.5115C108.393 36.0052 108.502 36.4943 108.721 36.9371C108.94 37.38 109.262 37.7636 109.661 38.0555C110.873 38.8875 112.232 39.4796 113.667 39.7995C115.119 40.1679 116.523 40.7049 117.85 41.3995C118.71 41.8611 119.444 42.5257 119.989 43.3355C120.484 44.1315 120.734 45.0548 120.71 45.9914C120.736 46.754 120.573 47.5111 120.235 48.1952C119.896 48.8793 119.393 49.4689 118.771 49.9115C117.279 50.9503 115.484 51.4653 113.667 51.3755C112.291 51.3918 110.926 51.1193 109.661 50.5755C108.552 50.1422 107.596 49.3906 106.913 48.4154C106.28 47.4699 105.953 46.3528 105.976 45.2154H107.714C107.688 45.8714 107.819 46.5241 108.098 47.1186C108.377 47.7131 108.795 48.232 109.317 48.6315C110.572 49.5195 112.091 49.9592 113.627 49.8794C114.989 49.9448 116.336 49.5749 117.473 48.8235C117.946 48.5148 118.332 48.0903 118.595 47.5903C118.857 47.0904 118.987 46.5316 118.971 45.9675Z" fill="#30446B"/>
<path d="M203.979 29.9434H132.319C128.877 29.9434 126.086 32.7299 126.086 36.1674V45.3594C126.086 48.7968 128.877 51.5834 132.319 51.5834H203.979C207.422 51.5834 210.212 48.7968 210.212 45.3594V36.1674C210.212 32.7299 207.422 29.9434 203.979 29.9434Z" fill="url(#paint2_linear_182_31466)"/>
<path d="M145.106 37.7272C144.936 37.2416 144.605 36.8286 144.168 36.5565C143.731 36.2844 143.214 36.1696 142.702 36.2312C142.303 36.2154 141.906 36.2859 141.536 36.4377C141.167 36.5896 140.835 36.8194 140.563 37.1112C140.33 37.4233 140.227 37.813 140.275 38.1992C140.363 39.4152 141.685 39.5592 142.951 39.6792C144.553 39.8792 146.564 40.3032 147.021 42.1832C147.074 42.4467 147.104 42.7145 147.109 42.9832C147.109 45.2472 144.85 46.5592 142.734 46.5592C140.916 46.5592 138.728 45.4792 138.496 43.3592V43.0392H140.219V43.2232C140.331 44.3112 141.661 44.8872 142.758 44.8872C144.016 44.8872 145.394 44.1832 145.394 42.9672C145.395 42.8324 145.379 42.6981 145.346 42.5672C145.146 41.6792 143.936 41.5272 142.758 41.4072C140.924 41.2232 138.752 40.8232 138.584 38.3672C138.51 37.5693 138.739 36.7729 139.225 36.1352C139.663 35.6208 140.21 35.2103 140.827 34.9335C141.444 34.6568 142.115 34.5207 142.791 34.5352C144.609 34.5352 146.492 35.4712 146.797 37.6232L145.106 37.7272Z" fill="white"/>
<path d="M158.062 44.7429H163.526V46.4389H156.315V34.7109H163.478V36.4069H158.03V39.7109H163.358V41.4229H158.03L158.062 44.7429Z" fill="white"/>
<path d="M174.335 44.7429H179.799V46.4389H172.588V34.7109H179.759V36.4069H174.335V39.7109H179.663V41.4229H174.335V44.7429Z" fill="white"/>
<path d="M193.226 34.7109C197.072 34.7109 199.011 37.6469 199.011 40.5829C199.011 43.5189 197.072 46.4469 193.226 46.4469H189.004V34.7109H193.226ZM193.226 44.7509C194.303 44.7039 195.32 44.2437 196.065 43.4665C196.81 42.6892 197.226 41.6548 197.226 40.5789C197.226 39.503 196.81 38.4686 196.065 37.6914C195.32 36.9141 194.303 36.454 193.226 36.4069H190.702V44.7429L193.226 44.7509Z" fill="white"/>
<defs>
<linearGradient id="paint0_linear_182_31466" x1="24.0362" y1="31.688" x2="24.0362" y2="0.823962" gradientUnits="userSpaceOnUse">
<stop stop-color="white"/>
<stop offset="0.01" stop-color="white" stop-opacity="0.99"/>
<stop offset="0.11" stop-color="white" stop-opacity="0.76"/>
<stop offset="0.21" stop-color="white" stop-opacity="0.56"/>
<stop offset="0.31" stop-color="white" stop-opacity="0.38"/>
<stop offset="0.41" stop-color="white" stop-opacity="0.25"/>
<stop offset="0.51" stop-color="white" stop-opacity="0.14"/>
<stop offset="0.62" stop-color="white" stop-opacity="0.06"/>
<stop offset="0.72" stop-color="white" stop-opacity="0.02"/>
<stop offset="0.83" stop-color="white" stop-opacity="0"/>
</linearGradient>
<linearGradient id="paint1_linear_182_31466" x1="24.0361" y1="55.1753" x2="24.0361" y2="24.2953" gradientUnits="userSpaceOnUse">
<stop stop-color="white"/>
<stop offset="0.34" stop-color="white" stop-opacity="0.58"/>
<stop offset="0.83" stop-color="white" stop-opacity="0"/>
</linearGradient>
<linearGradient id="paint2_linear_182_31466" x1="143.528" y1="16.1754" x2="192.696" y2="65.4254" gradientUnits="userSpaceOnUse">
<stop stop-color="#6D53E8"/>
<stop offset="0.16" stop-color="#6752E9"/>
<stop offset="0.39" stop-color="#554EEC"/>
<stop offset="0.66" stop-color="#3749F1"/>
<stop offset="0.95" stop-color="#0E42F8"/>
<stop offset="1" stop-color="#0640F9"/>
</linearGradient>
</defs>
</svg>
