<svg width="17" height="16" viewBox="0 0 17 16" fill="none" xmlns="http://www.w3.org/2000/svg">
<g clip-path="url(#clip0_168_30486)">
<path d="M16.5 8C16.5 6.41775 16.0308 4.87103 15.1518 3.55544C14.2727 2.23985 13.0233 1.21447 11.5615 0.608967C10.0997 0.00346625 8.49113 -0.15496 6.93928 0.153721C5.38743 0.462403 3.96197 1.22433 2.84315 2.34315C1.72433 3.46197 0.962403 4.88743 0.653721 6.43928C0.34504 7.99113 0.503466 9.59966 1.10897 11.0615C1.71447 12.5233 2.73985 13.7727 4.05544 14.6518C5.37103 15.5308 6.91775 16 8.5 16C10.6198 15.9937 12.6509 15.1488 14.1499 13.6499C15.6488 12.1509 16.4937 10.1198 16.5 8ZM8.793 11.955C8.70565 11.9153 8.63158 11.8513 8.57963 11.7706C8.52767 11.6899 8.50003 11.596 8.5 11.5V9H4.5C4.23479 9 3.98043 8.89465 3.7929 8.70711C3.60536 8.51957 3.5 8.26522 3.5 8C3.5 7.73479 3.60536 7.48043 3.7929 7.2929C3.98043 7.10536 4.23479 7 4.5 7H8.5V4.5C8.5001 4.40402 8.52783 4.31009 8.57987 4.22943C8.6319 4.14878 8.70606 4.08481 8.79347 4.04516C8.88089 4.00551 8.97787 3.99186 9.07283 4.00585C9.16779 4.01983 9.25673 4.06084 9.329 4.124L13.329 7.624C13.3806 7.6721 13.4218 7.7303 13.4499 7.79499C13.478 7.85968 13.4925 7.92946 13.4925 8C13.4925 8.07054 13.478 8.14033 13.4499 8.20502C13.4218 8.2697 13.3806 8.32791 13.329 8.376L9.329 11.876C9.2567 11.9393 9.16769 11.9804 9.07263 11.9944C8.97757 12.0084 8.88049 11.9947 8.793 11.955Z" fill="white"/>
</g>
<defs>
<clipPath id="clip0_168_30486">
<rect width="16" height="16" fill="white" transform="translate(0.5)"/>
</clipPath>
</defs>
</svg>
