<svg width="16" height="16" viewBox="0 0 16 16" fill="none" xmlns="http://www.w3.org/2000/svg">
<rect width="16" height="16" fill="#1E1E1E"/>
<g id="Landing Pages">
<path d="M-512 -641C-512 -642.105 -511.105 -643 -510 -643H4309C4310.1 -643 4311 -642.105 4311 -641V2079C4311 2080.1 4310.1 2081 4309 2081H-510C-511.105 2081 -512 2080.1 -512 2079V-641Z" fill="#313131"/>
<g id="Platform Landing-page">
<rect width="1440" height="1699" transform="translate(-355 -533)" fill="#F1F5FA"/>
<g id="Frame 21057">
<g id="Frame 21037">
<g id="Frame 21017">
<g id="Workflow" filter="url(#filter0_b_0_1)">
<rect width="390" height="155" transform="translate(-235 -87)" fill="url(#paint0_linear_0_1)"/>
<g id="Frame 21005">
<path id="Start Process Automation" d="M-139.544 -22.892C-139.544 -22.092 -139.736 -21.348 -140.12 -20.66C-140.504 -19.972 -141.088 -19.412 -141.872 -18.98C-142.656 -18.548 -143.624 -18.332 -144.776 -18.332C-145.896 -18.332 -146.896 -18.532 -147.776 -18.932C-148.64 -19.348 -149.336 -19.908 -149.864 -20.612C-150.376 -21.332 -150.672 -22.148 -150.752 -23.06H-148.424C-148.376 -22.58 -148.216 -22.108 -147.944 -21.644C-147.656 -21.196 -147.256 -20.82 -146.744 -20.516C-146.216 -20.228 -145.584 -20.084 -144.848 -20.084C-143.888 -20.084 -143.152 -20.34 -142.64 -20.852C-142.128 -21.364 -141.872 -22.02 -141.872 -22.82C-141.872 -23.508 -142.056 -24.068 -142.424 -24.5C-142.776 -24.932 -143.216 -25.268 -143.744 -25.508C-144.272 -25.764 -144.992 -26.036 -145.904 -26.324C-146.976 -26.676 -147.84 -27.004 -148.496 -27.308C-149.136 -27.628 -149.688 -28.1 -150.152 -28.724C-150.6 -29.348 -150.824 -30.172 -150.824 -31.196C-150.824 -32.076 -150.616 -32.852 -150.2 -33.524C-149.768 -34.196 -149.16 -34.716 -148.376 -35.084C-147.576 -35.452 -146.64 -35.636 -145.568 -35.636C-143.904 -35.636 -142.584 -35.228 -141.608 -34.412C-140.632 -33.612 -140.064 -32.588 -139.904 -31.34H-142.256C-142.384 -32.012 -142.728 -32.604 -143.288 -33.116C-143.848 -33.628 -144.608 -33.884 -145.568 -33.884C-146.448 -33.884 -147.152 -33.652 -147.68 -33.188C-148.208 -32.74 -148.472 -32.1 -148.472 -31.268C-148.472 -30.612 -148.304 -30.076 -147.968 -29.66C-147.616 -29.26 -147.184 -28.94 -146.672 -28.7C-146.16 -28.476 -145.456 -28.22 -144.56 -27.932C-143.472 -27.58 -142.6 -27.244 -141.944 -26.924C-141.272 -26.604 -140.704 -26.116 -140.24 -25.46C-139.776 -24.82 -139.544 -23.964 -139.544 -22.892ZM-130.319 -20.42V-18.5H-131.951C-133.295 -18.5 -134.303 -18.82 -134.975 -19.46C-135.631 -20.1 -135.959 -21.172 -135.959 -22.676V-29.78H-137.927V-31.676H-135.959V-34.964H-133.751V-31.676H-130.343V-29.78H-133.751V-22.628C-133.751 -21.78 -133.599 -21.196 -133.295 -20.876C-132.975 -20.572 -132.431 -20.42 -131.663 -20.42H-130.319ZM-122.254 -31.844C-120.974 -31.844 -119.894 -31.524 -119.014 -30.884C-118.118 -30.244 -117.494 -29.388 -117.142 -28.316V-31.676H-114.958V-18.5H-117.142V-21.86C-117.494 -20.788 -118.118 -19.932 -119.014 -19.292C-119.894 -18.652 -120.974 -18.332 -122.254 -18.332C-123.422 -18.332 -124.462 -18.604 -125.374 -19.148C-126.286 -19.692 -127.006 -20.468 -127.534 -21.476C-128.046 -22.5 -128.302 -23.7 -128.302 -25.076C-128.302 -26.452 -128.046 -27.652 -127.534 -28.676C-127.006 -29.7 -126.286 -30.484 -125.374 -31.028C-124.462 -31.572 -123.422 -31.844 -122.254 -31.844ZM-121.63 -29.9C-122.974 -29.9 -124.054 -29.468 -124.87 -28.604C-125.67 -27.756 -126.07 -26.58 -126.07 -25.076C-126.07 -23.572 -125.67 -22.388 -124.87 -21.524C-124.054 -20.676 -122.974 -20.252 -121.63 -20.252C-120.766 -20.252 -119.998 -20.452 -119.326 -20.852C-118.638 -21.252 -118.102 -21.812 -117.718 -22.532C-117.334 -23.268 -117.142 -24.116 -117.142 -25.076C-117.142 -26.036 -117.334 -26.884 -117.718 -27.62C-118.102 -28.356 -118.638 -28.916 -119.326 -29.3C-119.998 -29.7 -120.766 -29.9 -121.63 -29.9ZM-109.298 -29.012C-108.866 -29.924 -108.234 -30.628 -107.402 -31.124C-106.57 -31.636 -105.578 -31.892 -104.426 -31.892V-29.516H-105.098C-106.33 -29.516 -107.338 -29.196 -108.122 -28.556C-108.906 -27.932 -109.298 -26.892 -109.298 -25.436V-18.5H-111.482V-31.676H-109.298V-29.012ZM-95.9834 -20.42V-18.5H-97.6154C-98.9594 -18.5 -99.9674 -18.82 -100.639 -19.46C-101.295 -20.1 -101.623 -21.172 -101.623 -22.676V-29.78H-103.591V-31.676H-101.623V-34.964H-99.4154V-31.676H-96.0074V-29.78H-99.4154V-22.628C-99.4154 -21.78 -99.2634 -21.196 -98.9594 -20.876C-98.6394 -20.572 -98.0954 -20.42 -97.3274 -20.42H-95.9834ZM-85.2046 -25.316V-18.5H-87.3886V-35.42H-82.0126C-80.0766 -35.42 -78.6286 -34.964 -77.6686 -34.052C-76.7086 -33.156 -76.2286 -31.924 -76.2286 -30.356C-76.2286 -28.772 -76.7246 -27.532 -77.7166 -26.636C-78.7086 -25.756 -80.1406 -25.316 -82.0126 -25.316H-85.2046ZM-82.2046 -27.14C-80.8766 -27.14 -79.9246 -27.42 -79.3486 -27.98C-78.7566 -28.54 -78.4606 -29.332 -78.4606 -30.356C-78.4606 -31.412 -78.7566 -32.212 -79.3486 -32.756C-79.9246 -33.316 -80.8766 -33.596 -82.2046 -33.596H-85.2046V-27.14H-82.2046ZM-71.4937 -29.012C-71.0617 -29.924 -70.4297 -30.628 -69.5977 -31.124C-68.7657 -31.636 -67.7737 -31.892 -66.6217 -31.892V-29.516H-67.2937C-68.5257 -29.516 -69.5337 -29.196 -70.3177 -28.556C-71.1017 -27.932 -71.4937 -26.892 -71.4937 -25.436V-18.5H-73.6777V-31.676H-71.4937V-29.012ZM-58.4907 -31.844C-57.2267 -31.844 -56.0987 -31.572 -55.1067 -31.028C-54.0987 -30.484 -53.3147 -29.7 -52.7547 -28.676C-52.1787 -27.652 -51.8907 -26.452 -51.8907 -25.076C-51.8907 -23.7 -52.1787 -22.5 -52.7547 -21.476C-53.3147 -20.468 -54.0987 -19.692 -55.1067 -19.148C-56.0987 -18.604 -57.2267 -18.332 -58.4907 -18.332C-59.7547 -18.332 -60.8907 -18.604 -61.8987 -19.148C-62.8907 -19.692 -63.6747 -20.468 -64.2507 -21.476C-64.8267 -22.5 -65.1147 -23.7 -65.1147 -25.076C-65.1147 -26.452 -64.8267 -27.652 -64.2507 -28.676C-63.6747 -29.7 -62.8907 -30.484 -61.8987 -31.028C-60.8907 -31.572 -59.7547 -31.844 -58.4907 -31.844ZM-58.4907 -29.924C-59.2747 -29.924 -60.0027 -29.748 -60.6747 -29.396C-61.3307 -29.044 -61.8667 -28.5 -62.2827 -27.764C-62.6827 -27.044 -62.8827 -26.148 -62.8827 -25.076C-62.8827 -24.02 -62.6827 -23.124 -62.2827 -22.388C-61.8667 -21.668 -61.3307 -21.132 -60.6747 -20.78C-60.0027 -20.428 -59.2747 -20.252 -58.4907 -20.252C-57.7067 -20.252 -56.9867 -20.428 -56.3307 -20.78C-55.6587 -21.132 -55.1227 -21.668 -54.7227 -22.388C-54.3067 -23.124 -54.0988 -24.02 -54.0988 -25.076C-54.0988 -26.148 -54.3067 -27.044 -54.7227 -27.764C-55.1227 -28.5 -55.6587 -29.044 -56.3307 -29.396C-56.9867 -29.748 -57.7067 -29.924 -58.4907 -29.924ZM-43.2129 -31.844C-41.5329 -31.844 -40.1409 -31.396 -39.0369 -30.5C-37.9329 -29.604 -37.2529 -28.404 -36.9969 -26.9H-39.3009C-39.4609 -27.844 -39.9009 -28.58 -40.6209 -29.108C-41.3249 -29.652 -42.2049 -29.924 -43.2609 -29.924C-44.0289 -29.924 -44.7329 -29.748 -45.3729 -29.396C-45.9969 -29.044 -46.5009 -28.5 -46.8849 -27.764C-47.2689 -27.044 -47.4609 -26.148 -47.4609 -25.076C-47.4609 -24.004 -47.2689 -23.1 -46.8849 -22.364C-46.5009 -21.644 -45.9969 -21.108 -45.3729 -20.756C-44.7329 -20.404 -44.0289 -20.228 -43.2609 -20.228C-42.2049 -20.228 -41.3249 -20.5 -40.6209 -21.044C-39.9009 -21.588 -39.4609 -22.332 -39.3009 -23.276H-36.9969C-37.2529 -21.756 -37.9329 -20.548 -39.0369 -19.652C-40.1409 -18.772 -41.5329 -18.332 -43.2129 -18.332C-44.4769 -18.332 -45.5969 -18.604 -46.5729 -19.148C-47.5489 -19.692 -48.3169 -20.468 -48.8769 -21.476C-49.4209 -22.5 -49.6929 -23.7 -49.6929 -25.076C-49.6929 -26.452 -49.4209 -27.652 -48.8769 -28.676C-48.3169 -29.7 -47.5489 -30.484 -46.5729 -31.028C-45.5969 -31.572 -44.4769 -31.844 -43.2129 -31.844ZM-22.0186 -25.82C-22.0186 -25.356 -22.0506 -24.956 -22.1146 -24.62H-32.6506C-32.6026 -23.116 -32.1786 -21.988 -31.3786 -21.236C-30.5626 -20.484 -29.5706 -20.108 -28.4026 -20.108C-27.3466 -20.108 -26.4666 -20.372 -25.7626 -20.9C-25.0426 -21.444 -24.6026 -22.164 -24.4426 -23.06H-22.1146C-22.2746 -22.148 -22.6346 -21.332 -23.1946 -20.612C-23.7386 -19.892 -24.4506 -19.332 -25.3306 -18.932C-26.2106 -18.532 -27.2026 -18.332 -28.3066 -18.332C-29.5706 -18.332 -30.6906 -18.604 -31.6666 -19.148C-32.6426 -19.692 -33.4106 -20.468 -33.9706 -21.476C-34.5146 -22.5 -34.7866 -23.7 -34.7866 -25.076C-34.7866 -26.452 -34.5146 -27.652 -33.9706 -28.676C-33.4106 -29.7 -32.6426 -30.484 -31.6666 -31.028C-30.6906 -31.572 -29.5706 -31.844 -28.3066 -31.844C-27.0266 -31.844 -25.9146 -31.572 -24.9706 -31.028C-24.0106 -30.484 -23.2826 -29.756 -22.7866 -28.844C-22.2746 -27.932 -22.0186 -26.924 -22.0186 -25.82ZM-24.2266 -25.676C-24.1786 -26.652 -24.3386 -27.468 -24.7066 -28.124C-25.0746 -28.78 -25.5786 -29.268 -26.2186 -29.588C-26.8586 -29.908 -27.5546 -30.068 -28.3066 -30.068C-29.5066 -30.068 -30.5146 -29.692 -31.3306 -28.94C-32.1466 -28.204 -32.5866 -27.116 -32.6506 -25.676H-24.2266ZM-15.0341 -31.844C-13.5461 -31.844 -12.3541 -31.452 -11.4581 -30.668C-10.5461 -29.9 -9.99406 -28.86 -9.80206 -27.548H-11.8901C-11.9861 -28.332 -12.3141 -28.972 -12.8741 -29.468C-13.4181 -29.98 -14.1541 -30.236 -15.0821 -30.236C-15.8661 -30.236 -16.4821 -30.044 -16.9301 -29.66C-17.3621 -29.292 -17.5781 -28.788 -17.5781 -28.148C-17.5781 -27.668 -17.4341 -27.276 -17.1461 -26.972C-16.8421 -26.684 -16.4741 -26.46 -16.0421 -26.3C-15.5941 -26.156 -14.9861 -25.996 -14.2181 -25.82C-13.2421 -25.596 -12.4581 -25.364 -11.8661 -25.124C-11.2581 -24.9 -10.7461 -24.532 -10.3301 -24.02C-9.89806 -23.508 -9.68206 -22.82 -9.68206 -21.956C-9.68206 -20.884 -10.0901 -20.012 -10.9061 -19.34C-11.7061 -18.668 -12.7781 -18.332 -14.1221 -18.332C-15.6901 -18.332 -16.9701 -18.708 -17.9621 -19.46C-18.9541 -20.212 -19.5381 -21.26 -19.7141 -22.604H-17.6021C-17.5221 -21.804 -17.1781 -21.156 -16.5701 -20.66C-15.9461 -20.164 -15.1301 -19.916 -14.1221 -19.916C-13.3701 -19.916 -12.7861 -20.108 -12.3701 -20.492C-11.9381 -20.876 -11.7221 -21.38 -11.7221 -22.004C-11.7221 -22.516 -11.8741 -22.924 -12.1781 -23.228C-12.4821 -23.532 -12.8581 -23.764 -13.3061 -23.924C-13.7541 -24.084 -14.3701 -24.252 -15.1541 -24.428C-16.1301 -24.652 -16.9141 -24.876 -17.5061 -25.1C-18.0821 -25.324 -18.5781 -25.676 -18.9941 -26.156C-19.3941 -26.652 -19.5941 -27.316 -19.5941 -28.148C-19.5941 -29.252 -19.1861 -30.14 -18.3701 -30.812C-17.5541 -31.5 -16.4421 -31.844 -15.0341 -31.844ZM-2.63562 -31.844C-1.14762 -31.844 0.0443757 -31.452 0.940376 -30.668C1.85238 -29.9 2.40438 -28.86 2.59638 -27.548H0.508375C0.412375 -28.332 0.0843751 -28.972 -0.475625 -29.468C-1.01962 -29.98 -1.75562 -30.236 -2.68362 -30.236C-3.46762 -30.236 -4.08362 -30.044 -4.53162 -29.66C-4.96362 -29.292 -5.17962 -28.788 -5.17962 -28.148C-5.17962 -27.668 -5.03562 -27.276 -4.74762 -26.972C-4.44362 -26.684 -4.07562 -26.46 -3.64362 -26.3C-3.19562 -26.156 -2.58762 -25.996 -1.81962 -25.82C-0.843625 -25.596 -0.0596249 -25.364 0.532375 -25.124C1.14038 -24.9 1.65238 -24.532 2.06838 -24.02C2.50038 -23.508 2.71638 -22.82 2.71638 -21.956C2.71638 -20.884 2.30838 -20.012 1.49238 -19.34C0.692375 -18.668 -0.379625 -18.332 -1.72362 -18.332C-3.29162 -18.332 -4.57162 -18.708 -5.56362 -19.46C-6.55562 -20.212 -7.13962 -21.26 -7.31562 -22.604H-5.20362C-5.12362 -21.804 -4.77962 -21.156 -4.17162 -20.66C-3.54762 -20.164 -2.73162 -19.916 -1.72362 -19.916C-0.971625 -19.916 -0.387625 -20.108 0.0283751 -20.492C0.460375 -20.876 0.676375 -21.38 0.676375 -22.004C0.676375 -22.516 0.524375 -22.924 0.220376 -23.228C-0.0836244 -23.532 -0.459625 -23.764 -0.907625 -23.924C-1.35562 -24.084 -1.97162 -24.252 -2.75562 -24.428C-3.73162 -24.652 -4.51562 -24.876 -5.10762 -25.1C-5.68362 -25.324 -6.17962 -25.676 -6.59562 -26.156C-6.99562 -26.652 -7.19562 -27.316 -7.19562 -28.148C-7.19562 -29.252 -6.78762 -30.14 -5.97162 -30.812C-5.15562 -31.5 -4.04362 -31.844 -2.63562 -31.844ZM-140.336 11.588H-147.776L-149.192 15.5H-151.544L-145.28 -1.108H-142.808L-136.568 15.5H-138.92L-140.336 11.588ZM-140.96 9.884L-144.056 1.34L-147.152 9.884H-140.96ZM-122.645 2.324V15.5H-124.829V12.404C-125.165 13.476 -125.765 14.3 -126.629 14.876C-127.477 15.436 -128.469 15.716 -129.605 15.716C-131.125 15.716 -132.357 15.228 -133.301 14.252C-134.245 13.26 -134.717 11.844 -134.717 10.004V2.324H-132.533V9.788C-132.533 11.1 -132.197 12.116 -131.525 12.836C-130.853 13.54 -129.941 13.892 -128.789 13.892C-127.589 13.892 -126.629 13.508 -125.909 12.74C-125.189 11.956 -124.829 10.82 -124.829 9.332V2.324H-122.645ZM-112.858 13.58V15.5H-114.49C-115.834 15.5 -116.842 15.18 -117.514 14.54C-118.17 13.9 -118.498 12.828 -118.498 11.324V4.22H-120.466V2.324H-118.498V-0.964001H-116.29V2.324H-112.882V4.22H-116.29V11.372C-116.29 12.22 -116.138 12.804 -115.834 13.124C-115.514 13.428 -114.97 13.58 -114.202 13.58H-112.858ZM-104.217 2.156C-102.953 2.156 -101.825 2.428 -100.833 2.972C-99.8253 3.516 -99.0413 4.3 -98.4813 5.324C-97.9053 6.348 -97.6173 7.548 -97.6173 8.924C-97.6173 10.3 -97.9053 11.5 -98.4813 12.524C-99.0413 13.532 -99.8253 14.308 -100.833 14.852C-101.825 15.396 -102.953 15.668 -104.217 15.668C-105.481 15.668 -106.617 15.396 -107.625 14.852C-108.617 14.308 -109.401 13.532 -109.977 12.524C-110.553 11.5 -110.841 10.3 -110.841 8.924C-110.841 7.548 -110.553 6.348 -109.977 5.324C-109.401 4.3 -108.617 3.516 -107.625 2.972C-106.617 2.428 -105.481 2.156 -104.217 2.156ZM-104.217 4.076C-105.001 4.076 -105.729 4.252 -106.401 4.604C-107.057 4.956 -107.593 5.5 -108.009 6.236C-108.409 6.956 -108.609 7.852 -108.609 8.924C-108.609 9.98 -108.409 10.876 -108.009 11.612C-107.593 12.332 -107.057 12.868 -106.401 13.22C-105.729 13.572 -105.001 13.748 -104.217 13.748C-103.433 13.748 -102.713 13.572 -102.057 13.22C-101.385 12.868 -100.849 12.332 -100.449 11.612C-100.033 10.876 -99.8253 9.98 -99.8253 8.924C-99.8253 7.852 -100.033 6.956 -100.449 6.236C-100.849 5.5 -101.385 4.956 -102.057 4.604C-102.713 4.252 -103.433 4.076 -104.217 4.076ZM-78.5714 2.108C-77.0354 2.108 -75.8034 2.604 -74.8754 3.596C-73.9314 4.572 -73.4594 5.988 -73.4594 7.844V15.5H-75.6434V8.036C-75.6434 6.74 -75.9634 5.748 -76.6034 5.06C-77.2274 4.372 -78.0914 4.028 -79.1954 4.028C-80.3474 4.028 -81.2754 4.412 -81.9794 5.18C-82.6674 5.932 -83.0114 7.044 -83.0114 8.516V15.5H-85.1954V8.036C-85.1954 6.74 -85.5154 5.748 -86.1554 5.06C-86.7954 4.372 -87.6594 4.028 -88.7474 4.028C-89.9154 4.028 -90.8514 4.412 -91.5554 5.18C-92.2434 5.932 -92.5874 7.044 -92.5874 8.516V15.5H-94.7714V2.324H-92.5874V5.324C-92.2674 4.284 -91.6994 3.492 -90.8834 2.948C-90.0514 2.388 -89.0994 2.108 -88.0274 2.108C-86.9074 2.108 -85.9394 2.396 -85.1234 2.972C-84.2914 3.532 -83.6994 4.364 -83.3474 5.468C-82.9794 4.396 -82.3634 3.572 -81.4994 2.996C-80.6354 2.404 -79.6594 2.108 -78.5714 2.108ZM-64.6683 2.156C-63.3883 2.156 -62.3083 2.476 -61.4283 3.116C-60.5323 3.756 -59.9083 4.612 -59.5563 5.684V2.324H-57.3723V15.5H-59.5563V12.14C-59.9083 13.212 -60.5323 14.068 -61.4283 14.708C-62.3083 15.348 -63.3883 15.668 -64.6683 15.668C-65.8363 15.668 -66.8763 15.396 -67.7883 14.852C-68.7003 14.308 -69.4203 13.532 -69.9483 12.524C-70.4603 11.5 -70.7163 10.3 -70.7163 8.924C-70.7163 7.548 -70.4603 6.348 -69.9483 5.324C-69.4203 4.3 -68.7003 3.516 -67.7883 2.972C-66.8763 2.428 -65.8363 2.156 -64.6683 2.156ZM-64.0443 4.1C-65.3883 4.1 -66.4683 4.532 -67.2843 5.396C-68.0843 6.244 -68.4843 7.42 -68.4843 8.924C-68.4843 10.428 -68.0843 11.612 -67.2843 12.476C-66.4683 13.324 -65.3883 13.748 -64.0443 13.748C-63.1803 13.748 -62.4123 13.548 -61.7403 13.148C-61.0523 12.748 -60.5163 12.188 -60.1323 11.468C-59.7483 10.732 -59.5563 9.884 -59.5563 8.924C-59.5563 7.964 -59.7483 7.116 -60.1323 6.38C-60.5163 5.644 -61.0523 5.084 -61.7403 4.7C-62.4123 4.3 -63.1803 4.1 -64.0443 4.1ZM-47.6084 13.58V15.5H-49.2404C-50.5844 15.5 -51.5924 15.18 -52.2644 14.54C-52.9204 13.9 -53.2484 12.828 -53.2484 11.324V4.22H-55.2164V2.324H-53.2484V-0.964001H-51.0404V2.324H-47.6324V4.22H-51.0404V11.372C-51.0404 12.22 -50.8884 12.804 -50.5844 13.124C-50.2644 13.428 -49.7204 13.58 -48.9524 13.58H-47.6084ZM-45.3273 -1.54C-45.3273 -1.94 -45.1913 -2.26 -44.9193 -2.5C-44.6473 -2.756 -44.2873 -2.884 -43.8393 -2.884C-43.3913 -2.884 -43.0313 -2.756 -42.7593 -2.5C-42.4873 -2.26 -42.3513 -1.94 -42.3513 -1.54C-42.3513 -1.14 -42.4873 -0.812001 -42.7593 -0.556001C-43.0313 -0.316001 -43.3913 -0.196001 -43.8393 -0.196001C-44.2873 -0.196001 -44.6473 -0.316001 -44.9193 -0.556001C-45.1913 -0.812001 -45.3273 -1.14 -45.3273 -1.54ZM-42.7593 2.324V15.5H-44.9433V2.324H-42.7593ZM-33.272 2.156C-32.008 2.156 -30.88 2.428 -29.888 2.972C-28.88 3.516 -28.096 4.3 -27.536 5.324C-26.96 6.348 -26.672 7.548 -26.672 8.924C-26.672 10.3 -26.96 11.5 -27.536 12.524C-28.096 13.532 -28.88 14.308 -29.888 14.852C-30.88 15.396 -32.008 15.668 -33.272 15.668C-34.536 15.668 -35.672 15.396 -36.68 14.852C-37.672 14.308 -38.456 13.532 -39.032 12.524C-39.608 11.5 -39.896 10.3 -39.896 8.924C-39.896 7.548 -39.608 6.348 -39.032 5.324C-38.456 4.3 -37.672 3.516 -36.68 2.972C-35.672 2.428 -34.536 2.156 -33.272 2.156ZM-33.272 4.076C-34.056 4.076 -34.784 4.252 -35.456 4.604C-36.112 4.956 -36.648 5.5 -37.064 6.236C-37.464 6.956 -37.664 7.852 -37.664 8.924C-37.664 9.98 -37.464 10.876 -37.064 11.612C-36.648 12.332 -36.112 12.868 -35.456 13.22C-34.784 13.572 -34.056 13.748 -33.272 13.748C-32.488 13.748 -31.768 13.572 -31.112 13.22C-30.44 12.868 -29.904 12.332 -29.504 11.612C-29.088 10.876 -28.88 9.98 -28.88 8.924C-28.88 7.852 -29.088 6.956 -29.504 6.236C-29.904 5.5 -30.44 4.956 -31.112 4.604C-31.768 4.252 -32.488 4.076 -33.272 4.076ZM-16.8901 2.108C-15.3541 2.108 -14.1141 2.604 -13.1701 3.596C-12.2261 4.572 -11.7541 5.988 -11.7541 7.844V15.5H-13.9381V8.036C-13.9381 6.724 -14.2741 5.716 -14.9461 5.012C-15.6181 4.308 -16.5301 3.956 -17.6821 3.956C-18.8821 3.956 -19.8421 4.348 -20.5621 5.132C-21.2821 5.9 -21.6421 7.028 -21.6421 8.516V15.5H-23.8261V2.324H-21.6421V5.444C-21.3061 4.372 -20.7141 3.548 -19.8661 2.972C-19.0021 2.396 -18.0101 2.108 -16.8901 2.108Z" fill="#252525"/>
<g id="Frame" clip-path="url(#clip0_0_1)">
<g id="Group">
<path id="Vector" d="M16 8C16 6.41775 15.5308 4.87103 14.6518 3.55544C13.7727 2.23985 12.5233 1.21447 11.0615 0.608967C9.59966 0.00346625 7.99113 -0.15496 6.43928 0.153721C4.88743 0.462403 3.46197 1.22433 2.34315 2.34315C1.22433 3.46197 0.462403 4.88743 0.153721 6.43928C-0.15496 7.99113 0.00346625 9.59966 0.608967 11.0615C1.21447 12.5233 2.23985 13.7727 3.55544 14.6518C4.87103 15.5308 6.41775 16 8 16C10.1198 15.9937 12.1509 15.1488 13.6499 13.6499C15.1488 12.1509 15.9937 10.1198 16 8ZM8.293 11.955C8.20565 11.9153 8.13158 11.8513 8.07963 11.7706C8.02767 11.6899 8.00003 11.596 8 11.5V9H4C3.73479 9 3.48043 8.89465 3.2929 8.70711C3.10536 8.51957 3 8.26522 3 8C3 7.73479 3.10536 7.48043 3.2929 7.2929C3.48043 7.10536 3.73479 7 4 7H8V4.5C8.0001 4.40402 8.02783 4.31009 8.07987 4.22943C8.1319 4.14878 8.20606 4.08481 8.29347 4.04516C8.38089 4.00551 8.47787 3.99186 8.57283 4.00585C8.66779 4.01983 8.75673 4.06084 8.829 4.124L12.829 7.624C12.8806 7.6721 12.9218 7.7303 12.9499 7.79499C12.978 7.85968 12.9925 7.92946 12.9925 8C12.9925 8.07054 12.978 8.14033 12.9499 8.20502C12.9218 8.2697 12.8806 8.32791 12.829 8.376L8.829 11.876C8.7567 11.9393 8.66769 11.9804 8.57263 11.9944C8.47757 12.0084 8.38049 11.9947 8.293 11.955Z" fill="#252525"/>
</g>
</g>
</g>
</g>
</g>
</g>
</g>
</g>
<path d="M-510 -642H4309V-644H-510V-642ZM4310 -641V2079H4312V-641H4310ZM4309 2080H-510V2082H4309V2080ZM-511 2079V-641H-513V2079H-511ZM-510 2080C-510.552 2080 -511 2079.55 -511 2079H-513C-513 2080.66 -511.657 2082 -510 2082V2080ZM4310 2079C4310 2079.55 4309.55 2080 4309 2080V2082C4310.66 2082 4312 2080.66 4312 2079H4310ZM4309 -642C4309.55 -642 4310 -641.552 4310 -641H4312C4312 -642.657 4310.66 -644 4309 -644V-642ZM-510 -644C-511.657 -644 -513 -642.657 -513 -641H-511C-511 -641.552 -510.552 -642 -510 -642V-644Z" fill="white" fill-opacity="0.1"/>
</g>
<defs>
<filter id="filter0_b_0_1" x="-239" y="-91" width="398" height="163" filterUnits="userSpaceOnUse" color-interpolation-filters="sRGB">
<feFlood flood-opacity="0" result="BackgroundImageFix"/>
<feGaussianBlur in="BackgroundImageFix" stdDeviation="2"/>
<feComposite in2="SourceAlpha" operator="in" result="effect1_backgroundBlur_0_1"/>
<feBlend mode="normal" in="SourceGraphic" in2="effect1_backgroundBlur_0_1" result="shape"/>
</filter>
<linearGradient id="paint0_linear_0_1" x1="184.084" y1="-24.4929" x2="281.967" y2="173.941" gradientUnits="userSpaceOnUse">
<stop stop-color="#D7E0FF"/>
<stop offset="1" stop-color="white"/>
</linearGradient>
<clipPath id="clip0_0_1">
<rect width="16" height="16" fill="white"/>
</clipPath>
</defs>
</svg>
