<svg xmlns="http://www.w3.org/2000/svg" width="22" height="22" viewBox="0 0 22 22" fill="none">
  <path d="M18.7785 16.184L13.5929 10.9984L18.7785 5.81281C18.9572 5.6336 18.9572 5.34347 18.7785 5.16472L16.8338 3.22C16.655 3.04125 16.3644 3.04125 16.1856 3.22L11.0001 8.4056L5.81452 3.22C5.63532 3.04125 5.34519 3.04125 5.16644 3.22L3.22171 5.16472C3.04296 5.34393 3.04296 5.63406 3.22171 5.81281L8.40732 10.9984L3.22171 16.184C3.04296 16.3627 3.04296 16.6533 3.22171 16.8321L5.16644 18.7768C5.34565 18.9555 5.63532 18.9555 5.81452 18.7768L11.0001 13.5912L16.1856 18.7768C16.3644 18.9555 16.655 18.9555 16.8338 18.7768L18.7785 16.8321C18.9572 16.6533 18.9572 16.3627 18.7785 16.184Z" fill="#CACACA"/>
</svg>