<svg xmlns="http://www.w3.org/2000/svg" width="16" height="16" viewBox="0 0 16 16" fill="none">
  <g clip-path="url(#clip0_4012_19648)">
    <path d="M7.01621 4.0825L5.46271 0.3095C5.42496 0.217891 5.36085 0.139564 5.2785 0.0844593C5.19616 0.0293548 5.09929 -4.20573e-05 5.00021 4.51663e-08H0.500213C0.418046 -3.48755e-05 0.337137 0.0201802 0.264643 0.058857C0.192149 0.0975339 0.130304 0.153481 0.0845776 0.221748C0.0388517 0.290016 0.0106546 0.3685 0.00248045 0.450259C-0.00569364 0.532018 0.00640721 0.614531 0.0377126 0.6905L2.59421 6.9C3.09548 6.14927 3.74749 5.51108 4.50879 5.02602C5.27008 4.54095 6.124 4.21964 7.01621 4.0825Z" fill="#708BED"/>
    <path d="M15.9159 0.2215C15.8701 0.153297 15.8083 0.0974111 15.7358 0.0587794C15.6634 0.0201478 15.5825 -3.99688e-05 15.5004 5.94097e-08H11.0004C10.9013 -4.2043e-05 10.8044 0.0293548 10.7221 0.0844593C10.6397 0.139564 10.5756 0.217891 10.5379 0.3095L8.98438 4.0825C9.87659 4.21964 10.7305 4.54095 11.4918 5.02602C12.2531 5.51108 12.9051 6.14927 13.4064 6.9L15.9629 0.6905C15.9942 0.614487 16.0063 0.531921 15.9981 0.450114C15.9899 0.368308 15.9617 0.289785 15.9159 0.2215Z" fill="#708BED"/>
    <path d="M8 5C6.91221 5 5.84884 5.32257 4.94437 5.92692C4.0399 6.53126 3.33495 7.39025 2.91867 8.39524C2.50238 9.40023 2.39346 10.5061 2.60568 11.573C2.8179 12.6399 3.34173 13.6199 4.11092 14.3891C4.8801 15.1583 5.86011 15.6821 6.92701 15.8943C7.9939 16.1065 9.09977 15.9976 10.1048 15.5813C11.1098 15.1651 11.9687 14.4601 12.5731 13.5556C13.1774 12.6512 13.5 11.5878 13.5 10.5C13.4983 9.04184 12.9183 7.64389 11.8872 6.61281C10.8561 5.58174 9.45817 5.00172 8 5ZM9.6055 12.971L8 12.127L6.3945 12.971L6.701 11.183L5.401 9.9165L7.196 9.656L8 8.029L8.803 9.656L10.598 9.9165L9.298 11.183L9.6055 12.971Z" fill="#708BED"/>
  </g>
  <defs>
    <clipPath id="clip0_4012_19648">
      <rect width="16" height="16" fill="white"/>
    </clipPath>
  </defs>
</svg>