<svg width="225" height="48" viewBox="0 0 225 48" fill="none" xmlns="http://www.w3.org/2000/svg">
<path d="M1.59488 10.973L20.4534 0.626967C20.9378 0.358949 21.488 0.217773 22.0482 0.217773C22.6084 0.217773 23.1587 0.358949 23.6431 0.626967L42.5016 10.973C42.9862 11.2402 43.3885 11.624 43.6684 12.0859C43.9483 12.5478 44.0959 13.0717 44.0964 13.605V34.367C44.0959 34.9003 43.9483 35.4241 43.6684 35.886C43.3885 36.3479 42.9862 36.7317 42.5016 36.999L23.6431 47.373C23.1587 47.641 22.6084 47.7822 22.0482 47.7822C21.488 47.7822 20.9378 47.641 20.4534 47.373L1.59488 36.999C1.11033 36.7317 0.707987 36.3479 0.428102 35.886C0.148218 35.4241 0.000611681 34.9003 5.55381e-05 34.367V13.626C-0.0032665 13.0891 0.142499 12.5609 0.422576 12.095C0.702654 11.6291 1.10709 11.242 1.59488 10.973Z" fill="#7D68FE"/>
<path opacity="0.5" d="M1.59488 10.973L20.4534 0.626967C20.9378 0.358949 21.488 0.217773 22.0482 0.217773C22.6084 0.217773 23.1587 0.358949 23.6431 0.626967L42.5016 10.973C42.9862 11.2402 43.3885 11.624 43.6684 12.0859C43.9483 12.5478 44.0959 13.0717 44.0964 13.605V13.773C44.0959 14.3063 43.9483 14.8301 43.6684 15.292C43.3885 15.7539 42.9862 16.1377 42.5016 16.405L23.6431 26.821C23.1587 27.089 22.6084 27.2302 22.0482 27.2302C21.488 27.2302 20.9378 27.089 20.4534 26.821L1.59488 16.454C1.11033 16.1867 0.707987 15.8029 0.428102 15.341C0.148218 14.8791 0.000611681 14.3553 5.55381e-05 13.822V13.626C-0.0032665 13.0891 0.142499 12.5609 0.422576 12.095C0.702654 11.6291 1.10709 11.242 1.59488 10.973Z" fill="url(#paint0_linear_182_31470)"/>
<path opacity="0.5" d="M1.59482 31.5385L20.4534 21.1645C20.939 20.8999 21.4887 20.7607 22.0482 20.7607C22.6076 20.7607 23.1574 20.8999 23.643 21.1645L42.5016 31.5385C42.9861 31.8058 43.3884 32.1896 43.6683 32.6515C43.9482 33.1134 44.0958 33.6372 44.0964 34.1705V34.3665C44.0958 34.8998 43.9482 35.4237 43.6683 35.8856C43.3884 36.3475 42.9861 36.7313 42.5016 36.9985L23.643 47.3725C23.1586 47.6406 22.6084 47.7817 22.0482 47.7817C21.488 47.7817 20.9378 47.6406 20.4534 47.3725L1.59482 36.9985C1.11028 36.7313 0.707931 36.3475 0.428047 35.8856C0.148162 35.4237 0.000556143 34.8998 0 34.3665V34.1705C0.000556143 33.6372 0.148162 33.1134 0.428047 32.6515C0.707931 32.1896 1.11028 31.8058 1.59482 31.5385Z" fill="url(#paint1_linear_182_31470)"/>
<path d="M65.9534 28.9719C65.9534 29.7948 65.7403 30.5516 65.3142 31.2423C64.9027 31.933 64.2855 32.484 63.4626 32.8955C62.6543 33.307 61.6697 33.5127 60.5088 33.5127C58.7601 33.5127 57.3199 33.0865 56.1884 32.2342C55.0569 31.3819 54.4397 30.1916 54.3368 28.6633H58.3486C58.4074 29.2511 58.6131 29.714 58.9658 30.052C59.3332 30.39 59.7961 30.5589 60.3545 30.5589C60.8395 30.5589 61.2215 30.4267 61.5007 30.1622C61.78 29.8977 61.9196 29.545 61.9196 29.1041C61.9196 28.7073 61.7873 28.3767 61.5228 28.1122C61.273 27.8477 60.957 27.6346 60.5749 27.4729C60.1929 27.2966 59.6638 27.0909 58.9879 26.8557C58.0033 26.5177 57.195 26.1944 56.5631 25.8858C55.9459 25.5626 55.4096 25.0923 54.954 24.4751C54.5131 23.8432 54.2927 23.0276 54.2927 22.0283C54.2927 21.1025 54.5278 20.3016 54.9981 19.6257C55.4683 18.9497 56.1149 18.4353 56.9379 18.0827C57.7755 17.7153 58.7307 17.5316 59.8034 17.5316C61.5375 17.5316 62.9115 17.943 63.9255 18.766C64.9541 19.5889 65.5346 20.7205 65.6669 22.1606H61.5889C61.5154 21.6463 61.3244 21.2421 61.0158 20.9482C60.7219 20.6396 60.3178 20.4853 59.8034 20.4853C59.3626 20.4853 59.0025 20.6029 58.7233 20.838C58.4588 21.0731 58.3266 21.4185 58.3266 21.874C58.3266 22.2414 58.4441 22.5574 58.6793 22.8219C58.9291 23.0717 59.2377 23.2774 59.6051 23.4391C59.9724 23.6007 60.5015 23.8065 61.1921 24.0563C62.1914 24.3943 63.007 24.7323 63.6389 25.0703C64.2708 25.3936 64.8145 25.8712 65.2701 26.5031C65.7256 27.1349 65.9534 27.9579 65.9534 28.9719ZM75.1572 17.6198C77.1411 17.6198 78.7796 18.1414 80.0728 19.1848C81.3806 20.2282 82.2256 21.6389 82.6077 23.417H78.6179C78.324 22.697 77.8685 22.1312 77.2513 21.7197C76.6488 21.3083 75.9287 21.1025 75.0911 21.1025C73.9889 21.1025 73.0999 21.5067 72.4239 22.3149C71.7479 23.1231 71.4099 24.2032 71.4099 25.5552C71.4099 26.9072 71.7479 27.9873 72.4239 28.7955C73.0999 29.5891 73.9889 29.9858 75.0911 29.9858C75.9287 29.9858 76.6488 29.7801 77.2513 29.3686C77.8685 28.9572 78.324 28.3987 78.6179 27.6934H82.6077C82.2256 29.4568 81.3806 30.8675 80.0728 31.9256C78.7796 32.969 77.1411 33.4907 75.1572 33.4907C73.6436 33.4907 72.3137 33.16 71.1674 32.4987C70.0212 31.8227 69.1321 30.8822 68.5002 29.6772C67.883 28.4722 67.5744 27.0982 67.5744 25.5552C67.5744 24.0122 67.883 22.6382 68.5002 21.4332C69.1321 20.2282 70.0212 19.295 71.1674 18.6337C72.3137 17.9577 73.6436 17.6198 75.1572 17.6198ZM91.9062 24.431V26.1283H83.089V24.431H91.9062ZM100.816 21.1025C101.992 21.1025 102.984 21.3964 103.792 21.9843C104.615 22.5721 105.188 23.3583 105.511 24.3428V17.0466H107.517V33.3584H105.511V30.2724C105.188 31.257 104.615 32.0432 103.792 32.631C102.984 33.2188 101.992 33.5127 100.816 33.5127C99.7434 33.5127 98.7882 33.2629 97.9506 32.7632C97.113 32.2636 96.4517 31.5509 95.9667 30.6251C95.4965 29.6846 95.2614 28.5824 95.2614 27.3186C95.2614 26.0548 95.4965 24.9527 95.9667 24.0122C96.4517 23.0717 97.113 22.3516 97.9506 21.852C98.7882 21.3524 99.7434 21.1025 100.816 21.1025ZM101.389 22.888C100.155 22.888 99.163 23.2848 98.4135 24.0783C97.6787 24.8572 97.3114 25.9373 97.3114 27.3186C97.3114 28.7 97.6787 29.7874 98.4135 30.581C99.163 31.3598 100.155 31.7493 101.389 31.7493C102.183 31.7493 102.888 31.5656 103.505 31.1982C104.137 30.8308 104.63 30.3165 104.982 29.6552C105.335 28.9792 105.511 28.2004 105.511 27.3186C105.511 26.4369 105.335 25.6581 104.982 24.9821C104.63 24.3061 104.137 23.7918 103.505 23.4391C102.888 23.0717 102.183 22.888 101.389 22.888ZM121.841 26.6353C121.841 27.0615 121.812 27.4289 121.753 27.7375H112.076C112.12 29.1188 112.51 30.1548 113.245 30.8455C113.994 31.5362 114.905 31.8815 115.978 31.8815C116.948 31.8815 117.756 31.6391 118.403 31.1541C119.064 30.6545 119.468 29.9932 119.615 29.1702H121.753C121.606 30.0079 121.276 30.7573 120.761 31.4186C120.262 32.0799 119.608 32.5942 118.799 32.9616C117.991 33.329 117.08 33.5127 116.066 33.5127C114.905 33.5127 113.876 33.2629 112.98 32.7632C112.084 32.2636 111.378 31.5509 110.864 30.6251C110.364 29.6846 110.115 28.5824 110.115 27.3186C110.115 26.0548 110.364 24.9527 110.864 24.0122C111.378 23.0717 112.084 22.3516 112.98 21.852C113.876 21.3524 114.905 21.1025 116.066 21.1025C117.242 21.1025 118.263 21.3524 119.13 21.852C120.012 22.3516 120.68 23.0203 121.136 23.8579C121.606 24.6955 121.841 25.6213 121.841 26.6353ZM119.813 26.7676C119.857 25.8712 119.711 25.1217 119.373 24.5192C119.035 23.9167 118.572 23.4685 117.984 23.1746C117.396 22.8807 116.757 22.7337 116.066 22.7337C114.964 22.7337 114.038 23.079 113.289 23.7697C112.539 24.4457 112.135 25.445 112.076 26.7676H119.813ZM129.16 31.2202L132.907 21.2568H135.068L130.328 33.3584H127.948L123.209 21.2568H125.369L129.16 31.2202ZM152.338 28.9719C152.338 29.7948 152.125 30.5516 151.699 31.2423C151.288 31.933 150.67 32.484 149.848 32.8955C149.039 33.307 148.055 33.5127 146.894 33.5127C145.145 33.5127 143.705 33.0865 142.573 32.2342C141.442 31.3819 140.825 30.1916 140.722 28.6633H144.734C144.792 29.2511 144.998 29.714 145.351 30.052C145.718 30.39 146.181 30.5589 146.74 30.5589C147.224 30.5589 147.607 30.4267 147.886 30.1622C148.165 29.8977 148.305 29.545 148.305 29.1041C148.305 28.7073 148.172 28.3767 147.908 28.1122C147.658 27.8477 147.342 27.6346 146.96 27.4729C146.578 27.2966 146.049 27.0909 145.373 26.8557C144.388 26.5177 143.58 26.1944 142.948 25.8858C142.331 25.5626 141.795 25.0923 141.339 24.4751C140.898 23.8432 140.678 23.0276 140.678 22.0283C140.678 21.1025 140.913 20.3016 141.383 19.6257C141.853 18.9497 142.5 18.4353 143.323 18.0827C144.16 17.7153 145.116 17.5316 146.188 17.5316C147.922 17.5316 149.296 17.943 150.31 18.766C151.339 19.5889 151.92 20.7205 152.052 22.1606H147.974C147.9 21.6463 147.709 21.2421 147.401 20.9482C147.107 20.6396 146.703 20.4853 146.188 20.4853C145.748 20.4853 145.388 20.6029 145.108 20.838C144.844 21.0731 144.712 21.4185 144.712 21.874C144.712 22.2414 144.829 22.5574 145.064 22.8219C145.314 23.0717 145.623 23.2774 145.99 23.4391C146.357 23.6007 146.886 23.8065 147.577 24.0563C148.576 24.3943 149.392 24.7323 150.024 25.0703C150.656 25.3936 151.2 25.8712 151.655 26.5031C152.111 27.1349 152.338 27.9579 152.338 28.9719ZM161.388 30.1181V33.3584H159.691C158.25 33.3584 157.126 33.0057 156.318 32.3003C155.524 31.5803 155.128 30.3973 155.128 28.7514V24.2326H153.474V21.0584H155.128V18.0386H158.897V21.0584H161.366V24.2326H158.897V28.8176C158.897 29.3025 158.993 29.6405 159.184 29.8315C159.389 30.0226 159.727 30.1181 160.198 30.1181H161.388ZM175.74 21.0584V33.3584H171.949V31.1321C171.596 31.8521 171.067 32.4252 170.362 32.8514C169.671 33.2776 168.863 33.4907 167.937 33.4907C166.526 33.4907 165.402 33.0204 164.564 32.0799C163.742 31.1394 163.33 29.8462 163.33 28.2004V21.0584H167.077V27.7375C167.077 28.5751 167.29 29.229 167.717 29.6993C168.157 30.1548 168.745 30.3826 169.48 30.3826C170.244 30.3826 170.847 30.1401 171.288 29.6552C171.728 29.1702 171.949 28.4796 171.949 27.5832V21.0584H175.74ZM183.011 20.9041C183.952 20.9041 184.76 21.1172 185.436 21.5434C186.112 21.9696 186.604 22.55 186.913 23.2848V17.0466H190.682V33.3584H186.913V31.1321C186.604 31.8668 186.112 32.4473 185.436 32.8735C184.76 33.2996 183.952 33.5127 183.011 33.5127C181.997 33.5127 181.086 33.2629 180.278 32.7632C179.484 32.2489 178.852 31.5141 178.382 30.5589C177.927 29.6038 177.699 28.4869 177.699 27.2084C177.699 25.9152 177.927 24.7984 178.382 23.8579C178.852 22.9027 179.484 22.1753 180.278 21.6757C181.086 21.1613 181.997 20.9041 183.011 20.9041ZM184.223 24.2106C183.415 24.2106 182.761 24.4751 182.262 25.0041C181.777 25.5332 181.534 26.2679 181.534 27.2084C181.534 28.1489 181.777 28.8837 182.262 29.4127C182.761 29.9417 183.415 30.2063 184.223 30.2063C185.017 30.2063 185.664 29.9344 186.163 29.3907C186.678 28.8469 186.935 28.1195 186.935 27.2084C186.935 26.2826 186.678 25.5552 186.163 25.0262C185.664 24.4824 185.017 24.2106 184.223 24.2106ZM192.925 17.5977C192.925 17.0246 193.13 16.5543 193.542 16.187C193.953 15.8049 194.497 15.6138 195.173 15.6138C195.849 15.6138 196.393 15.8049 196.804 16.187C197.216 16.5543 197.421 17.0246 197.421 17.5977C197.421 18.1561 197.216 18.6264 196.804 19.0085C196.393 19.3758 195.849 19.5595 195.173 19.5595C194.497 19.5595 193.953 19.3758 193.542 19.0085C193.13 18.6264 192.925 18.1561 192.925 17.5977ZM197.047 21.0584V33.3584H193.277V21.0584H197.047ZM205.402 20.9041C206.622 20.9041 207.709 21.1613 208.665 21.6757C209.635 22.1753 210.391 22.9027 210.935 23.8579C211.493 24.8131 211.773 25.9299 211.773 27.2084C211.773 28.4869 211.493 29.6038 210.935 30.5589C210.391 31.5141 209.635 32.2489 208.665 32.7632C207.709 33.2629 206.622 33.5127 205.402 33.5127C204.183 33.5127 203.088 33.2629 202.118 32.7632C201.148 32.2489 200.384 31.5141 199.825 30.5589C199.282 29.6038 199.01 28.4869 199.01 27.2084C199.01 25.9299 199.282 24.8131 199.825 23.8579C200.384 22.9027 201.148 22.1753 202.118 21.6757C203.088 21.1613 204.183 20.9041 205.402 20.9041ZM205.402 24.1665C204.682 24.1665 204.072 24.431 203.573 24.96C203.088 25.4744 202.845 26.2238 202.845 27.2084C202.845 28.193 203.088 28.9425 203.573 29.4568C204.072 29.9711 204.682 30.2283 205.402 30.2283C206.122 30.2283 206.725 29.9711 207.21 29.4568C207.695 28.9425 207.937 28.193 207.937 27.2084C207.937 26.2238 207.695 25.4744 207.21 24.96C206.725 24.431 206.122 24.1665 205.402 24.1665Z" fill="#333333"/>
<defs>
<linearGradient id="paint0_linear_182_31470" x1="22.0482" y1="27.227" x2="22.0482" y2="0.220967" gradientUnits="userSpaceOnUse">
<stop stop-color="white"/>
<stop offset="0.01" stop-color="white" stop-opacity="0.99"/>
<stop offset="0.11" stop-color="white" stop-opacity="0.76"/>
<stop offset="0.21" stop-color="white" stop-opacity="0.56"/>
<stop offset="0.31" stop-color="white" stop-opacity="0.38"/>
<stop offset="0.41" stop-color="white" stop-opacity="0.25"/>
<stop offset="0.51" stop-color="white" stop-opacity="0.14"/>
<stop offset="0.62" stop-color="white" stop-opacity="0.06"/>
<stop offset="0.72" stop-color="white" stop-opacity="0.02"/>
<stop offset="0.83" stop-color="white" stop-opacity="0"/>
</linearGradient>
<linearGradient id="paint1_linear_182_31470" x1="22.0482" y1="47.7785" x2="22.0482" y2="20.7585" gradientUnits="userSpaceOnUse">
<stop stop-color="white"/>
<stop offset="0.34" stop-color="white" stop-opacity="0.58"/>
<stop offset="0.83" stop-color="white" stop-opacity="0"/>
</linearGradient>
</defs>
</svg>
