<svg width="14" height="14" viewBox="0 0 14 14" fill="none" xmlns="http://www.w3.org/2000/svg">
<g clip-path="url(#clip0_367_44630)">
<path d="M12.1754 7.84758C12.2231 7.56753 12.2481 7.28408 12.2501 7C12.2481 6.71592 12.2231 6.43247 12.1754 6.15242L13.4004 4.96883C13.4939 4.87845 13.5544 4.75945 13.5725 4.63073C13.5905 4.50201 13.5651 4.37095 13.5002 4.25833L12.6252 2.74167C12.5594 2.62947 12.4583 2.54223 12.3377 2.49358C12.217 2.44493 12.0837 2.4376 11.9584 2.47275L10.3251 2.93942C9.88289 2.57922 9.38503 2.29335 8.85103 2.093L8.44095 0.442167C8.40946 0.315915 8.33666 0.203815 8.23413 0.123696C8.13161 0.0435758 8.00523 3.59467e-05 7.87511 0H6.12511C5.99499 3.59467e-05 5.86862 0.0435758 5.76609 0.123696C5.66357 0.203815 5.59077 0.315915 5.55928 0.442167L5.14686 2.093C4.61368 2.29358 4.11663 2.57944 3.67511 2.93942L2.04178 2.47275C1.91655 2.43771 1.78324 2.44508 1.66263 2.49372C1.54203 2.54236 1.44091 2.62954 1.37503 2.74167L0.500031 4.25833C0.434977 4.37101 0.409458 4.5022 0.427532 4.63104C0.445606 4.75989 0.506236 4.87899 0.599781 4.96942L1.82478 6.153C1.77712 6.43286 1.75215 6.71612 1.75011 7C1.75211 7.28408 1.77708 7.56753 1.82478 7.84758L0.599781 9.03117C0.506373 9.12155 0.445828 9.24055 0.427757 9.36927C0.409686 9.49799 0.435123 9.62905 0.500031 9.74167L1.37503 11.2583C1.42628 11.3471 1.50001 11.4208 1.58879 11.472C1.67758 11.5232 1.77829 11.5501 1.88078 11.55C1.935 11.5498 1.98895 11.5423 2.0412 11.5278L3.67453 11.0612C4.11675 11.4214 4.61461 11.7072 5.14861 11.9076L5.56103 13.5584C5.59256 13.6843 5.66514 13.796 5.7673 13.876C5.86946 13.956 5.99537 13.9996 6.12511 14H7.87511C8.00523 14 8.13161 13.9564 8.23413 13.8763C8.33666 13.7962 8.40946 13.6841 8.44095 13.5578L8.85336 11.907C9.38655 11.7064 9.8836 11.4206 10.3251 11.0606L11.9584 11.5272C12.0107 11.5417 12.0646 11.5492 12.1189 11.5494C12.2214 11.5495 12.3221 11.5226 12.4109 11.4714C12.4996 11.4202 12.5734 11.3465 12.6246 11.2577L13.4996 9.74108C13.5647 9.62841 13.5902 9.49722 13.5721 9.36837C13.554 9.23953 13.4934 9.12043 13.3999 9.03L12.1754 7.84758ZM7.00011 9.33333C6.53862 9.33333 6.0875 9.19649 5.70378 8.94009C5.32007 8.68371 5.021 8.31929 4.8444 7.89293C4.66779 7.46657 4.62158 6.99741 4.71162 6.54479C4.80165 6.09217 5.02388 5.67641 5.3502 5.35008C5.67652 5.02376 6.09228 4.80153 6.5449 4.7115C6.99753 4.62147 7.46668 4.66768 7.89304 4.84428C8.3194 5.02088 8.68382 5.31995 8.94021 5.70367C9.1966 6.08738 9.33345 6.53851 9.33345 7C9.33345 7.61884 9.08762 8.21233 8.65003 8.64992C8.21245 9.0875 7.61895 9.33333 7.00011 9.33333Z" fill="#495BFD"/>
</g>
<defs>
<clipPath id="clip0_367_44630">
<rect width="14" height="14" fill="white"/>
</clipPath>
</defs>
</svg>
