<svg xmlns="http://www.w3.org/2000/svg" width="24" height="24" viewBox="0 0 24 24" fill="none">
  <g clip-path="url(#clip0_3729_16551)">
    <path d="M23 8.99997H15.095L12.476 0.846981C12.39 0.584481 12.107 0.441983 11.845 0.527981C11.694 0.577481 11.5755 0.695981 11.526 0.846981L8.905 8.99997H1C0.724 8.99997 0.5 9.22397 0.5 9.49997C0.5 9.65497 0.5715 9.80097 0.694 9.89547L7 14.777L4.376 22.8455C4.2905 23.108 4.4345 23.39 4.697 23.4755C4.8495 23.525 5.016 23.4985 5.1455 23.4045L12 18.425L18.8545 23.4045C19.078 23.567 19.3905 23.5175 19.553 23.294C19.647 23.1645 19.6735 22.9975 19.624 22.8455L17 14.777L23.304 9.89547C23.5225 9.72647 23.5625 9.41247 23.3935 9.19397C23.299 9.07197 23.154 9.00047 23 8.99997Z" fill="url(#paint0_linear_3729_16551)"/>
  </g>
  <defs>
    <linearGradient id="paint0_linear_3729_16551" x1="11.999" y1="0.502931" x2="11.999" y2="23.5002" gradientUnits="userSpaceOnUse">
      <stop stop-color="#FFD36E"/>
      <stop offset="1" stop-color="#F6B828"/>
    </linearGradient>
    <clipPath id="clip0_3729_16551">
      <rect width="24" height="24" fill="white"/>
    </clipPath>
  </defs>
</svg>