<svg width="246" height="267" viewBox="0 0 246 267" fill="none" xmlns="http://www.w3.org/2000/svg">
<g clip-path="url(#clip0_6304_16671)">
<path d="M199.298 82.3006L214.533 73.462C205.935 68.5096 198.18 68.0453 192.557 71.3125L177.339 80.1512C182.962 76.8839 190.734 77.3482 199.315 82.3006H199.298Z" fill="url(#paint0_linear_6304_16671)"/>
<path d="M199.298 82.2957L214.533 73.457C231.592 83.2931 245.366 107.161 245.297 126.764C245.297 136.497 241.858 143.341 236.303 146.557L221.085 155.395C226.622 152.18 230.061 145.336 230.096 135.603C230.13 116 216.356 92.1489 199.298 82.2957Z" fill="url(#paint1_linear_6304_16671)"/>
<path d="M199.298 82.3012C216.356 92.1545 230.13 116.005 230.079 135.608C230.027 155.212 216.15 163.122 199.126 153.251C182.102 143.381 168.294 119.547 168.363 99.9442C168.431 80.3409 182.24 72.4652 199.298 82.3012Z" fill="url(#paint2_linear_6304_16671)"/>
<path d="M197.905 92.2549C185.3 84.9639 174.983 90.8276 174.983 105.358C174.983 119.889 185.163 137.583 197.802 144.909C210.441 152.234 220.724 146.353 220.775 131.823C220.827 117.292 210.544 99.5631 197.905 92.2549Z" fill="url(#paint3_linear_6304_16671)"/>
<path d="M204.405 57.001L184.234 45.2734C184.372 45.7205 188.155 58.2735 189.496 80.0263C196.705 83.0702 203.486 87.0415 209.667 91.8398C208.343 70.0355 204.525 57.4481 204.405 57.001Z" fill="#919BBD"/>
<path d="M187.347 31.7784L167.176 20.0508C175.447 24.8656 181.483 33.3776 184.234 45.2771L204.405 57.0047C201.654 45.0879 195.618 36.576 187.347 31.7784Z" fill="#919BBD"/>
<path d="M158.148 14.2207C168.793 11.1771 178.887 10.8847 187.674 13.5329C201.981 17.8147 212.057 29.6798 216.098 46.9272C218.936 57.6168 220.71 68.5607 221.395 79.5994C221.395 80.3216 221.997 80.2528 221.721 80.975C215.995 83.2621 209.684 91.6365 209.684 91.6365C208.343 69.9869 204.526 57.4855 204.44 57.0384C199.023 33.5832 180.795 23.2657 158.011 28.6308C157.994 23.7988 158.045 19.0184 158.148 14.2207Z" fill="#A5B0D6"/>
<path d="M210.754 164.69C223.753 157.137 223.719 132.821 210.679 110.379C197.638 87.9376 176.529 75.8681 163.531 83.4213C150.532 90.9746 150.566 115.29 163.607 137.732C176.647 160.173 197.756 172.243 210.754 164.69Z" fill="#45414A"/>
<path d="M172.662 78.1053C178.714 74.6662 187.106 75.0789 196.375 80.4268C214.791 91.0538 229.666 116.83 229.614 137.981C229.614 148.488 225.865 155.899 219.881 159.373L210.75 164.669C216.734 161.23 220.449 153.801 220.483 143.295C220.483 122.127 205.66 96.3673 187.244 85.7231C177.975 80.3752 169.583 79.8765 163.531 83.4017L172.662 78.1053Z" fill="url(#paint4_linear_6304_16671)"/>
<path d="M209.65 201.186L206.211 196.801C207.63 198.649 209.157 200.412 210.785 202.08L212.728 204.883C211.625 203.716 210.597 202.482 209.65 201.186Z" fill="#61A2F7"/>
<path d="M159.283 198.3L133.988 183.615C131.352 182.074 128.855 180.308 126.525 178.336L151.82 192.97C154.138 194.973 156.636 196.758 159.283 198.3Z" fill="#61A2F7"/>
<path d="M184.458 205.986L177.58 204.817C168.077 203.279 159.172 199.184 151.82 192.969L158.337 193.811C165.777 200.167 174.807 204.376 184.458 205.986Z" fill="#3B8CF7"/>
<path d="M153.385 26.3246L160.108 27.5111C147.194 25.2412 130.979 28.8008 113.404 38.9635L107.609 37.5535C124.874 27.5971 140.746 24.1063 153.385 26.3246Z" fill="#61A2F7"/>
<path opacity="0.6" d="M171.939 31.7253L197.217 46.4277C183.202 38.2769 162.172 40.0997 138.751 53.65L113.473 38.9647C136.877 25.3972 157.925 23.5917 171.939 31.7253Z" fill="#A3ACFF"/>
<path opacity="0.1" d="M205.815 53.6827C207.26 55.4023 208.721 57.1218 210.166 58.9618C197.544 43.7263 172.902 42.5913 144.495 58.9618L138.682 53.6827C167.64 36.9339 192.867 38.0688 205.815 53.6827Z" fill="#96A0FF"/>
<path d="M46.6847 186.677C45.2402 184.958 43.7785 183.152 42.3341 181.398C36.6251 174.52 33.3923 164.77 33.3579 152.457C33.2203 112.907 66.3739 61.3194 107.61 37.5547L113.405 38.9647C71.3263 63.2453 37.4161 116.019 37.4161 156.86C37.4161 169.533 40.8553 179.592 46.6847 186.677Z" fill="#61A2F7"/>
<path opacity="0.6" d="M80.5605 208.653L55.2826 193.95C44.1913 187.502 37.4161 174.828 37.4161 156.859C37.313 116.07 71.3091 63.2962 113.387 39.0156L138.683 53.6837C96.6215 77.9814 62.6081 130.738 62.7284 171.544C62.78 189.531 69.4864 202.204 80.5605 208.653Z" fill="#A3ACFF"/>
<path d="M144.495 58.9953C185.765 35.2134 219.056 48.3339 219.142 87.9187C219.142 108.76 210.062 132.886 194.586 155.705L195.222 160.864C197.681 180.622 204.663 196.476 212.814 204.799L215.754 203.716C193.296 209.958 173.401 206.518 158.337 193.794C154.014 196.998 149.531 199.982 144.907 202.735C103.637 226.517 70.3461 213.397 70.2429 173.795C70.1397 134.193 103.259 82.8115 144.495 58.9953Z" fill="#495BFD"/>
<path d="M174.192 129.566L167.744 133.194C167.007 135.983 166.065 138.714 164.923 141.362L168.363 146.04C166.027 150.85 163.222 155.417 159.988 159.676L155.053 157.681C152.978 160.229 150.676 162.583 148.175 164.714L147.126 172.814C145.35 174.183 143.482 175.43 141.537 176.545C139.754 177.596 137.891 178.504 135.966 179.262L134.848 172.384C132.627 173.091 130.296 173.388 127.969 173.261L123.12 180.93C119.99 180.449 117.064 179.076 114.694 176.975L118.133 168.377C116.907 166.924 115.936 165.272 115.262 163.494L108.813 167.294C107.85 163.94 107.375 160.465 107.403 156.976C107.403 156.151 107.403 155.257 107.403 154.483L113.835 148.155C114.097 146.116 114.482 144.095 114.987 142.102L109.965 140.262C111.619 134.802 113.862 129.537 116.655 124.562L123.051 123.634C123.946 122.241 124.874 120.865 125.837 119.558L124.616 112.817C128.086 108.511 132.077 104.652 136.499 101.331L139.817 106.145C140.316 105.819 140.815 105.509 141.331 105.217C141.847 104.924 142.328 104.666 142.827 104.409L146.111 95.8106C149.856 94.1509 153.936 93.3856 158.028 93.5752L156.893 101.829C157.856 102.003 158.797 102.285 159.696 102.672L166.076 96.2233C169.045 98.1513 171.393 100.899 172.833 104.133L167.829 111.786C168.386 113.299 168.784 114.867 169.016 116.463L175.447 115.38C175.447 116.171 175.533 116.962 175.55 117.787C175.516 121.75 175.061 125.699 174.192 129.566Z" fill="#6675FF"/>
<path opacity="0.1" d="M99.1149 214.051L92.3913 212.865C74.4045 209.718 62.7973 195.256 62.7285 171.595C62.6081 130.789 96.6215 78.0321 138.683 53.7344L144.495 59.0823C103.225 82.8985 70.1227 134.4 70.243 173.968C70.2946 196.907 81.5923 210.973 99.1149 214.051Z" fill="#96A0FF"/>
<path d="M73.3531 246.448C86.3517 238.894 86.3178 214.579 73.2774 192.137C60.237 169.695 39.1283 157.626 26.1297 165.179C13.1311 172.732 13.165 197.048 26.2054 219.49C39.2458 241.931 60.3545 254.001 73.3531 246.448Z" fill="#4D4852"/>
<path d="M35.2495 159.851C41.3197 156.412 49.7113 156.825 58.9798 162.173C77.3966 172.8 92.271 198.576 92.2194 219.727C92.2194 230.251 88.4707 237.645 82.4865 241.119L73.3555 246.433C79.3397 242.993 83.054 235.548 83.0884 225.041C83.0884 203.89 68.2656 178.113 49.8488 167.486C40.5803 162.121 32.1887 161.64 26.1185 165.148L35.2495 159.851Z" fill="url(#paint5_linear_6304_16671)"/>
<path d="M31.7072 180.109L46.9083 171.271C38.3104 166.318 30.5551 165.854 24.9492 169.121L9.7309 177.96C15.3367 174.693 23.1265 175.157 31.7072 180.109Z" fill="#BFC0E3"/>
<path d="M31.7072 180.112L46.9083 171.273C63.9666 181.127 77.7405 204.977 77.689 224.581C77.689 234.313 74.2498 241.157 68.6783 244.373L53.46 253.16C59.0142 249.944 62.4362 243.101 62.4706 233.368C62.5222 213.816 48.7483 189.965 31.7072 180.112Z" fill="url(#paint6_linear_6304_16671)"/>
<path d="M31.7071 180.11C48.7482 189.963 62.5221 213.814 62.4705 233.417C62.4189 253.02 48.559 260.93 31.518 251.06C14.4769 241.189 0.6858 217.356 0.737388 197.753C0.788975 178.149 14.6488 170.274 31.7071 180.11Z" fill="url(#paint7_linear_6304_16671)"/>
<path d="M31.6727 186.728C45.5498 194.724 56.7615 214.156 56.7271 230.096C56.6927 246.037 45.395 252.451 31.518 244.455C17.6409 236.459 6.46362 217.044 6.46362 201.087C6.46362 185.129 17.8129 178.715 31.6727 186.728Z" fill="#495BFD"/>
<path d="M46.4342 244.31C55.3599 239.123 55.3354 222.424 46.3794 207.012C37.4233 191.599 22.9273 183.309 14.0016 188.496C5.07583 193.682 5.10038 210.381 14.0564 225.794C23.0124 241.207 37.5084 249.497 46.4342 244.31Z" fill="#EDEAFB"/>
<path d="M167.503 1.80273C170.359 2.65433 173.106 3.83743 175.688 5.32788L195.841 17.0555C193.271 15.555 190.528 14.3714 187.673 13.5303C173.556 9.28293 156.016 12.5845 138.321 22.7989L118.237 11.0885C135.862 0.85696 153.385 -2.42744 167.503 1.80273Z" fill="url(#paint8_linear_6304_16671)"/>
<path d="M138.321 22.7963L118.151 11.0859L93.0103 25.582L113.181 37.3096L138.321 22.7963Z" fill="#EEEBFC"/>
<path d="M113.181 37.3119L93.0103 25.6016C82.3911 31.8672 72.6969 39.5821 64.2072 48.5236C50.6452 62.7435 39.4779 79.0677 31.1397 96.8612C22.9847 113.667 17.8452 131.774 15.9557 150.357C15.0787 160.675 13.6343 178.404 13.5655 180.691C13.5655 181.035 13.5655 185.162 13.5655 185.162L15.0443 187.896L33.7706 192.367C33.3235 195.445 35.0775 173.83 36.0921 162.068C37.9862 143.485 43.1253 125.379 51.276 108.572C59.6145 90.7834 70.7819 74.4649 84.3436 60.2512C92.8481 51.307 102.553 43.5869 113.181 37.3119Z" fill="url(#paint9_linear_6304_16671)"/>
<path d="M36.1265 162.104C38.0206 143.521 43.1598 125.415 51.3104 108.608C59.6489 90.8195 70.8164 74.501 84.3781 60.2873C92.8697 51.3334 102.563 43.6018 113.181 37.3136L138.321 22.7316C156.016 12.5172 173.556 9.21561 187.674 13.463C192.56 14.9437 197.104 17.3776 201.044 20.6242C204.984 23.8708 208.242 27.8658 210.63 32.3784L199.264 43.7449C188.103 24.9154 164.476 21.4934 138.356 36.5742L113.233 51.0875C104.244 56.404 96.0377 62.9436 88.849 70.5188C66.288 93.8536 50.6914 126.852 48.112 156.618C47.7681 160.591 47.3382 165.698 46.9083 171.201C46.3064 178.973 37.7773 191.027 37.7773 191.027L33.8051 192.334C34.149 179.627 35.1119 173.866 36.1265 162.104Z" fill="url(#paint10_linear_6304_16671)"/>
<path d="M188.877 234.98C185.52 235.005 182.214 234.158 179.282 232.521L177.064 231.266L180.262 225.66L182.463 226.915C184.42 228.031 186.634 228.618 188.886 228.618C191.138 228.618 193.352 228.031 195.309 226.915L215.445 215.394C228.153 208.12 235.736 192.317 233.862 176.944L229.099 148.433L235.444 147.367L240.327 175.964C242.511 193.968 233.621 212.385 218.729 220.914L198.507 232.521C195.567 234.167 192.247 235.015 188.877 234.98Z" fill="#DEE0F1"/>
<path d="M193.709 231.728C193.606 237.093 181.294 241.203 171.63 241.014C170.218 240.99 168.81 240.863 167.417 240.636C166.111 240.44 164.842 240.052 163.651 239.484C160.401 237.902 159.369 235.185 159.438 231.78C159.366 230.2 159.685 228.627 160.366 227.199C161.047 225.771 162.069 224.534 163.341 223.595C164.419 222.873 165.62 222.354 166.884 222.064C168.573 221.665 170.308 221.497 172.042 221.566C181.689 221.755 193.898 226.346 193.709 231.728Z" fill="#5B545F"/>
<path d="M169.085 237.682C168.682 238.778 168.101 239.801 167.365 240.708C166.06 240.513 164.791 240.124 163.599 239.556C160.349 237.974 159.318 235.257 159.386 231.852C159.315 230.272 159.634 228.699 160.314 227.272C160.995 225.844 162.017 224.606 163.29 223.667C164.368 222.945 165.568 222.427 166.832 222.137C167.183 222.395 167.496 222.702 167.761 223.048C170.34 226.126 170.908 232.678 169.085 237.682Z" fill="#4D4852"/>
<path d="M181.638 118.34L173.883 113.835L180.314 112.734L188.069 117.24L181.638 118.34Z" fill="#D8E3E3"/>
<path d="M148.605 181.173L140.849 176.668L139.749 169.824L147.504 174.33L148.605 181.173Z" fill="#B8C9D6"/>
<path d="M156.274 117.719L164.029 122.224C166.54 123.686 168.105 126.798 168.122 131.235C168.122 140.142 161.88 150.993 154.125 155.464L146.369 150.958C154.125 146.487 160.384 135.637 160.367 126.729C160.35 122.293 158.785 119.18 156.274 117.719Z" fill="#D8E3E3"/>
<mask id="mask0_6304_16671" style="mask-type:luminance" maskUnits="userSpaceOnUse" x="146" y="117" width="23" height="39">
<path d="M156.274 117.719L164.029 122.224C166.54 123.686 168.105 126.798 168.122 131.235C168.122 140.142 161.88 150.993 154.125 155.464L146.369 150.958C154.125 146.487 160.384 135.637 160.367 126.729C160.35 122.293 158.785 119.18 156.274 117.719Z" fill="white"/>
</mask>
<g mask="url(#mask0_6304_16671)">
<path d="M154.125 155.464L146.369 150.958C154.125 146.487 160.384 135.637 160.367 126.729C160.367 122.293 158.785 119.18 156.274 117.719L164.029 122.224C166.54 123.686 168.105 126.798 168.122 131.235C168.122 140.142 161.88 150.993 154.125 155.464Z" fill="#D8E3E3"/>
</g>
<path d="M144.134 156.45L136.378 151.945C138.94 153.424 142.466 153.218 146.369 150.965L154.124 155.47C150.221 157.723 146.679 157.929 144.134 156.45Z" fill="#D8E3E3"/>
<mask id="mask1_6304_16671" style="mask-type:luminance" maskUnits="userSpaceOnUse" x="136" y="150" width="19" height="8">
<path d="M144.134 156.45L136.378 151.945C138.94 153.424 142.466 153.218 146.369 150.965L154.124 155.47C150.221 157.723 146.679 157.929 144.134 156.45Z" fill="white"/>
</mask>
<g mask="url(#mask1_6304_16671)">
<path d="M144.134 156.45L136.378 151.945C138.94 153.424 142.466 153.218 146.369 150.965L154.124 155.47C150.221 157.723 146.679 157.929 144.134 156.45Z" fill="#D8E3E3"/>
</g>
<path d="M172.3 104.551L160.728 97.8106L170.925 93.5977L178.68 98.103L172.3 104.551Z" fill="#D8E3E3"/>
<path d="M129.964 180.934L122.209 176.428C121.262 175.886 120.375 175.246 119.561 174.52L127.316 179.025C128.127 179.756 129.015 180.396 129.964 180.934Z" fill="#B8C9D6"/>
<mask id="mask2_6304_16671" style="mask-type:luminance" maskUnits="userSpaceOnUse" x="119" y="174" width="11" height="7">
<path d="M129.964 180.93L122.209 176.424C121.262 175.882 120.375 175.243 119.561 174.516L127.316 179.021C128.127 179.752 129.015 180.392 129.964 180.93Z" fill="white"/>
</mask>
<g mask="url(#mask2_6304_16671)">
<path d="M129.964 180.93L122.209 176.424C121.262 175.882 120.375 175.243 119.561 174.516L127.316 179.021C128.127 179.752 129.015 180.392 129.964 180.93Z" fill="#D8E3E3"/>
</g>
<path d="M169.498 103.713L157.925 96.9727C158.887 97.16 159.826 97.4482 160.728 97.8324L172.301 104.556C171.402 104.167 170.461 103.884 169.498 103.713Z" fill="#D8E3E3"/>
<mask id="mask3_6304_16671" style="mask-type:luminance" maskUnits="userSpaceOnUse" x="157" y="96" width="16" height="9">
<path d="M169.498 103.71L157.925 96.9688C158.887 97.1561 159.826 97.4443 160.728 97.8285L172.301 104.552C171.402 104.163 170.461 103.881 169.498 103.71Z" fill="white"/>
</mask>
<g mask="url(#mask3_6304_16671)">
<path d="M169.498 103.71L157.925 96.9688C158.887 97.1561 159.826 97.4443 160.728 97.8285L172.301 104.552C171.402 104.163 170.461 103.881 169.498 103.71Z" fill="#D8E3E3"/>
</g>
<path d="M127.316 178.942L119.561 174.437L119.131 163.586L130.721 170.327L127.316 178.942Z" fill="#CAD8E3"/>
<path d="M130.721 170.326L119.148 163.586C117.979 162.244 120.868 162.829 120.111 160.938L127.866 165.46C128.544 167.228 129.508 168.873 130.721 170.326Z" fill="#D8E3E3"/>
<mask id="mask4_6304_16671" style="mask-type:luminance" maskUnits="userSpaceOnUse" x="118" y="160" width="13" height="11">
<path d="M130.721 170.323L119.148 163.582C117.979 162.24 120.868 162.825 120.111 160.934L127.866 165.456C128.543 167.224 129.508 168.869 130.721 170.323Z" fill="white"/>
</mask>
<g mask="url(#mask4_6304_16671)">
<path d="M130.721 170.323L119.148 163.582C117.979 162.24 120.868 162.825 120.111 160.934L127.866 165.456C128.542 167.23 129.506 168.881 130.721 170.34V170.323Z" fill="#B8C9D6"/>
</g>
<path d="M155.5 106.427L147.745 101.921L151.012 93.2891L158.767 97.7944L155.5 106.427Z" fill="#B8C9D6"/>
<path d="M158.784 97.8105L151.029 93.2364C154.779 91.5956 158.858 90.848 162.946 91.0526L170.684 95.5579C166.596 95.3751 162.522 96.1463 158.784 97.8105Z" fill="#D8E3E3"/>
<mask id="mask5_6304_16671" style="mask-type:luminance" maskUnits="userSpaceOnUse" x="151" y="91" width="20" height="7">
<path d="M158.785 97.8144L151.029 93.2403C154.779 91.5995 158.858 90.8519 162.946 91.0565L170.684 95.5618C166.597 95.379 162.523 96.1502 158.785 97.8144Z" fill="white"/>
</mask>
<g mask="url(#mask5_6304_16671)">
<path d="M158.785 97.8144L151.029 93.2403C154.779 91.5995 158.858 90.8519 162.946 91.0565L170.684 95.5618C166.597 95.379 162.523 96.1502 158.785 97.8144Z" fill="#E2EDED"/>
</g>
<path d="M152.474 108.181L144.718 103.676C145.217 103.349 145.733 103.04 146.232 102.747L147.745 101.922L155.5 106.427L153.987 107.253C153.488 107.545 152.972 107.854 152.474 108.181Z" fill="#D8E3E3"/>
<mask id="mask6_6304_16671" style="mask-type:luminance" maskUnits="userSpaceOnUse" x="144" y="101" width="12" height="8">
<path d="M152.474 108.181L144.718 103.676C145.217 103.349 145.733 103.04 146.232 102.747L147.745 101.922L155.5 106.427L153.987 107.253C153.488 107.545 152.972 107.854 152.474 108.181Z" fill="white"/>
</mask>
<g mask="url(#mask6_6304_16671)">
<path d="M152.474 108.181L144.718 103.676C145.217 103.349 145.733 103.04 146.232 102.747L147.745 101.922L155.5 106.427L153.987 107.253C153.488 107.545 152.972 107.854 152.474 108.181Z" fill="#D8E3E3"/>
</g>
<path d="M126.508 150.188L118.753 145.683C119.023 143.653 119.426 141.642 119.956 139.664L127.694 144.169C127.177 146.15 126.781 148.16 126.508 150.188Z" fill="#D8E3E3"/>
<mask id="mask7_6304_16671" style="mask-type:luminance" maskUnits="userSpaceOnUse" x="118" y="139" width="10" height="12">
<path d="M126.508 150.184L118.753 145.679C119.023 143.649 119.426 141.638 119.956 139.66L127.694 144.165C127.177 146.146 126.781 148.156 126.508 150.184Z" fill="white"/>
</mask>
<g mask="url(#mask7_6304_16671)">
<path d="M126.508 150.184L118.753 145.679C119.023 143.649 119.426 141.638 119.956 139.66L127.694 144.165C127.193 146.158 126.814 148.18 126.559 150.218L126.508 150.184Z" fill="#B8C9D6"/>
</g>
<path d="M121.418 169.244L113.663 164.738C112.7 161.385 112.225 157.91 112.253 154.421C112.253 153.595 112.253 152.701 112.253 151.91L120.008 156.433C120.008 157.275 120.008 158.152 120.008 158.926C119.98 162.415 120.455 165.89 121.418 169.244Z" fill="#D8E3E3"/>
<mask id="mask8_6304_16671" style="mask-type:luminance" maskUnits="userSpaceOnUse" x="112" y="151" width="10" height="19">
<path d="M121.418 169.247L113.663 164.742C112.699 161.389 112.224 157.914 112.253 154.425C112.253 153.599 112.253 152.705 112.253 151.914L120.008 156.437C120.008 157.279 120.008 158.156 120.008 158.93C119.98 162.419 120.455 165.894 121.418 169.247Z" fill="white"/>
</mask>
<g mask="url(#mask8_6304_16671)">
<path d="M121.418 169.247L113.663 164.742C112.699 161.389 112.224 157.914 112.253 154.425C112.253 153.599 112.253 152.705 112.253 151.914L120.008 156.437C120.008 157.279 120.008 158.156 120.008 158.93C119.988 162.39 120.463 165.836 121.418 169.161V169.247Z" fill="#B8C9D6"/>
</g>
<path d="M120.077 156.497L112.321 151.992L118.735 145.664L126.491 150.169L120.077 156.497Z" fill="#CAD8E3"/>
<path d="M135.725 125.671L127.969 121.165C128.846 119.772 129.792 118.397 130.755 117.09L138.511 121.595C137.53 122.902 136.602 124.278 135.725 125.671Z" fill="#D8E3E3"/>
<mask id="mask9_6304_16671" style="mask-type:luminance" maskUnits="userSpaceOnUse" x="127" y="117" width="12" height="9">
<path d="M135.725 125.671L127.97 121.165C128.847 119.772 129.792 118.397 130.755 117.09L138.511 121.595C137.531 122.902 136.602 124.278 135.725 125.671Z" fill="white"/>
</mask>
<g mask="url(#mask9_6304_16671)">
<path d="M135.725 125.671L127.97 121.165C128.847 119.772 129.792 118.397 130.755 117.09L138.511 121.595C137.531 122.902 136.602 124.278 135.725 125.671Z" fill="#D8E3E3"/>
</g>
<path d="M138.493 121.59L130.738 117.085L129.517 110.344L137.273 114.849L138.493 121.59Z" fill="#B8C9D6"/>
<path d="M137.29 114.849L129.534 110.43C133.003 106.123 136.988 102.259 141.4 98.9258L149.189 103.345C144.765 106.676 140.768 110.54 137.29 114.849Z" fill="#D8E3E3"/>
<mask id="mask10_6304_16671" style="mask-type:luminance" maskUnits="userSpaceOnUse" x="129" y="98" width="21" height="17">
<path d="M137.29 114.853L129.534 110.434C133.002 106.127 136.987 102.263 141.399 98.9297L149.189 103.349C144.765 106.68 140.768 110.544 137.29 114.853Z" fill="white"/>
</mask>
<g mask="url(#mask10_6304_16671)">
<path d="M137.29 114.853L129.534 110.434C133.002 106.127 136.987 102.263 141.399 98.9297L149.189 103.349C144.777 106.682 140.792 110.546 137.324 114.853H137.29Z" fill="#E2EDED"/>
</g>
<path d="M122.622 142.299L114.798 137.794C116.462 132.334 118.71 127.07 121.504 122.094L129.259 126.599C126.489 131.579 124.264 136.842 122.622 142.299Z" fill="#D8E3E3"/>
<mask id="mask11_6304_16671" style="mask-type:luminance" maskUnits="userSpaceOnUse" x="114" y="122" width="16" height="21">
<path d="M122.622 142.299L114.798 137.794C116.462 132.334 118.71 127.07 121.504 122.094L129.259 126.599C126.489 131.579 124.264 136.842 122.622 142.299Z" fill="white"/>
</mask>
<g mask="url(#mask11_6304_16671)">
<path d="M122.622 142.299L114.798 137.794C116.462 132.334 118.71 127.07 121.504 122.094L129.259 126.599C126.466 131.576 124.217 136.84 122.553 142.299H122.622Z" fill="#D8E3E3"/>
</g>
<path d="M186.797 131.498L180.365 135.126C179.629 137.915 178.687 140.645 177.545 143.294L180.985 147.971C178.645 152.779 175.84 157.346 172.61 161.608L167.675 159.613C165.591 162.153 163.29 164.506 160.797 166.646L159.748 174.728C157.976 176.109 156.108 177.361 154.159 178.477C152.376 179.533 150.506 180.436 148.57 181.176L147.47 174.298C145.249 175.004 142.918 175.301 140.591 175.175L135.691 182.862C132.562 182.373 129.639 181.001 127.265 178.907L130.704 170.309C129.499 168.859 128.54 167.22 127.867 165.459L121.418 169.26C120.463 165.934 119.988 162.488 120.008 159.028C120.008 158.203 120.008 157.309 120.008 156.535L126.439 150.207C126.694 148.168 127.073 146.147 127.574 144.154L122.553 142.314C124.217 136.855 126.466 131.591 129.259 126.614L135.656 125.685C136.533 124.293 137.462 122.917 138.442 121.61L137.221 114.869C140.689 110.562 144.674 106.699 149.086 103.365L152.405 108.197C152.904 107.871 153.42 107.561 153.918 107.269L155.432 106.443L158.716 97.8454C162.454 96.1812 166.528 95.4099 170.615 95.5927L169.429 103.744C170.393 103.915 171.333 104.197 172.232 104.586L178.611 98.1377C181.587 100.065 183.94 102.812 185.387 106.048L180.383 113.683C180.939 115.202 181.337 116.776 181.569 118.377L188 117.294C188 118.068 188.086 118.876 188.086 119.701C188.093 123.669 187.661 127.625 186.797 131.498ZM154.125 155.469C161.88 150.998 168.139 140.147 168.122 131.24C168.105 122.332 161.794 118.721 154.039 123.209C146.283 127.697 140.007 138.531 140.041 147.455C140.076 156.38 146.386 159.94 154.125 155.469Z" fill="#FEFFFF"/>
<path d="M129.328 126.594L121.573 122.089L127.97 121.16L135.725 125.665L129.328 126.594Z" fill="#E2EDED"/>
<path d="M166.574 235.96C166.372 236.727 166.006 237.44 165.501 238.052C164.996 238.663 164.365 239.158 163.651 239.502C160.401 237.92 159.369 235.203 159.438 231.798C159.366 230.219 159.685 228.645 160.366 227.218C161.047 225.79 162.069 224.552 163.341 223.613C163.792 223.637 164.231 223.764 164.625 223.985C165.018 224.205 165.356 224.514 165.611 224.886C167.52 227.259 167.95 232.211 166.574 235.96Z" fill="#45414A"/>
</g>
<defs>
<linearGradient id="paint0_linear_6304_16671" x1="177.322" y1="75.7662" x2="214.516" y2="75.7662" gradientUnits="userSpaceOnUse">
<stop offset="0.14" stop-color="#AABBD6"/>
<stop offset="0.2" stop-color="#AEBDD8"/>
<stop offset="0.71" stop-color="#CCCDE8"/>
<stop offset="1" stop-color="#D7D3EE"/>
</linearGradient>
<linearGradient id="paint1_linear_6304_16671" x1="239.536" y1="144.717" x2="202.427" y2="80.4213" gradientUnits="userSpaceOnUse">
<stop offset="0.14" stop-color="#AABBD6"/>
<stop offset="0.2" stop-color="#AEBDD8"/>
<stop offset="0.71" stop-color="#CCCDE8"/>
<stop offset="1" stop-color="#D7D3EE"/>
</linearGradient>
<linearGradient id="paint2_linear_6304_16671" x1="220.948" y1="155.47" x2="177.425" y2="80.083" gradientUnits="userSpaceOnUse">
<stop offset="0.14" stop-color="#AABBD6"/>
<stop offset="0.2" stop-color="#AEBDD8"/>
<stop offset="0.71" stop-color="#CCCDE8"/>
<stop offset="1" stop-color="#D7D3EE"/>
</linearGradient>
<linearGradient id="paint3_linear_6304_16671" x1="174.931" y1="118.565" x2="220.724" y2="118.565" gradientUnits="userSpaceOnUse">
<stop offset="0.14" stop-color="#AABBD6"/>
<stop offset="0.2" stop-color="#AEBDD8"/>
<stop offset="0.71" stop-color="#CCCDE8"/>
<stop offset="1" stop-color="#D7D3EE"/>
</linearGradient>
<linearGradient id="paint4_linear_6304_16671" x1="226.949" y1="155.315" x2="179.935" y2="73.8924" gradientUnits="userSpaceOnUse">
<stop offset="0.17" stop-color="#5A545E"/>
<stop offset="0.45" stop-color="#615B66"/>
<stop offset="0.79" stop-color="#706875"/>
</linearGradient>
<linearGradient id="paint5_linear_6304_16671" x1="89.554" y1="237.078" x2="42.5406" y2="155.656" gradientUnits="userSpaceOnUse">
<stop offset="0.17" stop-color="#5A545E"/>
<stop offset="0.45" stop-color="#615B66"/>
<stop offset="0.79" stop-color="#706875"/>
</linearGradient>
<linearGradient id="paint6_linear_6304_16671" x1="71.9627" y1="242.55" x2="34.8369" y2="178.255" gradientUnits="userSpaceOnUse">
<stop offset="0.14" stop-color="#AABBD6"/>
<stop offset="0.2" stop-color="#AEBDD8"/>
<stop offset="0.71" stop-color="#CCCDE8"/>
<stop offset="1" stop-color="#D7D3EE"/>
</linearGradient>
<linearGradient id="paint7_linear_6304_16671" x1="53.3567" y1="253.278" x2="9.85119" y2="177.909" gradientUnits="userSpaceOnUse">
<stop stop-color="#D8DCED"/>
<stop offset="0.82" stop-color="#EDEAFB"/>
</linearGradient>
<linearGradient id="paint8_linear_6304_16671" x1="148.553" y1="28.7142" x2="165.456" y2="-0.570297" gradientUnits="userSpaceOnUse">
<stop offset="0.29" stop-color="#EEEBFC"/>
<stop offset="1" stop-color="#EAE8FA"/>
</linearGradient>
<linearGradient id="paint9_linear_6304_16671" x1="9.14616" y1="184.508" x2="98.9257" y2="29.0064" gradientUnits="userSpaceOnUse">
<stop stop-color="#EAE8FA"/>
<stop offset="0.71" stop-color="#EEEBFC"/>
</linearGradient>
<linearGradient id="paint10_linear_6304_16671" x1="135.175" y1="134.866" x2="87.4389" y2="52.188" gradientUnits="userSpaceOnUse">
<stop stop-color="#D5CEEE"/>
<stop offset="0.1" stop-color="#CECAEA"/>
<stop offset="0.59" stop-color="#B0B7DC"/>
<stop offset="0.86" stop-color="#A5B0D6"/>
</linearGradient>
<clipPath id="clip0_6304_16671">
<rect width="244.559" height="267" fill="white" transform="translate(0.720276)"/>
</clipPath>
</defs>
</svg>
