<svg viewBox="0 0 32 32" fill="none" xmlns="http://www.w3.org/2000/svg">
<path d="M0 4C0 1.79086 1.79086 0 4 0H28C30.2091 0 32 1.79086 32 4V28C32 30.2091 30.2091 32 28 32H4C1.79086 32 0 30.2091 0 28V4Z" fill="#F2F3F4" style="mix-blend-mode:multiply"/>
<path d="M25 10.0016H24.94C24.6855 7.80899 23.6342 5.78637 21.9859 4.31829C20.3376 2.85022 18.2073 2.03906 16 2.03906C13.7927 2.03906 11.6624 2.85022 10.0141 4.31829C8.36578 5.78637 7.31445 7.80899 7.06 10.0016H7C5.67392 10.0016 4.40215 10.5283 3.46447 11.466C2.52678 12.4037 2 13.6755 2 15.0016C2 16.3276 2.52678 17.5994 3.46447 18.5371C4.40215 19.4748 5.67392 20.0016 7 20.0016H9V11.0016C9 9.14505 9.7375 7.36457 11.0503 6.05182C12.363 4.73906 14.1435 4.00157 16 4.00157C17.8565 4.00157 19.637 4.73906 20.9497 6.05182C22.2625 7.36457 23 9.14505 23 11.0016V21.0016C22.9993 21.9178 22.6841 22.806 22.1071 23.5177C21.5301 24.2294 20.7263 24.7215 19.83 24.9116C19.5631 23.9753 18.9638 23.1686 18.1446 22.6426C17.3254 22.1165 16.3425 21.9073 15.3801 22.0541C14.4177 22.2009 13.5419 22.6937 12.9168 23.44C12.2917 24.1864 11.9602 25.1351 11.9846 26.1083C12.0089 27.0816 12.3873 28.0125 13.0489 28.7267C13.7105 29.4409 14.6099 29.8893 15.5785 29.9878C16.547 30.0864 17.5182 29.8283 18.3101 29.262C19.102 28.6956 19.6602 27.86 19.88 26.9116C21.299 26.7012 22.5957 25.9894 23.5349 24.9051C24.4742 23.8209 24.994 22.4361 25 21.0016V20.0016C26.3261 20.0016 27.5979 19.4748 28.5355 18.5371C29.4732 17.5994 30 16.3276 30 15.0016C30 13.6755 29.4732 12.4037 28.5355 11.466C27.5979 10.5283 26.3261 10.0016 25 10.0016ZM4 15.0016C4 14.2059 4.31607 13.4429 4.87868 12.8802C5.44129 12.3176 6.20435 12.0016 7 12.0016V18.0016C6.20435 18.0016 5.44129 17.6855 4.87868 17.1229C4.31607 16.5603 4 15.7972 4 15.0016ZM16 28.0016C15.6044 28.0016 15.2178 27.8843 14.8889 27.6645C14.56 27.4447 14.3036 27.1324 14.1522 26.7669C14.0009 26.4015 13.9613 25.9993 14.0384 25.6114C14.1156 25.2234 14.3061 24.8671 14.5858 24.5874C14.8655 24.3076 15.2219 24.1172 15.6098 24.04C15.9978 23.9628 16.3999 24.0024 16.7654 24.1538C17.1308 24.3052 17.4432 24.5615 17.6629 24.8904C17.8827 25.2193 18 25.606 18 26.0016C18 26.532 17.7893 27.0407 17.4142 27.4158C17.0391 27.7909 16.5304 28.0016 16 28.0016ZM25 18.0016V12.0016C25.7956 12.0016 26.5587 12.3176 27.1213 12.8802C27.6839 13.4429 28 14.2059 28 15.0016C28 15.7972 27.6839 16.5603 27.1213 17.1229C26.5587 17.6855 25.7956 18.0016 25 18.0016Z" fill="#252525" style="mix-blend-mode:multiply"/>
</svg>
