<svg width="64" height="64" viewBox="0 0 64 64" fill="none" xmlns="http://www.w3.org/2000/svg">
<g opacity="0.45" clip-path="url(#clip0_168_31296)">
<path d="M63.5065 52.4825H48.7261C48.5866 52.4825 48.4528 52.422 48.3542 52.3143C48.2556 52.2067 48.2002 52.0606 48.2002 51.9084C48.2002 51.7561 48.2556 51.6101 48.3542 51.5024C48.4528 51.3947 48.5866 51.3343 48.7261 51.3343H62.9483V1.14824H1.0517V51.3343H15.2658C15.4053 51.3343 15.539 51.3947 15.6377 51.5024C15.7363 51.6101 15.7917 51.7561 15.7917 51.9084C15.7917 52.0606 15.7363 52.2067 15.6377 52.3143C15.539 52.422 15.4053 52.4825 15.2658 52.4825H0.525845C0.386381 52.4825 0.252636 52.422 0.154021 52.3143C0.0554046 52.2067 0 52.0606 0 51.9084V0.574131C0 0.421868 0.0554046 0.275836 0.154021 0.168169C0.252636 0.0605028 0.386381 0 0.525845 0H63.5065C63.6459 0 63.7797 0.0605028 63.8783 0.168169C63.9769 0.275836 64.0323 0.421868 64.0323 0.574131V51.9084C64.0323 52.0606 63.9769 52.2067 63.8783 52.3143C63.7797 52.422 63.6459 52.4825 63.5065 52.4825Z" fill="#495BFD"/>
<path d="M63.0454 12.4985H25.2003C25.0967 12.4977 24.9955 12.4639 24.9091 12.4013L20.3302 9.17751H1.06785C0.928386 9.17751 0.794629 9.11703 0.696013 9.00936C0.597397 8.9017 0.541992 8.75566 0.541992 8.6034C0.541992 8.45114 0.597397 8.30511 0.696013 8.19744C0.794629 8.08977 0.928386 8.0293 1.06785 8.0293H20.4839C20.5835 8.03254 20.6808 8.06288 20.767 8.1176L25.354 11.3503H63.0454C63.1848 11.3503 63.3186 11.4108 63.4172 11.5185C63.5158 11.6261 63.5712 11.7721 63.5712 11.9244C63.5712 12.0767 63.5158 12.2227 63.4172 12.3303C63.3186 12.438 63.1848 12.4985 63.0454 12.4985Z" fill="#495BFD"/>
<path d="M53.7093 7.15407H51.622C51.4826 7.15407 51.3488 7.09359 51.2502 6.98593C51.1516 6.87826 51.0962 6.73223 51.0962 6.57996C51.0962 6.4277 51.1516 6.28167 51.2502 6.174C51.3488 6.06634 51.4826 6.00586 51.622 6.00586H53.7093C53.8487 6.00586 53.9825 6.06634 54.0811 6.174C54.1797 6.28167 54.2351 6.4277 54.2351 6.57996C54.2351 6.73223 54.1797 6.87826 54.0811 6.98593C53.9825 7.09359 53.8487 7.15407 53.7093 7.15407Z" fill="#495BFD"/>
<path d="M57.1963 7.15407H55.1172C54.9777 7.15407 54.8439 7.09359 54.7453 6.98593C54.6467 6.87826 54.5913 6.73223 54.5913 6.57996C54.5913 6.4277 54.6467 6.28167 54.7453 6.174C54.8439 6.06634 54.9777 6.00586 55.1172 6.00586H57.1963C57.3358 6.00586 57.4695 6.06634 57.5681 6.174C57.6667 6.28167 57.7221 6.4277 57.7221 6.57996C57.7221 6.73223 57.6667 6.87826 57.5681 6.98593C57.4695 7.09359 57.3358 7.15407 57.1963 7.15407Z" fill="#495BFD"/>
<path d="M60.6831 7.15407H58.604C58.4645 7.15407 58.3307 7.09359 58.2321 6.98593C58.1335 6.87826 58.0781 6.73223 58.0781 6.57996C58.0781 6.4277 58.1335 6.28167 58.2321 6.174C58.3307 6.06634 58.4645 6.00586 58.604 6.00586H60.6831C60.8226 6.00586 60.9563 6.06634 61.0549 6.174C61.1535 6.28167 61.209 6.4277 61.209 6.57996C61.209 6.73223 61.1535 6.87826 61.0549 6.98593C60.9563 7.09359 60.8226 7.15407 60.6831 7.15407Z" fill="#495BFD"/>
<path d="M33.3304 64.0005H30.6769C30.5508 64.0003 30.4289 63.9515 30.3326 63.8626C30.2364 63.7736 30.1721 63.6504 30.151 63.5147L29.4391 58.33C28.7072 58.1865 27.9874 57.9767 27.2872 57.7029L24.302 61.8012C24.2225 61.909 24.1105 61.9824 23.986 62.0082C23.8615 62.0341 23.7326 62.0108 23.6224 61.9425L21.3168 60.4852C21.2066 60.4178 21.1228 60.3088 21.081 60.1787C21.0393 60.0485 21.0426 59.9062 21.0903 59.7786L22.8458 54.903C22.2829 54.3738 21.7582 53.798 21.2763 53.1807L16.8026 55.0974C16.6856 55.1494 16.5553 55.153 16.4361 55.1074C16.3169 55.0619 16.2171 54.9703 16.1554 54.85L14.8286 52.3328C14.7649 52.2143 14.7429 52.0745 14.7667 51.9396C14.7905 51.8047 14.8585 51.6838 14.958 51.5997L18.7037 48.3405C18.4575 47.5752 18.2681 46.7896 18.1374 45.9911L13.3886 45.205C13.2635 45.1859 13.1488 45.1183 13.0656 45.0145C12.9825 44.9107 12.9363 44.7776 12.9355 44.6397V43.2089C12.9355 43.0566 12.9909 42.9106 13.0896 42.8029C13.1882 42.6952 13.3219 42.6348 13.4614 42.6348C13.6009 42.6348 13.7346 42.6952 13.8332 42.8029C13.9318 42.9106 13.9872 43.0566 13.9872 43.2089V44.1628L18.6714 44.9312C18.7816 44.952 18.8831 45.0101 18.9615 45.0972C19.0399 45.1844 19.0912 45.2962 19.1082 45.417C19.2522 46.4186 19.4908 47.4014 19.8201 48.3494C19.8588 48.4631 19.8641 48.5873 19.8351 48.7044C19.806 48.8216 19.7443 48.926 19.6583 49.003L15.9612 52.2091L16.843 53.8697L21.244 51.9795C21.347 51.9335 21.4609 51.925 21.5688 51.9552C21.6766 51.9854 21.7726 52.0528 21.8426 52.1473C22.4254 52.9377 23.0845 53.6573 23.8085 54.2936C23.8951 54.372 23.9572 54.4779 23.9862 54.5966C24.0152 54.7153 24.0096 54.8409 23.9703 54.956L22.2471 59.7432L23.7681 60.6971L26.7047 56.6607C26.7766 56.5662 26.8736 56.4983 26.9823 56.4667C27.091 56.435 27.2061 56.4411 27.3115 56.4841C28.1752 56.8499 29.0732 57.1105 29.9893 57.2613C30.0995 57.2821 30.201 57.3402 30.2794 57.4274C30.3578 57.5145 30.4091 57.6264 30.4261 57.7471L31.138 62.8522H32.8855L33.5893 57.7471C33.6091 57.6262 33.6623 57.5148 33.7419 57.4279C33.8214 57.341 33.9235 57.2829 34.0343 57.2613C34.9471 57.1074 35.8421 56.8468 36.704 56.4841C36.8094 56.4411 36.9244 56.435 37.0332 56.4667C37.1419 56.4983 37.2389 56.5662 37.3107 56.6607L40.2555 60.6971L41.7764 59.7432L40.0451 54.9384C40.0023 54.8245 39.9942 54.6987 40.0219 54.5795C40.0495 54.4602 40.1116 54.3538 40.1988 54.2759C40.9256 53.6401 41.5875 52.9205 42.1728 52.1297C42.242 52.0339 42.338 51.9657 42.4462 51.9354C42.5543 51.9051 42.6686 51.9143 42.7715 51.9618L47.1724 53.852L48.0461 52.1915L44.3409 48.9765C44.2543 48.898 44.1922 48.7921 44.1632 48.6734C44.1342 48.5547 44.1398 48.4291 44.1791 48.314C44.52 47.3756 44.7616 46.3977 44.8991 45.3993C44.9166 45.2773 44.9691 45.1646 45.0491 45.0772C45.129 44.9899 45.2323 44.9326 45.3441 44.9135L50.0201 44.1451V43.2089C50.0201 43.0566 50.0755 42.9106 50.1741 42.8029C50.2727 42.6952 50.4065 42.6348 50.546 42.6348C50.6854 42.6348 50.8191 42.6952 50.9178 42.8029C51.0164 42.9106 51.0718 43.0566 51.0718 43.2089V44.6574C51.0714 44.794 51.0263 44.926 50.9447 45.0296C50.8632 45.1332 50.7505 45.2017 50.6268 45.2227L45.878 46.0088C45.74 46.8072 45.5452 47.5927 45.2955 48.3582L49.0574 51.6174C49.1555 51.7026 49.2224 51.8234 49.2462 51.9578C49.2699 52.0922 49.2488 52.2315 49.1868 52.3505L47.852 54.8677C47.7903 54.988 47.6904 55.0796 47.5712 55.1251C47.452 55.1707 47.3217 55.1671 47.2048 55.115L42.7391 53.1984C42.2524 53.8137 41.7251 54.3893 41.1615 54.9207L42.9171 59.7962C42.9647 59.9239 42.968 60.0662 42.9263 60.1963C42.8846 60.3265 42.8007 60.4355 42.6905 60.5028L40.3849 61.9602C40.2759 62.0279 40.1484 62.0509 40.0253 62.025C39.9021 61.999 39.7915 61.926 39.7134 61.8189L36.7201 57.7206C36.0219 57.9914 35.305 58.2011 34.5763 58.3477L33.8563 63.5324C33.8334 63.6656 33.768 63.7857 33.6718 63.8714C33.5755 63.9571 33.4546 64.0028 33.3304 64.0005ZM32.0037 51.1581C30.0688 51.1558 28.213 50.3193 26.8403 48.8305C25.4676 47.3417 24.6891 45.3213 24.6741 43.2089C24.6741 43.0566 24.7295 42.9106 24.8281 42.8029C24.9268 42.6952 25.0605 42.6348 25.2 42.6348C25.3394 42.6348 25.4732 42.6952 25.5718 42.8029C25.6704 42.9106 25.7258 43.0566 25.7258 43.2089C25.7258 45.0267 26.3872 46.77 27.5646 48.0554C28.7419 49.3407 30.3387 50.0629 32.0037 50.0629C33.6687 50.0629 35.2654 49.3407 36.4428 48.0554C37.6201 46.77 38.2815 45.0267 38.2815 43.2089C38.2815 43.0566 38.3369 42.9106 38.4355 42.8029C38.5341 42.6952 38.6679 42.6348 38.8074 42.6348C38.9468 42.6348 39.0806 42.6952 39.1792 42.8029C39.2778 42.9106 39.3332 43.0566 39.3332 43.2089C39.3162 45.3205 38.5369 47.3397 37.1647 48.8279C35.7924 50.3162 33.9379 51.1535 32.0037 51.1581Z" fill="#A6AEF6"/>
<path d="M56.3064 43.7635H7.68551C7.54605 43.7635 7.41229 43.703 7.31368 43.5953C7.21506 43.4876 7.15967 43.3416 7.15967 43.1894C7.15967 43.0371 7.21506 42.8911 7.31368 42.7834C7.41229 42.6757 7.54605 42.6152 7.68551 42.6152H56.3064C56.4458 42.6152 56.5796 42.6757 56.6782 42.7834C56.7768 42.8911 56.8322 43.0371 56.8322 43.1894C56.8322 43.3416 56.7768 43.4876 56.6782 43.5953C56.5796 43.703 56.4458 43.7635 56.3064 43.7635Z" fill="#A6AEF6"/>
<path d="M41.17 19.4236H15.4599C15.3205 19.4236 15.1867 19.3631 15.0881 19.2555C14.9895 19.1478 14.9341 19.0018 14.9341 18.8495C14.9341 18.6973 14.9895 18.5512 15.0881 18.4436C15.1867 18.3359 15.3205 18.2754 15.4599 18.2754H41.17C41.3094 18.2754 41.4432 18.3359 41.5418 18.4436C41.6404 18.5512 41.6958 18.6973 41.6958 18.8495C41.6958 19.0018 41.6404 19.1478 41.5418 19.2555C41.4432 19.3631 41.3094 19.4236 41.17 19.4236Z" fill="#A6AEF6"/>
<path d="M48.5316 19.4236H44.3491C44.2096 19.4236 44.0759 19.3631 43.9773 19.2555C43.8786 19.1478 43.8232 19.0018 43.8232 18.8495C43.8232 18.6973 43.8786 18.5512 43.9773 18.4436C44.0759 18.3359 44.2096 18.2754 44.3491 18.2754H48.5316C48.6711 18.2754 48.8048 18.3359 48.9034 18.4436C49.0021 18.5512 49.0575 18.6973 49.0575 18.8495C49.0575 19.0018 49.0021 19.1478 48.9034 19.2555C48.8048 19.3631 48.6711 19.4236 48.5316 19.4236Z" fill="#A6AEF6"/>
<path d="M35.7172 23.9353H15.4922C15.3527 23.9353 15.2189 23.8748 15.1203 23.7672C15.0217 23.6595 14.9663 23.5135 14.9663 23.3612C14.9663 23.209 15.0217 23.0629 15.1203 22.9553C15.2189 22.8476 15.3527 22.7871 15.4922 22.7871H35.7172C35.8566 22.7871 35.9904 22.8476 36.089 22.9553C36.1876 23.0629 36.243 23.209 36.243 23.3612C36.243 23.5135 36.1876 23.6595 36.089 23.7672C35.9904 23.8748 35.8566 23.9353 35.7172 23.9353Z" fill="#A6AEF6"/>
<path d="M48.5316 23.9353H44.3491C44.2096 23.9353 44.0759 23.8748 43.9773 23.7672C43.8786 23.6595 43.8232 23.5135 43.8232 23.3612C43.8232 23.209 43.8786 23.0629 43.9773 22.9553C44.0759 22.8476 44.2096 22.7871 44.3491 22.7871H48.5316C48.6711 22.7871 48.8048 22.8476 48.9034 22.9553C49.0021 23.0629 49.0575 23.209 49.0575 23.3612C49.0575 23.5135 49.0021 23.6595 48.9034 23.7672C48.8048 23.8748 48.6711 23.9353 48.5316 23.9353Z" fill="#A6AEF6"/>
<path d="M41.2749 23.9353H38.3545C38.215 23.9353 38.0812 23.8748 37.9826 23.7672C37.884 23.6595 37.8286 23.5135 37.8286 23.3612C37.8286 23.209 37.884 23.0629 37.9826 22.9553C38.0812 22.8476 38.215 22.7871 38.3545 22.7871H41.2749C41.4144 22.7871 41.5482 22.8476 41.6468 22.9553C41.7454 23.0629 41.8008 23.209 41.8008 23.3612C41.8008 23.5135 41.7454 23.6595 41.6468 23.7672C41.5482 23.8748 41.4144 23.9353 41.2749 23.9353Z" fill="#A6AEF6"/>
<path d="M48.5321 28.0252H28.3071C28.1676 28.0252 28.0339 27.9647 27.9353 27.857C27.8367 27.7494 27.7812 27.6033 27.7812 27.4511C27.7812 27.2988 27.8367 27.1528 27.9353 27.0451C28.0339 26.9374 28.1676 26.877 28.3071 26.877H48.5321C48.6715 26.877 48.8053 26.9374 48.9039 27.0451C49.0025 27.1528 49.058 27.2988 49.058 27.4511C49.058 27.6033 49.0025 27.7494 48.9039 27.857C48.8053 27.9647 48.6715 28.0252 48.5321 28.0252Z" fill="#A6AEF6"/>
<path d="M19.6425 28.0252H15.4599C15.3205 28.0252 15.1867 27.9647 15.0881 27.857C14.9895 27.7494 14.9341 27.6033 14.9341 27.4511C14.9341 27.2988 14.9895 27.1528 15.0881 27.0451C15.1867 26.9374 15.3205 26.877 15.4599 26.877H19.6425C19.7819 26.877 19.9157 26.9374 20.0143 27.0451C20.1129 27.1528 20.1683 27.2988 20.1683 27.4511C20.1683 27.6033 20.1129 27.7494 20.0143 27.857C19.9157 27.9647 19.7819 28.0252 19.6425 28.0252Z" fill="#A6AEF6"/>
<path d="M25.637 28.0252H22.7246C22.5851 28.0252 22.4514 27.9647 22.3527 27.857C22.2541 27.7494 22.1987 27.6033 22.1987 27.4511C22.1987 27.2988 22.2541 27.1528 22.3527 27.0451C22.4514 26.9374 22.5851 26.877 22.7246 26.877H25.637C25.7764 26.877 25.9102 26.9374 26.0088 27.0451C26.1074 27.1528 26.1628 27.2988 26.1628 27.4511C26.1628 27.6033 26.1074 27.7494 26.0088 27.857C25.9102 27.9647 25.7764 28.0252 25.637 28.0252Z" fill="#A6AEF6"/>
<path d="M48.532 32.4685H23.186C23.0465 32.4685 22.9128 32.408 22.8142 32.3004C22.7155 32.1927 22.6602 32.0467 22.6602 31.8944C22.6602 31.7422 22.7155 31.5961 22.8142 31.4885C22.9128 31.3808 23.0465 31.3203 23.186 31.3203H48.532C48.6714 31.3203 48.8052 31.3808 48.9038 31.4885C49.0024 31.5961 49.0578 31.7422 49.0578 31.8944C49.0578 32.0467 49.0024 32.1927 48.9038 32.3004C48.8052 32.408 48.6714 32.4685 48.532 32.4685Z" fill="#A6AEF6"/>
<path d="M19.6425 32.4685H15.4599C15.3205 32.4685 15.1867 32.408 15.0881 32.3004C14.9895 32.1927 14.9341 32.0467 14.9341 31.8944C14.9341 31.7422 14.9895 31.5961 15.0881 31.4885C15.1867 31.3808 15.3205 31.3203 15.4599 31.3203H19.6425C19.7819 31.3203 19.9157 31.3808 20.0143 31.4885C20.1129 31.5961 20.1683 31.7422 20.1683 31.8944C20.1683 32.0467 20.1129 32.1927 20.0143 32.3004C19.9157 32.408 19.7819 32.4685 19.6425 32.4685Z" fill="#A6AEF6"/>
<path d="M35.7172 36.8143H15.4922C15.3527 36.8143 15.2189 36.7537 15.1203 36.6461C15.0217 36.5384 14.9663 36.3924 14.9663 36.2401C14.9663 36.0879 15.0217 35.9419 15.1203 35.8342C15.2189 35.7265 15.3527 35.666 15.4922 35.666H35.7172C35.8566 35.666 35.9904 35.7265 36.089 35.8342C36.1876 35.9419 36.243 36.0879 36.243 36.2401C36.243 36.3924 36.1876 36.5384 36.089 36.6461C35.9904 36.7537 35.8566 36.8143 35.7172 36.8143Z" fill="#A6AEF6"/>
<path d="M48.5316 36.8143H44.3491C44.2096 36.8143 44.0759 36.7537 43.9773 36.6461C43.8786 36.5384 43.8232 36.3924 43.8232 36.2401C43.8232 36.0879 43.8786 35.9419 43.9773 35.8342C44.0759 35.7265 44.2096 35.666 44.3491 35.666H48.5316C48.6711 35.666 48.8048 35.7265 48.9034 35.8342C49.0021 35.9419 49.0575 36.0879 49.0575 36.2401C49.0575 36.3924 49.0021 36.5384 48.9034 36.6461C48.8048 36.7537 48.6711 36.8143 48.5316 36.8143Z" fill="#A6AEF6"/>
<path d="M41.2749 36.8143H38.3545C38.215 36.8143 38.0812 36.7537 37.9826 36.6461C37.884 36.5384 37.8286 36.3924 37.8286 36.2401C37.8286 36.0879 37.884 35.9419 37.9826 35.8342C38.0812 35.7265 38.215 35.666 38.3545 35.666H41.2749C41.4144 35.666 41.5482 35.7265 41.6468 35.8342C41.7454 35.9419 41.8008 36.0879 41.8008 36.2401C41.8008 36.3924 41.7454 36.5384 41.6468 36.6461C41.5482 36.7537 41.4144 36.8143 41.2749 36.8143Z" fill="#A6AEF6"/>
</g>
<defs>
<clipPath id="clip0_168_31296">
<rect width="64" height="64" fill="white"/>
</clipPath>
</defs>
</svg>
