<svg width="45" height="48" viewBox="0 0 45 48" fill="none"
  xmlns="http://www.w3.org/2000/svg">
  <path d="M1.59488 10.7552L20.4534 0.409194C20.9378 0.141175 21.488 0 22.0482 0C22.6084 0 23.1587 0.141175 23.6431 0.409194L42.5016 10.7552C42.9862 11.0225 43.3885 11.4063 43.6684 11.8682C43.9483 12.3301 44.0959 12.8539 44.0964 13.3872V34.1492C44.0959 34.6825 43.9483 35.2063 43.6684 35.6682C43.3885 36.1301 42.9862 36.5139 42.5016 36.7812L23.6431 47.1552C23.1587 47.4232 22.6084 47.5644 22.0482 47.5644C21.488 47.5644 20.9378 47.4232 20.4534 47.1552L1.59488 36.7812C1.11033 36.5139 0.707987 36.1301 0.428102 35.6682C0.148218 35.2063 0.000611681 34.6825 5.55381e-05 34.1492V13.4082C-0.0032665 12.8713 0.142499 12.3432 0.422576 11.8773C0.702654 11.4113 1.10709 11.0242 1.59488 10.7552Z" fill="#7D68FE"/>
  <path opacity="0.5" d="M1.59488 10.7552L20.4534 0.409194C20.9378 0.141175 21.488 0 22.0482 0C22.6084 0 23.1587 0.141175 23.6431 0.409194L42.5016 10.7552C42.9862 11.0225 43.3885 11.4063 43.6684 11.8682C43.9483 12.3301 44.0959 12.8539 44.0964 13.3872V13.5552C44.0959 14.0885 43.9483 14.6123 43.6684 15.0742C43.3885 15.5361 42.9862 15.9199 42.5016 16.1872L23.6431 26.6032C23.1587 26.8712 22.6084 27.0124 22.0482 27.0124C21.488 27.0124 20.9378 26.8712 20.4534 26.6032L1.59488 16.2362C1.11033 15.9689 0.707987 15.5851 0.428102 15.1232C0.148218 14.6613 0.000611681 14.1375 5.55381e-05 13.6042V13.4082C-0.0032665 12.8713 0.142499 12.3432 0.422576 11.8773C0.702654 11.4113 1.10709 11.0242 1.59488 10.7552Z" fill="url(#paint0_linear_457_56162)"/>
  <path opacity="0.5" d="M1.59482 31.3208L20.4534 20.9468C20.939 20.6822 21.4887 20.543 22.0482 20.543C22.6076 20.543 23.1574 20.6822 23.643 20.9468L42.5016 31.3208C42.9861 31.588 43.3884 31.9718 43.6683 32.4337C43.9482 32.8956 44.0958 33.4195 44.0964 33.9528V34.1488C44.0958 34.6821 43.9482 35.2059 43.6683 35.6678C43.3884 36.1297 42.9861 36.5135 42.5016 36.7808L23.643 47.1548C23.1586 47.4228 22.6084 47.564 22.0482 47.564C21.488 47.564 20.9378 47.4228 20.4534 47.1548L1.59482 36.7808C1.11028 36.5135 0.707931 36.1297 0.428047 35.6678C0.148162 35.2059 0.000556143 34.6821 0 34.1488V33.9528C0.000556143 33.4195 0.148162 32.8956 0.428047 32.4337C0.707931 31.9718 1.11028 31.588 1.59482 31.3208Z" fill="url(#paint1_linear_457_56162)"/>
  <defs>
    <linearGradient id="paint0_linear_457_56162" x1="22.0482" y1="27.0092" x2="22.0482" y2="0.00319361" gradientUnits="userSpaceOnUse">
      <stop stop-color="white"/>
      <stop offset="0.01" stop-color="white" stop-opacity="0.99"/>
      <stop offset="0.11" stop-color="white" stop-opacity="0.76"/>
      <stop offset="0.21" stop-color="white" stop-opacity="0.56"/>
      <stop offset="0.31" stop-color="white" stop-opacity="0.38"/>
      <stop offset="0.41" stop-color="white" stop-opacity="0.25"/>
      <stop offset="0.51" stop-color="white" stop-opacity="0.14"/>
      <stop offset="0.62" stop-color="white" stop-opacity="0.06"/>
      <stop offset="0.72" stop-color="white" stop-opacity="0.02"/>
      <stop offset="0.83" stop-color="white" stop-opacity="0"/>
    </linearGradient>
    <linearGradient id="paint1_linear_457_56162" x1="22.0482" y1="47.5608" x2="22.0482" y2="20.5408" gradientUnits="userSpaceOnUse">
      <stop stop-color="white"/>
      <stop offset="0.34" stop-color="white" stop-opacity="0.58"/>
      <stop offset="0.83" stop-color="white" stop-opacity="0"/>
    </linearGradient>
  </defs>
</svg>
